<?xml version="1.0" encoding="UTF-8"?>
<svg id="Layer_2" data-name="Layer 2" xmlns="http://www.w3.org/2000/svg" viewBox="0 0 18.29 18.51">
  <defs>
    <style>
      .cls-1 {
        fill: #000;
        stroke-width: 0px;
      }
    </style>
  </defs>
  <g id="Layer_1-2" data-name="Layer 1">
    <g>
      <path class="cls-1" d="M17.34,10.08h-6.33c-1.04,0-.89,1.85-.89,1.85v5.68c0,.5.42.9.94.9s.94-.4.94-.9v-5.68h5.33c.49,0,.89-.41.89-.93s-.4-.93-.89-.93Z"/>
      <path class="cls-1" d="M12.79,8.37h4.73s1.04-.25.71-1.24c-.02-.07-.05-.12-.07-.17-.31-1.22-1.76-5.51-6.83-6.91-1.15-.39-1.2,1.56-1.2,1.56v4.37c.04.96.79,2.38,2.67,2.38ZM14.57,4.14s.05.06.08.09c.03.04.07.08.1.12,0,0,0,0,0,0h0c.47.57.81,1.16,1.06,1.67.21.42-.3.49-.3.49h-2.73c-.48,0-.74-.21-.78-.6v-3.19s.03-.48.44-.26c.89.47,1.59,1.06,2.13,1.67Z"/>
      <path class="cls-1" d="M7.7,16.74c-1.68-.64-2.86-1.43-3.69-2.2h1.92c.52,0,.94-.41.94-.92s-.42-.92-.94-.92h-2.99c-.12,0-.23.02-.33.06-.15-.27-.26-.52-.34-.75h5.54c.39,0,.44-.45.45-.62v-4.71c0-.52-.9-.37-.9-.37H2.17c.14-.38.3-.72.47-1.04,0,0,0,0,0,0h0c1.68-3.14,4.61-3.41,4.77-3.42.52-.04.91-.48.87-.98C8.26.35,7.81-.03,7.29,0,7.23,0,1.57.45,0,7.03,0,7.03-.04,8.17,1.53,8.17h4.87v1.99H1.08c-1.39,0-.79,1.85-.79,1.85.4,1.49,1.79,4.55,6.71,6.43.11.04.23.06.34.06.38,0,.73-.22.88-.58.19-.47-.05-1-.53-1.19Z"/>
    </g>
  </g>
</svg>