<?xml version="1.0" standalone="no"?>
<!DOCTYPE svg PUBLIC "-//W3C//DTD SVG 20010904//EN"
 "http://www.w3.org/TR/2001/REC-SVG-20010904/DTD/svg10.dtd">
<svg version="1.0" xmlns="http://www.w3.org/2000/svg"
 width="558.000000pt" height="558.000000pt" viewBox="0 0 558.000000 558.000000"
 preserveAspectRatio="xMidYMid meet">
<metadata>
Created by potrace 1.14, written by Peter Selinger 2001-2017
</metadata>
<g transform="translate(0.000000,558.000000) scale(0.100000,-0.100000)"
fill="#000000" stroke="none">
<path d="M2589 5576 c-2 -2 -33 -6 -69 -10 -645 -60 -1249 -349 -1709 -816
-438 -445 -707 -1003 -785 -1630 -22 -173 -22 -509 -2 -639 3 -14 7 -48 11
-76 21 -179 92 -445 172 -645 280 -704 849 -1274 1553 -1553 187 -74 434 -143
580 -162 25 -3 56 -8 70 -10 138 -24 440 -35 585 -21 113 11 204 23 315 41 78
13 243 56 349 90 868 281 1555 989 1809 1865 30 100 48 175 58 230 3 14 9 52
15 85 6 33 12 71 15 85 29 164 26 600 -6 795 -5 33 -12 78 -15 100 -8 54 -50
221 -81 325 -103 341 -316 720 -558 995 -414 467 -951 781 -1541 899 -116 23
-129 26 -255 42 -38 6 -506 15 -511 10z"/>
</g>
</svg>
