<svg width="308" height="57" viewBox="0 0 308 57" fill="none" xmlns="http://www.w3.org/2000/svg">
<g clip-path="url(#clip0_2270_1816)">
<path d="M117.638 24.9722C115.321 24.9722 113.329 24.6158 111.662 23.9134C109.995 23.211 108.695 22.1521 107.762 20.7368C106.829 19.3215 106.316 17.5812 106.253 15.5054C106.232 14.5304 106.221 13.4926 106.221 12.3708C106.221 11.249 106.232 10.1902 106.253 9.19423C106.326 7.18135 106.829 5.49347 107.783 4.13059C108.737 2.7677 110.048 1.7403 111.736 1.04837C113.424 0.345963 115.394 0 117.638 0C119.441 0 121.045 0.209674 122.46 0.61854C123.876 1.0274 125.071 1.60401 126.067 2.3169C127.063 3.0298 127.828 3.83704 128.352 4.72816C128.877 5.61928 129.16 6.54184 129.181 7.48538C129.181 7.69505 129.107 7.87328 128.95 8.02005C128.793 8.16682 128.614 8.25069 128.405 8.25069H121.936C121.706 8.25069 121.517 8.20876 121.37 8.12489C121.223 8.04102 121.098 7.93618 120.982 7.79989C120.867 7.56925 120.689 7.30716 120.437 7.00313C120.196 6.6991 119.85 6.44749 119.399 6.21685C118.948 5.99669 118.372 5.89185 117.638 5.89185C116.537 5.89185 115.678 6.17491 115.069 6.72007C114.461 7.2757 114.136 8.15634 114.084 9.35148C114.011 11.291 114.011 13.2829 114.084 15.3167C114.126 16.6377 114.472 17.5917 115.122 18.1788C115.761 18.7659 116.642 19.0594 117.743 19.0594C118.466 19.0594 119.116 18.9441 119.693 18.7134C120.269 18.4828 120.72 18.1159 121.045 17.6231C121.37 17.1304 121.538 16.4804 121.538 15.6941V15.3482H119.043C118.781 15.3482 118.571 15.2538 118.393 15.0756C118.215 14.8974 118.131 14.6877 118.131 14.4571V11.2281C118.131 10.9765 118.215 10.7563 118.393 10.5886C118.571 10.4208 118.781 10.3265 119.043 10.3265H128.289C128.552 10.3265 128.772 10.4103 128.96 10.5886C129.149 10.7668 129.243 10.9765 129.243 11.2281V15.4635C129.243 17.4973 128.751 19.2167 127.765 20.632C126.78 22.0473 125.417 23.1166 123.687 23.861C121.947 24.6053 119.934 24.9722 117.638 24.9722Z" fill="#006A57"/>
<path d="M143.596 24.9722C141.415 24.9722 139.497 24.6368 137.851 23.9553C136.205 23.2739 134.905 22.215 133.982 20.7787C133.06 19.332 132.588 17.5183 132.588 15.3062V0.912084C132.588 0.660475 132.682 0.440316 132.871 0.262093C133.06 0.0838698 133.269 0 133.5 0H139.235C139.497 0 139.706 0.0838698 139.885 0.262093C140.063 0.440316 140.147 0.660475 140.147 0.912084V15.1909C140.147 16.3861 140.44 17.2877 141.027 17.8957C141.614 18.5038 142.453 18.8078 143.564 18.8078C144.676 18.8078 145.504 18.5038 146.08 17.8957C146.657 17.2877 146.94 16.3861 146.94 15.1909V0.912084C146.94 0.660475 147.034 0.440316 147.223 0.262093C147.412 0.0838698 147.632 0 147.894 0H153.587C153.838 0 154.059 0.0838698 154.237 0.262093C154.415 0.440316 154.499 0.660475 154.499 0.912084V15.2958C154.499 17.4973 154.038 19.3215 153.125 20.7683C152.213 22.2045 150.934 23.2739 149.288 23.9448C147.643 24.6263 145.745 24.9617 143.596 24.9617V24.9722Z" fill="#006A57"/>
<path d="M159.594 24.6158C159.363 24.6158 159.143 24.5319 158.965 24.3537C158.776 24.1755 158.682 23.9658 158.682 23.7037V0.912084C158.682 0.660475 158.776 0.440316 158.965 0.262093C159.153 0.0838698 159.363 0 159.594 0H165.569C165.821 0 166.041 0.0838698 166.219 0.262093C166.398 0.440316 166.482 0.660475 166.482 0.912084V23.7037C166.482 23.9658 166.398 24.1755 166.219 24.3537C166.041 24.5319 165.821 24.6158 165.569 24.6158H159.594Z" fill="#006A57"/>
<path d="M171.755 24.6158C171.524 24.6158 171.304 24.5319 171.126 24.3537C170.937 24.1755 170.843 23.9658 170.843 23.7037V0.912084C170.843 0.660475 170.937 0.440316 171.126 0.262093C171.315 0.0838698 171.524 0 171.755 0H177.594C177.856 0 178.077 0.0838698 178.265 0.262093C178.454 0.440316 178.548 0.660475 178.548 0.912084V18.357H188.707C188.969 18.357 189.189 18.4409 189.378 18.6191C189.567 18.7973 189.661 19.0175 189.661 19.2691V23.7037C189.661 23.9658 189.567 24.1755 189.378 24.3537C189.189 24.5319 188.969 24.6158 188.707 24.6158H171.755Z" fill="#006A57"/>
<path d="M195.102 24.6158C194.84 24.6158 194.631 24.5319 194.452 24.3537C194.274 24.1755 194.19 23.9658 194.19 23.7037V6.54184H188.141C187.879 6.54184 187.669 6.45797 187.491 6.27975C187.313 6.10153 187.229 5.89185 187.229 5.62976V0.912084C187.229 0.660475 187.313 0.440316 187.491 0.262093C187.669 0.0838698 187.879 0 188.141 0H207.903C208.165 0 208.375 0.0838698 208.553 0.262093C208.731 0.440316 208.815 0.660475 208.815 0.912084V5.61928C208.815 5.88137 208.731 6.09104 208.553 6.26927C208.375 6.44749 208.165 6.53136 207.903 6.53136H201.854V23.6932C201.854 23.9553 201.77 24.165 201.592 24.3432C201.413 24.5214 201.204 24.6053 200.942 24.6053H195.102V24.6158Z" fill="#006A57"/>
<path d="M218.806 24.6158C218.575 24.6158 218.355 24.5319 218.177 24.3537C217.988 24.1755 217.894 23.9658 217.894 23.7037V0.912084C217.894 0.660475 217.988 0.440316 218.177 0.262093C218.366 0.0838698 218.575 0 218.806 0H235.758C236.02 0 236.241 0.0838698 236.429 0.262093C236.618 0.440316 236.712 0.660475 236.712 0.912084V5.37815C236.712 5.60879 236.618 5.82895 236.429 6.00717C236.241 6.1854 236.02 6.29023 235.758 6.29023H225.317V10.1587H235.056C235.308 10.1587 235.538 10.2426 235.727 10.4208C235.916 10.599 236.01 10.8192 236.01 11.0708V15.5054C236.01 15.7675 235.916 15.9772 235.727 16.1554C235.538 16.3336 235.318 16.4175 235.056 16.4175H225.317V23.6932C225.317 23.9553 225.233 24.165 225.054 24.3432C224.876 24.5214 224.667 24.6053 224.404 24.6053H218.817L218.806 24.6158Z" fill="#006A57"/>
<path d="M241.031 24.6158C240.801 24.6158 240.591 24.5319 240.402 24.3537C240.213 24.1755 240.119 23.9658 240.119 23.7037V0.912084C240.119 0.660475 240.213 0.440316 240.402 0.262093C240.591 0.0838698 240.801 0 241.031 0H251.054C254.241 0 256.746 0.723377 258.56 2.18061C260.374 3.63785 261.286 5.66121 261.286 8.26117C261.286 9.90712 260.908 11.3015 260.164 12.4442C259.42 13.5869 258.434 14.499 257.208 15.149L261.779 23.4521C261.852 23.5884 261.883 23.7247 261.883 23.84C261.883 24.0497 261.81 24.2384 261.674 24.3851C261.537 24.5319 261.359 24.6158 261.15 24.6158H255.205C254.754 24.6158 254.419 24.5005 254.188 24.2803C253.958 24.0601 253.8 23.8505 253.727 23.6618L250.215 16.4175H247.688V23.6932C247.688 23.9553 247.605 24.165 247.426 24.3432C247.248 24.5214 247.038 24.6053 246.776 24.6053H241.042L241.031 24.6158ZM247.678 10.62H251.022C251.84 10.62 252.448 10.3894 252.846 9.93857C253.245 9.47728 253.444 8.91116 253.444 8.22972C253.444 7.54828 253.255 6.92974 252.867 6.43701C252.479 5.94427 251.861 5.70315 251.022 5.70315H247.678V10.6305V10.62Z" fill="#006A57"/>
<path d="M265.888 24.6158C265.658 24.6158 265.448 24.5319 265.259 24.3537C265.07 24.1755 264.976 23.9658 264.976 23.7037V0.912084C264.976 0.660475 265.07 0.440316 265.259 0.262093C265.448 0.0838698 265.658 0 265.888 0H283.123C283.385 0 283.606 0.0838698 283.794 0.262093C283.983 0.440316 284.077 0.660475 284.077 0.912084V5.06364C284.077 5.29428 283.983 5.51444 283.794 5.69266C283.606 5.87088 283.385 5.97572 283.123 5.97572H272.262V9.45632H282.358C282.62 9.45632 282.84 9.54019 283.029 9.71841C283.218 9.89663 283.312 10.1063 283.312 10.3684V14.1635C283.312 14.4256 283.218 14.6353 283.029 14.8135C282.84 14.9917 282.62 15.0756 282.358 15.0756H272.262V18.6296H283.406C283.658 18.6296 283.889 18.7239 284.077 18.9126C284.266 19.1013 284.36 19.3215 284.36 19.5836V23.6932C284.36 23.9553 284.266 24.165 284.077 24.3432C283.889 24.5214 283.669 24.6053 283.406 24.6053H265.899L265.888 24.6158Z" fill="#006A57"/>
<path d="M288.848 24.6158C288.617 24.6158 288.397 24.5319 288.219 24.3537C288.03 24.1755 287.936 23.9658 287.936 23.7037V0.912084C287.936 0.660475 288.03 0.440316 288.219 0.262093C288.407 0.0838698 288.617 0 288.848 0H306.355C306.607 0 306.838 0.0838698 307.026 0.262093C307.215 0.440316 307.309 0.660475 307.309 0.912084V5.06364C307.309 5.29428 307.215 5.51444 307.026 5.69266C306.838 5.88137 306.618 5.97572 306.355 5.97572H295.211V9.45632H305.307C305.569 9.45632 305.789 9.54019 305.978 9.71841C306.167 9.89663 306.261 10.1063 306.261 10.3684V14.1635C306.261 14.4256 306.167 14.6353 305.978 14.8135C305.789 14.9917 305.569 15.0756 305.307 15.0756H295.211V18.6296H306.355C306.618 18.6296 306.838 18.7239 307.026 18.9126C307.215 19.1013 307.309 19.3215 307.309 19.5836V23.6932C307.309 23.9553 307.215 24.165 307.026 24.3432C306.838 24.5214 306.618 24.6053 306.355 24.6053H288.848V24.6158Z" fill="#006A57"/>
<path d="M112.606 56.9996C111.149 56.9996 109.964 56.7165 109.041 56.1504C108.119 55.5843 107.437 54.8085 106.987 53.8335C106.536 52.8585 106.295 51.7472 106.242 50.4997C106.221 49.8392 106.221 49.1368 106.221 48.382C106.221 47.6271 106.221 46.9142 106.242 46.2223C106.295 44.9747 106.536 43.853 106.987 42.8675C107.437 41.882 108.119 41.1062 109.041 40.5506C109.964 39.995 111.149 39.7119 112.606 39.7119C113.738 39.7119 114.713 39.8692 115.51 40.1942C116.307 40.5192 116.967 40.9385 117.47 41.4522C117.973 41.9764 118.351 42.532 118.602 43.1296C118.854 43.7272 118.99 44.3143 119.022 44.8909C119.043 45.0376 118.99 45.153 118.886 45.2368C118.781 45.3207 118.655 45.3731 118.519 45.3731H118.036C117.911 45.3731 117.795 45.3417 117.701 45.2683C117.607 45.1949 117.544 45.0691 117.512 44.8699C117.208 43.4441 116.632 42.4691 115.793 41.9345C114.954 41.4103 113.895 41.1377 112.606 41.1377C111.149 41.1377 109.995 41.5466 109.136 42.3748C108.276 43.203 107.815 44.5135 107.752 46.3271C107.699 47.6376 107.699 48.99 107.752 50.3634C107.815 52.1771 108.276 53.4875 109.136 54.3157C109.995 55.144 111.149 55.5528 112.606 55.5528C113.885 55.5528 114.944 55.2907 115.793 54.7561C116.632 54.2319 117.208 53.2464 117.512 51.8206C117.544 51.6319 117.607 51.4956 117.701 51.4222C117.795 51.3488 117.911 51.3174 118.036 51.3174H118.519C118.665 51.3174 118.791 51.3593 118.886 51.4537C118.98 51.548 119.032 51.6529 119.022 51.7996C118.99 52.3762 118.854 52.9633 118.602 53.5609C118.351 54.1585 117.973 54.7246 117.47 55.2383C116.967 55.7625 116.317 56.1818 115.51 56.4964C114.713 56.8213 113.738 56.9786 112.606 56.9786V56.9996Z" fill="#006A57"/>
<path d="M128.237 56.9993C126.905 56.9993 125.773 56.7582 124.85 56.2864C123.917 55.8147 123.204 55.0913 122.712 54.1058C122.219 53.1203 121.946 51.8728 121.894 50.3736C121.873 49.6502 121.873 48.9793 121.873 48.3607C121.873 47.7422 121.873 47.0607 121.894 46.3374C121.946 44.8487 122.229 43.6116 122.754 42.6261C123.278 41.6407 124.012 40.9068 124.955 40.4246C125.888 39.9423 126.989 39.7012 128.237 39.7012C129.484 39.7012 130.575 39.9423 131.518 40.4246C132.451 40.9068 133.195 41.6407 133.73 42.6261C134.265 43.6116 134.548 44.8487 134.579 46.3374C134.611 47.0607 134.632 47.7317 134.632 48.3607C134.632 48.9898 134.611 49.6607 134.579 50.3736C134.548 51.8833 134.275 53.1203 133.772 54.1058C133.269 55.0913 132.545 55.8147 131.623 56.2864C130.69 56.7582 129.568 56.9993 128.237 56.9993ZM128.237 55.5526C129.61 55.5526 130.742 55.1332 131.633 54.305C132.525 53.4768 132.996 52.1244 133.059 50.2478C133.091 49.5244 133.112 48.8954 133.112 48.3502C133.112 47.8051 133.091 47.1761 133.059 46.4527C133.028 45.2051 132.797 44.1882 132.378 43.4019C131.958 42.6156 131.382 42.0495 130.669 41.6826C129.956 41.3261 129.149 41.1374 128.226 41.1374C127.304 41.1374 126.528 41.3157 125.815 41.6826C125.102 42.039 124.536 42.6156 124.106 43.4019C123.687 44.1882 123.446 45.2051 123.393 46.4527C123.372 47.1761 123.372 47.8051 123.372 48.3502C123.372 48.8954 123.372 49.5244 123.393 50.2478C123.456 52.1244 123.938 53.4768 124.829 54.305C125.731 55.1437 126.853 55.5526 128.216 55.5526H128.237Z" fill="#006A57"/>
<path d="M138.972 56.759C138.815 56.759 138.689 56.7066 138.584 56.6122C138.49 56.5179 138.438 56.3921 138.438 56.2243V40.4883C138.438 40.31 138.49 40.1737 138.584 40.0794C138.679 39.985 138.804 39.9326 138.972 39.9326H144.812C145.933 39.9326 146.908 40.1213 147.726 40.4987C148.554 40.8762 149.194 41.4318 149.645 42.1657C150.095 42.8995 150.326 43.8116 150.326 44.9019C150.326 45.9922 150.095 46.9043 149.645 47.6382C149.183 48.372 148.544 48.9277 147.726 49.3051C146.898 49.6825 145.933 49.8712 144.812 49.8712H139.958V56.2138C139.958 56.3711 139.905 56.5074 139.811 56.6017C139.717 56.6961 139.58 56.7485 139.402 56.7485H138.972V56.759ZM139.958 48.4454H144.686C146.08 48.4454 147.118 48.1414 147.799 47.5333C148.481 46.9253 148.816 46.0551 148.816 44.9124C148.816 43.7697 148.481 42.8995 147.799 42.2915C147.118 41.6834 146.08 41.3794 144.686 41.3794H139.958V48.4454Z" fill="#006A57"/>
<path d="M158.189 56.7583C158.032 56.7583 157.896 56.7059 157.801 56.6115C157.707 56.5172 157.654 56.3913 157.654 56.2236V50.3422L151.794 40.7391C151.794 40.7391 151.763 40.6448 151.731 40.5924C151.7 40.54 151.7 40.4875 151.7 40.4246C151.7 40.2988 151.752 40.1835 151.846 40.0892C151.941 39.9948 152.056 39.9424 152.182 39.9424H152.664C152.78 39.9424 152.884 39.9738 152.979 40.0263C153.073 40.0787 153.157 40.173 153.22 40.2988L158.43 48.7802L163.641 40.2988C163.725 40.173 163.808 40.0787 163.892 40.0263C163.976 39.9738 164.081 39.9424 164.196 39.9424H164.679C164.804 39.9424 164.92 39.9948 165.014 40.0892C165.108 40.1835 165.161 40.2988 165.161 40.4246C165.161 40.4875 165.161 40.54 165.14 40.5924C165.119 40.6448 165.098 40.6867 165.066 40.7391L159.206 50.3422V56.2236C159.206 56.3809 159.154 56.5172 159.059 56.6115C158.965 56.7059 158.829 56.7583 158.65 56.7583H158.189Z" fill="#006A57"/>
<path d="M173.275 56.9996C171.818 56.9996 170.633 56.7165 169.711 56.1504C168.788 55.5843 168.107 54.8085 167.656 53.8335C167.205 52.8585 166.964 51.7472 166.912 50.4997C166.891 49.8392 166.891 49.1368 166.891 48.382C166.891 47.6271 166.891 46.9142 166.912 46.2223C166.964 44.9747 167.205 43.853 167.656 42.8675C168.107 41.882 168.788 41.1062 169.711 40.5506C170.633 39.995 171.818 39.7119 173.275 39.7119C174.407 39.7119 175.382 39.8692 176.179 40.1942C176.976 40.5192 177.636 40.9385 178.14 41.4522C178.643 41.9764 179.02 42.532 179.272 43.1296C179.524 43.7272 179.66 44.3143 179.691 44.8909C179.712 45.0376 179.66 45.153 179.555 45.2368C179.45 45.3207 179.324 45.3731 179.188 45.3731H178.706C178.58 45.3731 178.465 45.3417 178.37 45.2683C178.276 45.1949 178.213 45.0691 178.182 44.8699C177.878 43.4441 177.301 42.4691 176.462 41.9345C175.624 41.4103 174.565 41.1377 173.275 41.1377C171.818 41.1377 170.665 41.5466 169.805 42.3748C168.945 43.203 168.484 44.5135 168.421 46.3271C168.369 47.6376 168.369 48.99 168.421 50.3634C168.484 52.1771 168.945 53.4875 169.805 54.3157C170.665 55.144 171.818 55.5528 173.275 55.5528C174.554 55.5528 175.613 55.2907 176.462 54.7561C177.301 54.2319 177.878 53.2464 178.182 51.8206C178.213 51.6319 178.276 51.4956 178.37 51.4222C178.465 51.3488 178.58 51.3174 178.706 51.3174H179.188C179.335 51.3174 179.461 51.3593 179.555 51.4537C179.649 51.548 179.702 51.6529 179.691 51.7996C179.66 52.3762 179.524 52.9633 179.272 53.5609C179.02 54.1585 178.643 54.7246 178.14 55.2383C177.636 55.7625 176.986 56.1818 176.179 56.4964C175.372 56.8109 174.407 56.9786 173.275 56.9786V56.9996Z" fill="#006A57"/>
<path d="M181.872 56.7585C181.746 56.7585 181.631 56.7061 181.536 56.6118C181.442 56.5174 181.39 56.4021 181.39 56.2763C181.39 56.1924 181.4 56.1085 181.442 56.0142L187.523 40.4249C187.586 40.2676 187.669 40.1418 187.774 40.0684C187.879 39.9846 188.026 39.9531 188.215 39.9531H189.032C189.221 39.9531 189.368 39.9951 189.473 40.0684C189.577 40.1523 189.661 40.2676 189.724 40.4249L195.805 56.0142C195.836 56.1085 195.857 56.2029 195.857 56.2763C195.857 56.4021 195.805 56.5174 195.71 56.6118C195.616 56.7061 195.501 56.7585 195.375 56.7585H194.893C194.735 56.7585 194.61 56.7166 194.536 56.6222C194.452 56.5384 194.4 56.4545 194.368 56.3916L192.88 52.5441H184.378L182.889 56.3916C182.868 56.4545 182.815 56.5279 182.732 56.6222C182.648 56.7166 182.522 56.7585 182.365 56.7585H181.882H181.872ZM184.954 51.1078H192.303L188.623 41.641L184.944 51.1078H184.954Z" fill="#006A57"/>
<path d="M201.089 56.759C200.931 56.759 200.795 56.7066 200.701 56.6122C200.606 56.5179 200.554 56.3921 200.554 56.2243V41.3794H195.794C195.637 41.3794 195.511 41.327 195.407 41.2326C195.312 41.1382 195.26 41.0124 195.26 40.8447V40.4883C195.26 40.31 195.312 40.1737 195.407 40.0794C195.501 39.985 195.627 39.9326 195.794 39.9326H206.792C206.97 39.9326 207.106 39.985 207.201 40.0794C207.295 40.1737 207.347 40.31 207.347 40.4883V40.8447C207.347 41.002 207.295 41.1382 207.201 41.2326C207.106 41.327 206.97 41.3794 206.792 41.3794H202.064V56.2243C202.064 56.3816 202.011 56.5179 201.917 56.6122C201.823 56.7066 201.686 56.759 201.508 56.759H201.078H201.089Z" fill="#006A57"/>
<path d="M216.374 56.759C216.216 56.759 216.09 56.7066 215.986 56.6122C215.891 56.5179 215.839 56.3921 215.839 56.2243V40.4883C215.839 40.31 215.891 40.1737 215.986 40.0794C216.08 39.985 216.206 39.9326 216.374 39.9326H221.972C223.649 39.9326 224.991 40.331 225.998 41.1382C226.994 41.935 227.497 43.1616 227.497 44.7866C227.497 46.0656 227.172 47.093 226.532 47.8583C225.893 48.6236 225.002 49.1478 223.869 49.4204L227.738 56.0042C227.79 56.0985 227.811 56.1929 227.811 56.2663C227.811 56.3921 227.759 56.5074 227.665 56.6017C227.57 56.6961 227.455 56.7485 227.329 56.7485H227.035C226.784 56.7485 226.585 56.6751 226.459 56.5493C226.333 56.413 226.218 56.2663 226.123 56.109L222.307 49.651H217.359V56.2348C217.359 56.3921 217.307 56.5283 217.212 56.6227C217.118 56.7171 216.982 56.7695 216.803 56.7695H216.374V56.759ZM217.359 48.2043H221.857C223.251 48.2043 224.289 47.9212 224.97 47.3551C225.652 46.789 225.987 45.9398 225.987 44.7971C225.987 43.6543 225.652 42.8052 224.97 42.239C224.289 41.6729 223.251 41.3899 221.857 41.3899H217.359V48.2148V48.2043Z" fill="#006A57"/>
<path d="M231.743 56.759C231.585 56.759 231.46 56.7066 231.355 56.6122C231.26 56.5179 231.208 56.3921 231.208 56.2243V40.4883C231.208 40.31 231.26 40.1737 231.355 40.0794C231.449 39.985 231.575 39.9326 231.743 39.9326H241.115C241.293 39.9326 241.43 39.985 241.524 40.0794C241.618 40.1737 241.671 40.31 241.671 40.4883V40.8447C241.671 41.002 241.618 41.1382 241.524 41.2326C241.43 41.327 241.293 41.3794 241.115 41.3794H232.728V47.5019H240.58C240.759 47.5019 240.895 47.5543 240.989 47.6486C241.084 47.743 241.136 47.8793 241.136 48.0575V48.4139C241.136 48.5712 241.084 48.7075 240.989 48.8018C240.895 48.8962 240.759 48.9486 240.58 48.9486H232.728V55.3122H241.304C241.482 55.3122 241.618 55.3647 241.713 55.459C241.807 55.5534 241.859 55.6897 241.859 55.8679V56.2243C241.859 56.3816 241.807 56.5179 241.713 56.6122C241.618 56.7066 241.482 56.759 241.304 56.759H231.743Z" fill="#006A57"/>
<path d="M250.959 56.9996C249.502 56.9996 248.317 56.7165 247.395 56.1504C246.472 55.5843 245.791 54.8085 245.34 53.8335C244.889 52.8585 244.648 51.7472 244.596 50.4997C244.575 49.8392 244.575 49.1368 244.575 48.382C244.575 47.6271 244.575 46.9142 244.596 46.2223C244.648 44.9747 244.889 43.853 245.34 42.8675C245.791 41.882 246.472 41.1062 247.395 40.5506C248.317 39.995 249.502 39.7119 250.959 39.7119C252.092 39.7119 253.067 39.8692 253.863 40.1942C254.66 40.5192 255.321 40.9385 255.824 41.4522C256.327 41.9764 256.704 42.532 256.956 43.1296C257.208 43.7272 257.344 44.3143 257.375 44.8909C257.396 45.0376 257.344 45.153 257.239 45.2368C257.134 45.3207 257.008 45.3731 256.872 45.3731H256.39C256.264 45.3731 256.149 45.3417 256.054 45.2683C255.96 45.1949 255.897 45.0691 255.866 44.8699C255.562 43.4441 254.985 42.4691 254.146 41.9345C253.308 41.4103 252.249 41.1377 250.959 41.1377C249.502 41.1377 248.349 41.5466 247.489 42.3748C246.63 43.203 246.168 44.5135 246.105 46.3271C246.053 47.6376 246.053 48.99 246.105 50.3634C246.168 52.1771 246.63 53.4875 247.489 54.3157C248.349 55.144 249.502 55.5528 250.959 55.5528C252.238 55.5528 253.297 55.2907 254.146 54.7561C254.985 54.2319 255.562 53.2464 255.866 51.8206C255.897 51.6319 255.96 51.4956 256.054 51.4222C256.149 51.3488 256.264 51.3174 256.39 51.3174H256.872C257.019 51.3174 257.145 51.3593 257.239 51.4537C257.333 51.548 257.386 51.6529 257.375 51.7996C257.344 52.3762 257.208 52.9633 256.956 53.5609C256.704 54.1585 256.327 54.7246 255.824 55.2383C255.321 55.7625 254.671 56.1818 253.863 56.4964C253.056 56.8109 252.092 56.9786 250.959 56.9786V56.9996Z" fill="#006A57"/>
<path d="M261.433 56.759C261.275 56.759 261.139 56.7066 261.045 56.6122C260.95 56.5179 260.898 56.3921 260.898 56.2243V40.4673C260.898 40.31 260.95 40.1737 261.045 40.0794C261.139 39.985 261.265 39.9326 261.433 39.9326H261.894C262.051 39.9326 262.187 39.985 262.282 40.0794C262.376 40.1737 262.429 40.2995 262.429 40.4673V56.2243C262.429 56.3816 262.376 56.5179 262.282 56.6122C262.187 56.7066 262.062 56.759 261.894 56.759H261.433Z" fill="#006A57"/>
<path d="M267.461 56.759C267.304 56.759 267.178 56.7066 267.073 56.6122C266.979 56.5179 266.926 56.3921 266.926 56.2243V40.4883C266.926 40.31 266.979 40.1737 267.073 40.0794C267.167 39.985 267.293 39.9326 267.461 39.9326H273.3C274.422 39.9326 275.397 40.1213 276.215 40.4987C277.043 40.8762 277.683 41.4318 278.133 42.1657C278.584 42.8995 278.815 43.8116 278.815 44.9019C278.815 45.9922 278.584 46.9043 278.133 47.6382C277.672 48.372 277.033 48.9277 276.215 49.3051C275.387 49.6825 274.412 49.8712 273.3 49.8712H268.446V56.2138C268.446 56.3711 268.394 56.5074 268.3 56.6017C268.205 56.6961 268.069 56.7485 267.891 56.7485H267.461V56.759ZM268.446 48.4454H273.175C274.569 48.4454 275.607 48.1414 276.288 47.5333C276.97 46.9253 277.305 46.0551 277.305 44.9124C277.305 43.7697 276.97 42.8995 276.288 42.2915C275.607 41.6834 274.569 41.3794 273.175 41.3794H268.446V48.4454Z" fill="#006A57"/>
<path d="M282.547 56.759C282.39 56.759 282.253 56.7066 282.159 56.6122C282.065 56.5179 282.012 56.3921 282.012 56.2243V40.4883C282.012 40.31 282.065 40.1737 282.159 40.0794C282.253 39.985 282.379 39.9326 282.547 39.9326H291.919C292.098 39.9326 292.234 39.985 292.328 40.0794C292.423 40.1737 292.475 40.31 292.475 40.4883V40.8447C292.475 41.002 292.423 41.1382 292.328 41.2326C292.234 41.327 292.098 41.3794 291.919 41.3794H283.532V47.5019H291.385C291.563 47.5019 291.699 47.5543 291.794 47.6486C291.888 47.743 291.94 47.8793 291.94 48.0575V48.4139C291.94 48.5712 291.888 48.7075 291.794 48.8018C291.699 48.8962 291.563 48.9486 291.385 48.9486H283.532V55.3122H292.108C292.286 55.3122 292.423 55.3647 292.517 55.459C292.611 55.5534 292.664 55.6897 292.664 55.8679V56.2243C292.664 56.3816 292.611 56.5179 292.517 56.6122C292.423 56.7066 292.286 56.759 292.108 56.759H282.547Z" fill="#006A57"/>
<path d="M301.281 56.9998C299.981 56.9998 298.88 56.7901 297.979 56.3708C297.077 55.9514 296.385 55.4167 295.903 54.7563C295.421 54.0958 295.169 53.4039 295.138 52.67C295.138 52.5442 295.19 52.4289 295.284 52.3345C295.379 52.2402 295.505 52.1877 295.641 52.1877H296.123C296.28 52.1877 296.406 52.2402 296.49 52.3345C296.574 52.4289 296.626 52.5442 296.647 52.67C296.71 53.1208 296.909 53.5611 297.245 54.0014C297.58 54.4417 298.073 54.8087 298.734 55.1022C299.394 55.3958 300.243 55.5425 301.281 55.5425C302.854 55.5425 303.996 55.2595 304.72 54.6934C305.443 54.1272 305.8 53.3619 305.8 52.3974C305.8 51.7579 305.611 51.2442 305.234 50.8458C304.856 50.4579 304.28 50.1015 303.514 49.787C302.749 49.4725 301.763 49.1265 300.558 48.7386C299.426 48.3717 298.482 47.9943 297.748 47.5959C297.014 47.208 296.469 46.7257 296.123 46.1701C295.777 45.6145 295.609 44.8911 295.609 44.0104C295.609 43.1927 295.83 42.4589 296.259 41.8089C296.689 41.1589 297.318 40.6452 298.147 40.2573C298.975 39.8694 299.971 39.6807 301.166 39.6807C302.109 39.6807 302.938 39.8065 303.64 40.0686C304.342 40.3202 304.929 40.6661 305.391 41.0855C305.852 41.5048 306.209 41.9661 306.45 42.4589C306.691 42.9516 306.817 43.4234 306.838 43.8846C306.838 44 306.796 44.1048 306.722 44.2096C306.638 44.3145 306.513 44.3669 306.334 44.3669H305.852C305.768 44.3669 305.674 44.3354 305.548 44.2725C305.422 44.2096 305.349 44.0838 305.317 43.8846C305.223 43.0879 304.804 42.4274 304.059 41.9032C303.315 41.379 302.35 41.1274 301.166 41.1274C299.981 41.1274 299.017 41.3581 298.262 41.8193C297.507 42.2806 297.13 43.0145 297.13 44C297.13 44.6395 297.297 45.1637 297.633 45.5725C297.968 45.9814 298.503 46.3378 299.216 46.6523C299.939 46.9669 300.862 47.3023 302.005 47.6693C303.21 48.0572 304.196 48.4346 304.982 48.8225C305.768 49.2104 306.355 49.6717 306.733 50.2273C307.11 50.7829 307.309 51.4958 307.309 52.3765C307.309 53.3514 307.068 54.1797 306.575 54.8611C306.083 55.5425 305.391 56.0667 304.5 56.4232C303.598 56.7796 302.529 56.9683 301.281 56.9683V56.9998Z" fill="#006A57"/>
<path d="M0.0523847 32.9401C-0.115355 33.6635 0.115287 34.3869 0.754794 35.0788C0.891083 35.2256 1.03785 35.3723 1.22656 35.5296C3.1346 37.1965 5.48295 38.3287 8.41839 38.9892C8.94258 39.1045 9.41435 39.157 9.8337 39.1465C9.27806 41.2118 9.09984 43.4448 9.27806 45.8561C9.54015 49.2318 10.8087 52.4713 13.0627 55.5011C13.2199 55.7212 13.3667 55.8995 13.5135 56.0567C14.3731 56.9793 15.1909 57.0317 15.7151 56.9164C16.9626 56.6438 17.4029 55.3124 17.5497 54.8721C17.8013 54.1172 18.3465 53.3729 19.311 52.4713C19.8247 51.9995 20.3384 51.5277 20.8521 51.056C22.0472 49.9657 23.2738 48.8439 24.448 47.6802C28.327 43.8117 29.8471 39.3352 28.9665 34.3659C28.61 32.353 27.8552 30.7385 26.6496 29.449C26.1883 28.9458 25.6432 28.495 25.0456 28.0966L23.4625 27.0378C23.19 26.5765 22.8754 26.1467 22.519 25.7692C21.24 24.3854 19.4997 23.5781 17.2142 23.2846C13.7651 22.8443 10.5571 23.9031 7.67405 26.4297C7.066 26.9644 6.48939 27.541 5.94424 28.0861C4.67571 29.3652 3.47008 30.5813 1.908 31.1579C1.50962 31.3046 0.303994 31.7659 0.0209335 32.9401H0.0523847Z" fill="#006A57"/>
<path d="M19.9508 42.2602C22.4145 40.2473 23.4209 37.1231 24.2492 29.3232C26.2096 30.6337 27.1427 32.4684 27.5306 34.628C28.3693 39.3771 26.7443 43.319 23.4314 46.6319C21.7855 48.2778 20.0347 49.8084 18.3363 51.3915C17.4033 52.2511 16.5646 53.2156 16.1662 54.4108C15.6315 56.0253 14.9815 55.564 14.2791 54.6205C12.3187 51.9786 11.0292 49.0222 10.7776 45.7512C10.3477 40.0586 12.109 35.1836 16.617 31.4724C17.6444 30.6337 18.7767 29.9942 20.0452 29.6063C22.0581 28.9878 22.75 29.449 22.5822 31.5668C22.3411 34.5337 21.9742 37.5005 20.7581 40.2787C20.5065 40.8658 20.2863 41.4634 19.9613 42.2706L19.9508 42.2602Z" fill="#99C337"/>
<path d="M22.3724 28.0653C18.8394 27.4572 15.7048 28.2225 12.7693 29.9838C14.6564 29.6064 16.5225 29.1556 18.4935 29.2919C16.7741 30.6233 14.8661 31.5983 13.5451 33.3596C12.8952 34.2192 12.1508 35.0474 11.8258 36.0539C11.2911 37.7103 10.1903 37.8676 8.75408 37.5426C6.33234 36.9974 4.09931 36.0644 2.21224 34.4079C1.36305 33.6636 1.05903 33.0765 2.46384 32.5523C5.06381 31.5773 6.6783 29.2919 8.68069 27.5411C11.1024 25.4234 13.8597 24.3436 17.0572 24.7524C19.2693 25.0355 21.2297 25.9161 22.362 28.0653H22.3724Z" fill="#99C337"/>
<path d="M97.9076 30.613C98.0754 31.3363 97.8447 32.0597 97.2052 32.7516C97.0689 32.8984 96.9221 33.0452 96.7334 33.2024C94.8254 34.8693 92.4771 36.0016 89.5416 36.6621C89.0174 36.7774 88.5457 36.8298 88.1263 36.8193C88.6819 38.8846 88.8602 41.1176 88.6819 43.5289C88.4198 46.9047 87.1513 50.1441 84.8973 53.1739C84.7401 53.3941 84.5933 53.5723 84.4465 53.7296C83.5869 54.6521 82.7691 54.7045 82.2449 54.5892C80.9974 54.3167 80.5571 52.9852 80.4103 52.5449C80.1587 51.7901 79.6135 51.0457 78.649 50.1441C78.1353 49.6724 77.6216 49.2006 77.1079 48.7288C75.9128 47.6385 74.6862 46.5168 73.512 45.3531C69.633 41.4846 68.1129 37.008 68.9935 32.0387C69.35 30.0259 70.1048 28.4114 71.3104 27.1219C71.7717 26.6187 72.3169 26.1679 72.9144 25.7695L74.4975 24.7106C74.77 24.2493 75.0846 23.8195 75.441 23.4421C76.72 22.0582 78.4603 21.251 80.7458 20.9574C84.1949 20.5171 87.4029 21.576 90.286 24.1026C90.894 24.6372 91.4706 25.2138 92.0158 25.759C93.2843 27.038 94.4899 28.2541 96.052 28.8307C96.4504 28.9775 97.656 29.4388 97.9391 30.613H97.9076Z" fill="#006A57"/>
<path d="M78.02 39.933C75.5563 37.9201 74.5499 34.796 73.7217 26.9961C71.7612 28.3066 70.8282 30.1412 70.4403 32.3009C69.6016 37.05 71.2266 40.9919 74.5394 44.3047C76.1854 45.9507 77.9362 47.4813 79.6345 49.0643C80.5676 49.924 81.4063 50.8885 81.8046 52.0836C82.3393 53.6981 82.9893 53.2369 83.6917 52.2933C85.6522 49.6514 86.9417 46.695 87.1933 43.4241C87.6231 37.7314 85.8618 32.8565 81.3538 29.1453C80.3264 28.3066 79.1942 27.6671 77.9257 27.2792C75.9128 26.6606 75.2209 27.1219 75.3886 29.2396C75.6297 32.2065 75.9967 35.1734 77.2128 37.9516C77.4644 38.5387 77.6845 39.1362 78.0095 39.9435L78.02 39.933Z" fill="#99C337"/>
<path d="M75.5981 25.7381C79.1312 25.1301 82.2658 25.8954 85.2012 27.6566C83.3142 27.2792 81.4481 26.8284 79.4771 26.9647C81.1964 28.2962 83.1045 29.2711 84.4254 31.0324C85.0754 31.8921 85.8198 32.7203 86.1448 33.7267C86.6794 35.3832 87.7802 35.5404 89.2165 35.2154C91.6382 34.6703 93.8713 33.7372 95.7583 32.0808C96.6075 31.3364 96.9116 30.7493 95.5067 30.2252C92.9068 29.2502 91.2923 26.9647 89.2899 25.2139C86.8681 23.0962 84.1109 22.0164 80.9134 22.4253C78.7013 22.7083 76.7409 23.589 75.6086 25.7381H75.5981Z" fill="#99C337"/>
<path d="M83.178 25.8633C84.0167 24.4585 83.8699 22.9279 83.7651 21.8166C83.5659 20.5062 84.0481 19.4997 82.8844 18.1578L86.2497 16.5328C75.1475 11.5531 63.8984 5.98621 52.8905 0.765312C51.8421 0.262093 50.7728 0 49.7244 0C48.6761 0 47.5543 0.262093 46.443 0.807247C43.8535 2.07578 41.2012 3.33382 38.6326 4.54994C30.7174 8.29263 22.0579 12.591 14.0273 16.1974L16.8055 18.011C14.9709 19.7723 16.0507 21.8166 15.7362 23.6827C15.6733 24.8674 16.0193 26.4714 18.0216 27.4149C16.8789 28.5996 15.8201 31.2939 17.141 33.2439C17.0047 33.0342 16.1241 34.5229 16.0822 34.6487C15.6943 35.7076 15.6733 37.5212 15.7362 38.6535C15.7991 39.8172 16.1975 41.0543 16.9418 41.9663C17.7386 42.9623 19.07 43.1825 20.2127 43.6333C21.4393 44.126 22.5611 44.6187 23.8506 44.0107C24.4377 46.4324 27.1844 47.3969 29.6481 46.7469C29.8578 48.2566 31.1473 48.8646 31.7029 49.1372C36.5044 51.4017 41.6205 53.8234 46.7051 56.2661C48.7075 57.2306 50.7518 57.2306 52.7437 56.2661C61.8646 51.8944 71.2265 47.4074 80.5256 43.0462C83.786 41.5155 84.1215 39.4083 83.7231 37.7624C83.7756 36.1688 83.7965 34.4181 82.3183 33.6318C83.7022 31.8181 83.7546 28.8093 82.0982 27.0899C82.5175 26.7649 82.8949 26.3666 83.199 25.8424L83.178 25.8633ZM37.8359 41.3583C37.5738 41.2325 37.3117 41.1067 37.0496 40.9809C37.3222 41.0647 37.5843 41.1906 37.8359 41.3583ZM71.1112 36.8817C71.0483 36.4834 70.9225 36.0955 70.7443 35.718C71.4677 35.8019 72.1806 35.8963 72.883 35.9801C72.2959 36.2842 71.6878 36.5987 71.1112 36.8817Z" fill="#5F3B22"/>
<path d="M23.0539 14.7719C31.1893 10.8196 39.3771 6.96154 47.523 3.03015C48.9907 2.31725 50.3431 2.2858 51.8213 2.9987C59.9776 6.98251 68.2598 10.7462 76.3846 14.7929C68.2807 18.8291 59.9671 22.6137 51.8108 26.608C50.5003 27.2371 49.1899 27.3314 47.8794 26.7129C39.6077 22.7291 31.1788 19.0283 23.0435 14.7824L23.0539 14.7719Z" fill="#FDCF33"/>
<path d="M67.4626 24.668C68.3433 25.4333 69.2239 25.3075 70.2303 24.8148C73.5013 23.2003 76.8036 21.6487 80.106 20.0866C81.1439 19.5939 81.2697 19.6568 81.2487 20.81C81.5842 24.7624 81.5633 25.0769 77.7367 26.4083C69.182 30.5075 60.6168 34.5647 52.0725 38.6848C50.4476 39.4711 48.9903 39.4606 47.3653 38.6848C37.951 34.1558 28.5156 29.6688 19.0698 25.2027C18.4198 24.8882 18.1577 24.5317 18.1996 23.8293C18.252 22.7914 18.2416 21.7536 18.1996 20.7157C18.1577 19.7931 18.4722 19.6673 19.269 20.0552C22.7181 21.7221 26.1777 23.3576 29.6269 25.014C35.2462 27.6978 40.8654 30.3712 46.4742 33.055C48.6129 34.0719 50.7411 34.1034 52.8903 33.076C55.3435 31.9018 57.7862 30.7171 60.2603 29.5744C61.2458 29.1131 61.6966 28.4422 61.4869 27.3623C61.8748 27.1946 62.2522 27.0269 62.6401 26.8591C63.9506 28.4317 67.0014 26.9535 66.4352 24.9825C66.7812 24.8777 67.1167 24.7834 67.4626 24.6785V24.668Z" fill="#D68616"/>
<path d="M81.2383 38.1296C81.6891 39.4925 80.8504 40.1844 79.4666 40.8344C70.178 45.1956 60.9209 49.6302 51.6637 54.0544C50.3323 54.6939 49.0847 54.6834 47.7533 54.0544C42.7526 51.6536 37.7518 49.2843 32.7406 46.9149C32.1116 46.6109 31.7132 46.4117 32.5309 45.8142C33.3487 45.2166 33.9567 44.3884 34.439 43.5182C34.8583 42.7739 35.3196 42.8997 35.9277 43.1932C39.1462 44.7448 42.4276 46.1811 45.5832 47.848C48.4033 49.3367 51.0557 49.3472 53.8443 47.827C55.8467 46.7262 57.9854 45.8771 60.0193 44.8182C61.0886 44.2626 62.2104 44.2416 63.3321 44.1158C66.5821 43.7489 69.4756 42.7424 71.2368 39.7021C71.3102 39.5868 71.4151 39.461 71.5304 39.3981C73.5747 38.4755 75.4723 37.207 77.6948 36.6933C78.6069 36.4836 79.519 36.3159 80.3577 35.8966C81.752 35.1627 81.0601 37.2175 81.2278 38.1296H81.2383Z" fill="#D68616"/>
<path d="M67.463 24.6681C67.117 24.773 66.7815 24.8673 66.4356 24.9721C65.7646 24.123 64.9993 23.9343 63.9929 24.4375C62.6719 25.1084 62.4937 25.3496 62.63 26.8487C62.2421 27.0165 61.8647 27.1842 61.4768 27.352C60.7848 26.4294 59.9671 26.335 58.9397 26.8487C56.4446 28.0858 53.918 29.26 51.4019 30.4551C50.3011 30.9793 49.1898 31.0003 48.0891 30.4866C38.444 25.8108 28.6627 21.4077 19.1016 16.5852C20.4959 15.9457 21.7749 15.3586 23.0434 14.7715C31.1788 19.0174 39.6077 22.7181 47.8689 26.702C49.1794 27.3205 50.5003 27.2261 51.8003 26.5971C59.9566 22.6133 68.2702 18.8287 76.3741 14.782C77.6322 15.3481 78.8902 15.9247 80.4104 16.6061C76.3427 18.5771 72.7782 20.265 68.7944 22.1625C67.3896 22.8335 67.2533 23.0956 67.442 24.6786L67.463 24.6681Z" fill="#FBDA65"/>
<path d="M42.3437 39.8278C41.0018 40.9076 39.7438 39.5761 38.5591 38.9471C32.4261 36.2318 32.8979 44.3987 28.1488 44.4825C22.4037 44.5245 31.189 32.1642 20.915 32.269C18.9126 32.2166 18.682 31.8287 19.3005 29.9521C19.6045 29.04 19.9924 28.8932 20.8626 29.3021C27.9181 32.9295 35.5817 35.8964 42.3542 39.8278H42.3437Z" fill="#EA540A"/>
<path d="M62.1161 41.222C60.533 41.1486 58.1428 40.918 57.042 39.8067C56.9581 39.4922 57.346 39.4607 57.5452 39.3664C60.3758 38.0035 63.2169 36.6825 66.037 35.2987C66.9805 34.8374 67.4418 35.5188 67.945 36.0116C68.637 36.6825 68.941 37.4898 68.4692 38.4438C67.2217 40.5825 64.3596 41.1067 62.1161 41.222Z" fill="#771401"/>
<path d="M42.627 43.0986C43.7487 42.5534 44.7132 42.0921 45.5414 41.4212C45.8664 41.1591 46.1495 41.3792 46.4325 41.5155C51.0454 43.9163 53.2155 40.3623 54.3268 41.6623C54.9244 42.2808 55.7106 42.6373 56.6542 43.2034C48.2253 47.0195 50.993 46.9671 42.6374 43.0986H42.627Z" fill="#FDCF33"/>
<path d="M70.4297 33.2022C73.6377 31.6715 76.6046 30.2667 79.561 28.8409C80.1586 28.5579 80.3997 28.8095 80.6199 29.3127C81.2699 30.7699 80.6199 32.4683 79.1207 33.1917C76.2482 34.4393 73.5434 33.4328 70.4297 33.2022Z" fill="#99C337"/>
<path d="M18.2212 37.8046C18.2212 35.7848 19.0214 35.1453 20.6219 35.8861C22.3692 36.6968 23.1974 38.0632 23.1066 39.9852C23.0367 41.46 22.3273 41.8933 20.9784 41.2852C19.1752 40.6667 17.4663 39.807 18.2212 37.8046Z" fill="#D68616"/>
<path d="M62.6403 26.8491C62.504 25.35 62.6822 25.1088 64.0032 24.4379C64.9991 23.9242 65.7749 24.1234 66.4459 24.9725C67.012 26.9435 63.9612 28.4217 62.6508 26.8491H62.6403Z" fill="#5F3B22"/>
</g>
<defs>
<clipPath id="clip0_2270_1816">
<rect width="307.309" height="57" fill="white"/>
</clipPath>
</defs>
</svg>
