<svg width="225" height="225" viewBox="0 0 225 225" fill="none" xmlns="http://www.w3.org/2000/svg">
<path d="M112.505 222.606C173.312 222.606 222.606 173.312 222.606 112.505C222.606 51.6971 173.312 2.4028 112.505 2.4028C51.6971 2.4028 2.4028 51.6971 2.4028 112.505C2.4028 173.312 51.6971 222.606 112.505 222.606Z" fill="#006A57"/>
<path d="M112.505 225C97.3179 225 82.5857 222.022 68.7162 216.159C55.32 210.49 43.2874 202.382 32.9619 192.047C22.6271 181.713 14.5188 169.689 8.85045 156.293C2.97798 142.424 0 127.691 0 112.505C0 97.3179 2.97798 82.5857 8.84117 68.7162C14.5095 55.32 22.6178 43.2874 32.9526 32.9619C43.2874 22.6271 55.3107 14.5188 68.707 8.85045C82.5764 2.97798 97.3179 0 112.505 0C127.691 0 142.424 2.97798 156.293 8.84117C169.689 14.5095 181.722 22.6178 192.047 32.9526C202.382 43.2874 210.49 55.3107 216.159 68.707C222.022 82.5764 225 97.3086 225 112.495C225 127.682 222.022 142.414 216.159 156.284C210.49 169.68 202.382 181.713 192.047 192.038C181.713 202.373 169.689 210.481 156.293 216.15C142.424 222.013 127.691 224.991 112.505 224.991V225ZM112.505 4.79631C97.9673 4.79631 83.8566 7.64442 70.581 13.2571C57.7599 18.6843 46.2376 26.4493 36.3481 36.3388C26.4586 46.2283 18.6936 57.7506 13.2664 70.5717C7.65369 83.8474 4.80559 97.958 4.80559 112.495C4.80559 127.033 7.65369 141.143 13.2664 154.419C18.6936 167.24 26.4586 178.762 36.3481 188.652C46.2376 198.541 57.7599 206.306 70.581 211.734C83.8566 217.346 97.958 220.194 112.505 220.194C127.051 220.194 141.153 217.346 154.428 211.734C167.249 206.306 178.772 198.541 188.661 188.652C198.551 178.762 206.316 167.24 211.743 154.419C217.356 141.143 220.204 127.042 220.204 112.495C220.204 97.9487 217.356 83.8474 211.743 70.5717C206.316 57.7506 198.551 46.2283 188.661 36.3388C178.772 26.4493 167.249 18.6843 154.428 13.2571C141.153 7.64442 127.051 4.79631 112.505 4.79631Z" fill="white"/>
<path d="M112.505 184.236C152.121 184.236 184.236 152.121 184.236 112.505C184.236 72.8885 152.121 40.7733 112.505 40.7733C72.8885 40.7733 40.7733 72.8885 40.7733 112.505C40.7733 152.121 72.8885 184.236 112.505 184.236Z" fill="#006A57"/>
<path d="M112.505 186.629C92.7071 186.629 74.0877 178.92 60.0884 164.921C46.0891 150.922 38.3798 132.302 38.3798 112.505C38.3798 92.7071 46.0891 74.0877 60.0884 60.0884C74.0877 46.0891 92.7071 38.3798 112.505 38.3798C132.302 38.3798 150.922 46.0891 164.921 60.0884C178.92 74.0877 186.629 92.7071 186.629 112.505C186.629 132.302 178.92 150.922 164.921 164.921C150.922 178.92 132.302 186.629 112.505 186.629ZM112.505 43.1668C93.9873 43.1668 76.574 50.3752 63.4746 63.4746C50.3752 76.574 43.1668 93.9781 43.1668 112.505C43.1668 131.031 50.3752 148.435 63.4746 161.535C76.574 174.634 93.9781 181.842 112.505 181.842C131.031 181.842 148.435 174.634 161.535 161.535C174.634 148.435 181.842 131.031 181.842 112.505C181.842 93.9781 174.634 76.574 161.535 63.4746C148.435 50.3752 131.031 43.1668 112.505 43.1668Z" fill="white"/>
<path d="M45.2913 65.7939C44.3821 67.102 43.3988 68.0854 42.3504 68.7534C41.3021 69.4213 40.2167 69.746 39.0941 69.7367C37.9809 69.7275 36.8583 69.3656 35.7265 68.6606C35.1792 68.2988 34.604 67.9091 33.9917 67.4824C33.3887 67.0556 32.8135 66.6474 32.2661 66.2485C31.2363 65.4507 30.5406 64.5322 30.1695 63.4932C29.7984 62.4541 29.7427 61.3223 30.021 60.107C30.2993 58.8917 30.8745 57.6393 31.7744 56.359C32.498 55.3292 33.2495 54.4943 34.0381 53.8542C34.8266 53.214 35.6059 52.7595 36.3666 52.4904C37.1366 52.2214 37.851 52.1008 38.5097 52.1379C39.1683 52.175 39.725 52.3513 40.1888 52.6481C40.3094 52.7131 40.3744 52.8151 40.3929 52.9543C40.4022 53.0934 40.3651 53.2326 40.2816 53.3532L38.185 56.3683C38.0829 56.5167 37.9809 56.6188 37.8788 56.6652C37.7861 56.7115 37.6747 56.7301 37.5448 56.7208C37.2944 56.6837 36.9975 56.693 36.6542 56.7301C36.3202 56.7765 35.9584 56.9064 35.5874 57.1197C35.2163 57.3424 34.8452 57.7135 34.4741 58.233C33.9267 59.0216 33.6855 59.7637 33.7505 60.4688C33.8154 61.1739 34.2422 61.8418 35.04 62.4541C36.0883 63.2427 37.1738 64.0034 38.3056 64.727C39.2147 65.293 40.0219 65.4785 40.7362 65.2837C41.4505 65.0889 42.0721 64.5972 42.6102 63.8272C42.972 63.3076 43.2132 62.7788 43.3338 62.2593C43.4544 61.7398 43.4266 61.2481 43.241 60.7657C43.0555 60.2925 42.703 59.8658 42.1649 59.4947L41.8124 59.2442L40.4579 61.1832C40.3558 61.3316 40.2167 61.4336 40.0497 61.4707C39.8827 61.5079 39.7343 61.4707 39.5951 61.3873L38.2035 60.4224C38.0644 60.3296 37.9901 60.1905 37.9623 60.0235C37.9438 59.8565 37.9809 59.6988 38.0922 59.5411L41.7196 54.3366C41.8216 54.1881 41.9608 54.0954 42.1185 54.0675C42.2762 54.0397 42.4246 54.0675 42.5638 54.1696L44.7068 55.6632C45.783 56.4147 46.5159 57.3238 46.9055 58.3907C47.2952 59.4576 47.3508 60.6265 47.0725 61.8975C46.7942 63.1685 46.2005 64.4487 45.2913 65.7568V65.7939Z" fill="white"/>
<path d="M59.4576 50.1804C58.3072 51.1638 57.1568 51.841 56.0065 52.2399C54.8561 52.6296 53.7336 52.676 52.6574 52.3605C51.572 52.0451 50.57 51.34 49.6238 50.2361L43.5657 43.1297C43.4544 42.9998 43.408 42.8607 43.4359 42.703C43.4544 42.5453 43.5379 42.4061 43.6771 42.2855L46.1448 40.1796C46.284 40.059 46.4324 40.0033 46.5901 40.0033C46.7478 40.0033 46.887 40.0775 46.989 40.1981L53.0285 47.2859C53.6686 48.0374 54.3551 48.4363 55.0788 48.4734C55.8024 48.5105 56.526 48.2136 57.2589 47.592C57.9732 46.9798 58.3722 46.3211 58.4557 45.5975C58.5391 44.8738 58.2516 44.1409 57.6114 43.3895L51.572 36.3017C51.4606 36.1718 51.4235 36.0327 51.4514 35.8657C51.4792 35.6987 51.5534 35.5688 51.6833 35.4575L54.1696 33.333C54.2995 33.2217 54.4479 33.166 54.6056 33.166C54.7726 33.166 54.9118 33.2309 55.0138 33.3608L61.0718 40.4672C62.0088 41.5711 62.5469 42.6844 62.6861 43.7977C62.8252 44.9109 62.6118 46.0057 62.0459 47.0818C61.48 48.1487 60.6172 49.1877 59.4576 50.1711V50.1804Z" fill="white"/>
<path d="M71.4716 41.3949C71.3139 41.4876 71.1561 41.5062 70.9984 41.4691C70.8407 41.432 70.7294 41.3392 70.6459 41.1908L63.4653 28.1656C63.3819 28.0172 63.3726 27.8687 63.419 27.7203C63.4746 27.5718 63.5767 27.4512 63.7344 27.3585L66.6845 25.735C66.8422 25.6422 67 25.6236 67.1577 25.6607C67.3154 25.6979 67.4267 25.7906 67.5102 25.9391L74.6908 38.9642C74.7743 39.1127 74.7835 39.2611 74.7371 39.4096C74.6815 39.558 74.5794 39.6786 74.4217 39.7714L71.4716 41.3949Z" fill="white"/>
<path d="M81.9363 36.144C81.76 36.1996 81.6023 36.1996 81.4538 36.1347C81.3054 36.0698 81.2126 35.9584 81.157 35.8007L76.4998 21.6808C76.4441 21.5231 76.4627 21.3747 76.5369 21.2355C76.6111 21.0964 76.741 21.0036 76.9173 20.9386L80.0715 19.8996C80.2292 19.8439 80.387 19.8532 80.5354 19.9182C80.6838 19.9831 80.7952 20.0944 80.8415 20.2521L84.5895 31.6353L91.8072 29.2603C91.9835 29.2046 92.1505 29.2046 92.2989 29.2789C92.4566 29.3438 92.5587 29.4644 92.6143 29.6221L93.3287 31.793C93.3843 31.9507 93.3658 32.0991 93.2823 32.2476C93.1988 32.3867 93.0689 32.4888 92.8926 32.5444L81.9177 36.1625L81.9363 36.144Z" fill="white"/>
<path d="M100.927 31.2271C100.741 31.2456 100.583 31.2178 100.454 31.125C100.324 31.0322 100.249 30.9024 100.231 30.7354L98.8115 18.9719L94.3677 19.51C94.1822 19.5285 94.0244 19.4914 93.8946 19.3894C93.7647 19.2873 93.6905 19.1667 93.6719 19.009L93.375 16.5784C93.3565 16.4114 93.3936 16.2722 93.5049 16.1516C93.607 16.031 93.7554 15.9568 93.9317 15.9382L107.374 14.324C107.56 14.3054 107.718 14.3333 107.847 14.4261C107.977 14.5188 108.052 14.6487 108.07 14.8157L108.367 17.2463C108.386 17.3948 108.339 17.5339 108.237 17.6638C108.135 17.7937 107.987 17.8679 107.81 17.8864L103.367 18.4245L104.786 30.188C104.805 30.355 104.767 30.4942 104.656 30.6148C104.554 30.7354 104.406 30.8096 104.229 30.8281L100.927 31.2271Z" fill="white"/>
<path d="M125.01 31.2085C124.834 31.1714 124.695 31.0879 124.602 30.958C124.509 30.8281 124.482 30.6797 124.519 30.522L127.719 16.0032C127.756 15.8362 127.84 15.7156 127.979 15.6414C128.118 15.5671 128.276 15.5393 128.452 15.5857L139.733 18.072C139.909 18.1091 140.058 18.2019 140.151 18.3318C140.253 18.4616 140.281 18.6101 140.243 18.7771L139.743 21.0314C139.705 21.1984 139.613 21.319 139.473 21.3932C139.325 21.4674 139.167 21.486 138.982 21.4489L131.412 19.779L130.688 23.0631L137.766 24.6217C137.943 24.6588 138.082 24.7516 138.184 24.8907C138.286 25.0299 138.314 25.1783 138.277 25.3453L137.785 27.5811C137.748 27.7296 137.664 27.8502 137.516 27.9337C137.368 28.0172 137.201 28.045 137.024 27.9986L129.946 26.44L128.833 31.4868C128.795 31.6538 128.712 31.7744 128.573 31.8486C128.434 31.9321 128.276 31.9507 128.1 31.9043L125.001 31.2178L125.01 31.2085Z" fill="white"/>
<path d="M143.027 36.0419C142.86 35.9584 142.748 35.8471 142.693 35.6987C142.637 35.5502 142.646 35.4018 142.72 35.2534L149.289 21.9128C149.363 21.7643 149.474 21.6623 149.632 21.6252C149.78 21.5788 149.947 21.5973 150.105 21.6808L156.247 24.7052C158.186 25.6607 159.522 26.8204 160.245 28.1841C160.969 29.5479 160.959 30.9766 160.227 32.4702C159.744 33.4443 159.085 34.1401 158.232 34.5483C157.378 34.9658 156.451 35.1328 155.44 35.0585L156.07 41.6454C156.07 41.7474 156.061 41.8402 156.024 41.9051C155.968 42.0164 155.876 42.0907 155.727 42.1278C155.588 42.1649 155.449 42.1556 155.31 42.0907L152.332 40.6249C152.044 40.4857 151.868 40.3187 151.794 40.1146C151.719 39.9198 151.682 39.7528 151.673 39.6137L151.32 33.834L148.992 32.6929L146.747 37.248C146.673 37.3964 146.561 37.4985 146.404 37.5356C146.255 37.5819 146.088 37.5634 145.93 37.4799L143.017 36.0512L143.027 36.0419ZM150.421 29.7891L153.037 31.0786C153.742 31.4312 154.354 31.5332 154.864 31.3941C155.375 31.2549 155.764 30.9116 156.033 30.3643C156.293 29.8262 156.339 29.316 156.163 28.8243C155.987 28.3326 155.532 27.8966 154.79 27.5347L152.174 26.2452L150.43 29.7984L150.421 29.7891Z" fill="white"/>
<path d="M160.922 46.0057C160.783 45.885 160.7 45.7459 160.681 45.5882C160.663 45.4305 160.7 45.2913 160.811 45.1614L170.376 33.7783C170.487 33.6484 170.617 33.5835 170.775 33.5742C170.932 33.5742 171.081 33.6206 171.22 33.7412L180.219 41.3021C180.358 41.4227 180.442 41.5619 180.46 41.7196C180.479 41.8773 180.442 42.0165 180.33 42.1463L178.948 43.7884C178.837 43.9183 178.707 43.9832 178.549 43.9925C178.391 43.9925 178.243 43.9461 178.104 43.8255L171.953 38.6581L169.968 41.0238L175.692 45.8294C175.831 45.95 175.914 46.0891 175.924 46.2561C175.942 46.4231 175.896 46.5623 175.784 46.6922L174.504 48.2136C174.402 48.3342 174.272 48.3992 174.115 48.4084C173.948 48.4177 173.799 48.3713 173.66 48.2507L167.936 43.4451L165.895 45.8758L172.194 51.1731C172.333 51.2937 172.417 51.4328 172.435 51.5905C172.454 51.7482 172.417 51.8874 172.305 52.0173L170.923 53.6593C170.812 53.7892 170.682 53.8542 170.524 53.8634C170.367 53.8634 170.218 53.8171 170.079 53.6965L160.922 46.0057Z" fill="white"/>
<path d="M175.052 59.0772C174.94 58.9288 174.894 58.7804 174.912 58.6226C174.931 58.4649 175.005 58.3351 175.135 58.233L187.075 49.364C187.214 49.2619 187.353 49.2248 187.511 49.2619C187.669 49.2898 187.798 49.3826 187.91 49.531L194.914 58.9659C195.025 59.1143 195.072 59.2628 195.053 59.4205C195.035 59.5782 194.96 59.7081 194.831 59.8101L193.105 61.0904C192.966 61.1924 192.827 61.2295 192.669 61.1924C192.511 61.1646 192.381 61.0718 192.27 60.9234L187.483 54.4757L185.006 56.3219L189.459 62.3243C189.57 62.4727 189.617 62.6304 189.589 62.7881C189.57 62.9458 189.487 63.085 189.357 63.1778L187.761 64.3652C187.641 64.458 187.492 64.4858 187.335 64.458C187.177 64.4302 187.038 64.3467 186.926 64.1982L182.473 58.1959L179.922 60.0884L184.83 66.6938C184.941 66.8423 184.987 66.9907 184.969 67.1484C184.95 67.3061 184.876 67.436 184.746 67.538L183.021 68.8183C182.882 68.9203 182.742 68.9575 182.585 68.9203C182.427 68.8925 182.297 68.7997 182.186 68.6513L175.061 59.0587L175.052 59.0772Z" fill="white"/>
<path d="M34.0752 164.902C33.4907 164.058 33.1196 163.251 32.9526 162.472C32.7856 161.702 32.832 160.978 33.0825 160.31C33.333 159.642 33.8154 159.039 34.5019 158.51C34.8266 158.269 35.1792 158.019 35.5595 157.759C35.9399 157.499 36.3017 157.249 36.6635 157.017C37.3871 156.562 38.12 156.339 38.8436 156.339C39.5673 156.339 40.2631 156.553 40.9403 156.98C41.6175 157.406 42.2391 158.037 42.805 158.863C43.2132 159.447 43.5194 160.041 43.7327 160.625C43.9461 161.219 44.0482 161.785 44.0574 162.332C44.0574 162.88 43.9554 163.39 43.742 163.845C43.5286 164.299 43.1947 164.689 42.7494 165.014C42.6844 165.069 42.6009 165.088 42.5174 165.069C42.4247 165.041 42.3597 164.995 42.304 164.912L41.0609 163.112C40.9774 163 40.9403 162.889 40.9403 162.796C40.9403 162.704 40.9867 162.592 41.0795 162.462C41.4227 162.045 41.5711 161.637 41.5433 161.247C41.5062 160.857 41.3485 160.459 41.0609 160.05C40.7269 159.559 40.328 159.262 39.892 159.15C39.4467 159.039 38.9271 159.169 38.3427 159.531C37.6654 159.967 36.9789 160.431 36.3017 160.941C35.7451 161.368 35.4389 161.804 35.3925 162.258C35.3461 162.713 35.4853 163.186 35.8286 163.678C36.1069 164.086 36.4316 164.373 36.7934 164.55C37.1552 164.726 37.582 164.717 38.0829 164.55C38.2314 164.503 38.3427 164.494 38.4355 164.531C38.5282 164.568 38.6117 164.643 38.6952 164.754L39.9384 166.554C39.994 166.637 40.0126 166.721 40.0126 166.813C40.0126 166.906 39.9569 166.971 39.8827 167.008C39.4281 167.314 38.9457 167.481 38.4355 167.528C37.9345 167.565 37.4242 167.491 36.914 167.296C36.4037 167.101 35.9028 166.795 35.4296 166.396C34.9472 165.988 34.5112 165.496 34.103 164.912L34.0752 164.902Z" fill="white"/>
<path d="M43.8719 176.851C43.1854 176.137 42.6844 175.413 42.3875 174.68C42.0907 173.948 42.0072 173.224 42.1556 172.519C42.2948 171.814 42.6751 171.127 43.2874 170.478C43.5843 170.181 43.8812 169.875 44.1873 169.587C44.4935 169.29 44.7996 169.003 45.1243 168.706C45.7923 168.121 46.4881 167.769 47.2117 167.648C47.9353 167.528 48.6589 167.63 49.3918 167.945C50.1247 168.261 50.8298 168.771 51.5163 169.485C52.1935 170.181 52.676 170.905 52.9728 171.656C53.2697 172.398 53.3439 173.131 53.2048 173.855C53.0656 174.578 52.6852 175.256 52.0729 175.896C51.7761 176.211 51.4792 176.517 51.1731 176.814C50.8669 177.111 50.5608 177.389 50.2361 177.668C49.5588 178.261 48.8723 178.614 48.158 178.725C47.4436 178.846 46.7293 178.744 46.0056 178.419C45.282 178.094 44.577 177.575 43.8812 176.861L43.8719 176.851ZM45.4026 175.376C45.8015 175.784 46.2376 176.016 46.72 176.053C47.1931 176.1 47.6941 175.886 48.2043 175.423C48.529 175.135 48.8352 174.866 49.1042 174.597C49.3733 174.328 49.6609 174.05 49.9392 173.743C50.2546 173.409 50.4587 173.076 50.5515 172.76C50.6442 172.435 50.635 172.12 50.5329 171.823C50.4309 171.526 50.2453 171.229 49.9856 170.96C49.7258 170.701 49.4475 170.506 49.1506 170.394C48.8445 170.283 48.529 170.265 48.2043 170.339C47.8796 170.413 47.5364 170.608 47.1931 170.914C46.887 171.192 46.5994 171.461 46.3211 171.73C46.0428 171.999 45.7552 172.287 45.449 172.593C44.9759 173.094 44.7532 173.586 44.7718 174.059C44.7903 174.532 45.0037 174.977 45.4026 175.386V175.376Z" fill="white"/>
<path d="M52.3049 184.514C52.2121 184.44 52.1564 184.357 52.1286 184.255C52.1101 184.152 52.1286 184.06 52.1935 183.976L57.9361 176.304C58.0011 176.22 58.0846 176.165 58.1866 176.156C58.2887 176.146 58.3907 176.174 58.4835 176.248L62.1201 178.967C62.8345 179.505 63.3911 180.071 63.7715 180.674C64.1519 181.277 64.3467 181.889 64.3374 182.51C64.3374 183.132 64.1055 183.754 63.6416 184.366C63.187 184.969 62.6675 185.359 62.0738 185.525C61.48 185.692 60.8492 185.674 60.1719 185.47C59.4947 185.256 58.7989 184.885 58.0846 184.347L56.5353 183.188L54.5963 185.776C54.5314 185.859 54.4479 185.906 54.3366 185.915C54.2345 185.915 54.1325 185.887 54.0304 185.822L52.277 184.514H52.3049ZM57.732 181.546L59.2535 182.687C59.6246 182.965 59.9864 183.104 60.3389 183.095C60.6915 183.095 60.9976 182.909 61.2666 182.548C61.4893 182.251 61.5821 181.926 61.545 181.583C61.5079 181.239 61.2759 180.896 60.8399 180.571L59.3184 179.43L57.732 181.546Z" fill="white"/>
<path d="M66.935 194.255C66.8422 194.209 66.768 194.125 66.7309 194.033C66.6938 193.94 66.6938 193.838 66.7495 193.745L68.2338 190.943L67.872 183.605C67.872 183.605 67.872 183.549 67.8813 183.522C67.8813 183.494 67.8906 183.466 67.9091 183.438C67.9462 183.373 68.0112 183.327 68.1039 183.299C68.1967 183.271 68.2895 183.29 68.373 183.336L70.1635 184.292C70.3026 184.366 70.4047 184.459 70.4511 184.57C70.4975 184.681 70.516 184.765 70.5067 184.83L70.7851 189.283L74.6351 187.019C74.6908 186.982 74.7743 186.954 74.8949 186.926C75.0062 186.908 75.1361 186.926 75.2845 187.01L77.075 187.965C77.1585 188.012 77.2142 188.077 77.242 188.16C77.2698 188.244 77.2605 188.327 77.2234 188.392C77.2142 188.42 77.1956 188.439 77.177 188.457C77.1585 188.476 77.1399 188.494 77.1214 188.513L70.8222 192.316L69.3378 195.118C69.2914 195.211 69.2079 195.276 69.1152 195.304C69.0131 195.332 68.9111 195.313 68.809 195.257L66.9443 194.265L66.935 194.255Z" fill="white"/>
<path d="M81.426 200.805C80.4519 200.471 79.6726 200.035 79.0882 199.516C78.4944 198.987 78.1048 198.384 77.9192 197.688C77.7244 197.001 77.7522 196.231 78.0027 195.387C78.1233 195.007 78.2625 194.589 78.4109 194.153C78.5593 193.717 78.7078 193.3 78.8562 192.901C79.1809 192.103 79.6262 191.5 80.2107 191.064C80.7952 190.637 81.4817 190.396 82.2795 190.34C83.0774 190.285 83.9494 190.424 84.8957 190.758C85.5729 190.99 86.1667 191.287 86.6862 191.63C87.2057 191.982 87.6325 192.381 87.9572 192.817C88.2819 193.263 88.4952 193.727 88.5973 194.228C88.6901 194.728 88.6622 195.229 88.486 195.758C88.4674 195.842 88.4117 195.907 88.3282 195.935C88.2447 195.972 88.152 195.972 88.0592 195.935L85.9904 195.22C85.8605 195.174 85.7677 195.109 85.7121 195.035C85.6564 194.96 85.6286 194.84 85.6286 194.682C85.6564 194.144 85.5358 193.727 85.276 193.43C85.0163 193.133 84.6545 192.91 84.1813 192.743C83.6154 192.548 83.1237 192.539 82.697 192.706C82.2702 192.873 81.927 193.291 81.6672 193.931C81.3703 194.682 81.1013 195.461 80.8601 196.269C80.6653 196.936 80.6746 197.475 80.9065 197.864C81.1384 198.263 81.5281 198.56 82.094 198.746C82.5671 198.913 82.9939 198.95 83.3835 198.885C83.7731 198.81 84.1164 198.56 84.4225 198.124C84.5153 197.994 84.5988 197.92 84.7009 197.901C84.7936 197.873 84.905 197.883 85.0441 197.929L87.1129 198.643C87.2057 198.671 87.2706 198.727 87.317 198.81C87.3634 198.885 87.3634 198.968 87.3263 199.052C87.1408 199.571 86.8532 199.989 86.4635 200.323C86.0832 200.657 85.6193 200.889 85.0905 201.037C84.5617 201.185 83.9865 201.232 83.3557 201.185C82.7341 201.139 82.0847 201 81.4074 200.768L81.426 200.805Z" fill="white"/>
<path d="M91.0743 203.57C90.9908 203.551 90.9166 203.514 90.8609 203.44C90.8053 203.366 90.7774 203.291 90.796 203.208C90.796 203.161 90.8145 203.115 90.8331 203.078L96.186 194.394C96.2324 194.292 96.3159 194.209 96.4365 194.144C96.5478 194.079 96.6963 194.061 96.8818 194.098L99.2475 194.506C99.4331 194.534 99.5629 194.599 99.6464 194.701C99.7299 194.803 99.7856 194.905 99.7949 195.016L101.938 204.989C101.938 204.989 101.956 205.073 101.947 205.128C101.938 205.202 101.892 205.267 101.808 205.323C101.725 205.379 101.641 205.388 101.548 205.379L99.5815 205.045C99.4238 205.017 99.3125 204.961 99.2382 204.878C99.164 204.794 99.1269 204.72 99.1176 204.655L98.7465 203.069L94.479 202.336L93.6163 203.718C93.5884 203.774 93.5235 203.829 93.44 203.885C93.3565 203.941 93.2173 203.959 93.0411 203.931L91.0743 203.598V203.57ZM95.4995 200.332L98.4775 200.842L97.6333 196.751L95.5088 200.332H95.4995Z" fill="white"/>
<path d="M108.914 205.778C108.794 205.778 108.701 205.741 108.627 205.666C108.553 205.592 108.515 205.509 108.525 205.397L108.72 197.762L105.834 197.688C105.714 197.688 105.621 197.642 105.547 197.567C105.473 197.493 105.435 197.4 105.435 197.308L105.473 195.73C105.473 195.619 105.519 195.536 105.593 195.471C105.667 195.406 105.769 195.369 105.89 195.378L114.611 195.601C114.731 195.601 114.824 195.638 114.898 195.712C114.972 195.786 115.009 195.87 115 195.981L114.963 197.558C114.963 197.66 114.917 197.744 114.842 197.818C114.768 197.892 114.666 197.92 114.546 197.92L111.66 197.846L111.466 205.481C111.466 205.592 111.419 205.676 111.345 205.741C111.271 205.805 111.169 205.843 111.048 205.833L108.905 205.778H108.914Z" fill="white"/>
<path d="M127.32 204.785C127.2 204.813 127.098 204.785 127.014 204.739C126.931 204.683 126.875 204.609 126.847 204.497L124.964 195.1C124.945 194.998 124.964 194.895 125.02 194.821C125.085 194.738 125.168 194.682 125.289 194.664L129.612 193.801C130.976 193.522 132.117 193.597 133.017 194.014C133.916 194.432 134.482 195.165 134.686 196.213C134.826 196.899 134.761 197.512 134.482 198.059C134.213 198.606 133.805 199.061 133.258 199.413L136.162 202.531C136.208 202.586 136.236 202.633 136.245 202.679C136.264 202.753 136.245 202.837 136.18 202.911C136.124 202.985 136.05 203.032 135.948 203.05L133.851 203.468C133.647 203.505 133.49 203.495 133.378 203.421C133.267 203.347 133.174 203.282 133.119 203.208L130.669 200.388L129.027 200.712L129.667 203.922C129.686 204.024 129.667 204.126 129.612 204.201C129.547 204.284 129.463 204.34 129.343 204.358L127.293 204.766L127.32 204.785ZM128.647 198.681L130.493 198.309C130.994 198.207 131.347 198.022 131.551 197.753C131.755 197.484 131.82 197.15 131.746 196.769C131.671 196.389 131.486 196.111 131.207 195.935C130.92 195.749 130.521 195.712 130.001 195.814L128.155 196.185L128.656 198.69L128.647 198.681Z" fill="white"/>
<path d="M142.155 201.204C142.043 201.241 141.941 201.25 141.848 201.204C141.756 201.167 141.691 201.093 141.654 200.991L138.323 192.001C138.286 191.899 138.286 191.806 138.342 191.713C138.388 191.621 138.472 191.556 138.583 191.519L145.689 188.884C145.801 188.847 145.903 188.837 145.995 188.884C146.088 188.921 146.153 188.995 146.19 189.097L146.673 190.396C146.71 190.498 146.71 190.591 146.654 190.684C146.608 190.776 146.524 190.841 146.413 190.878L141.561 192.678L142.257 194.543L146.775 192.873C146.886 192.836 146.988 192.836 147.09 192.873C147.183 192.919 147.257 192.984 147.294 193.086L147.739 194.292C147.777 194.385 147.767 194.478 147.721 194.571C147.675 194.664 147.6 194.738 147.489 194.775L142.971 196.445L143.685 198.365L148.658 196.519C148.769 196.482 148.871 196.473 148.964 196.519C149.057 196.556 149.122 196.63 149.159 196.732L149.641 198.031C149.678 198.133 149.678 198.226 149.623 198.319C149.576 198.412 149.493 198.476 149.382 198.514L142.155 201.185V201.204Z" fill="white"/>
<path d="M159.169 193.81C158.269 194.311 157.434 194.608 156.646 194.701C155.857 194.793 155.143 194.682 154.503 194.367C153.862 194.051 153.306 193.522 152.842 192.78C152.638 192.437 152.415 192.057 152.193 191.658C151.97 191.259 151.756 190.869 151.562 190.489C151.181 189.719 151.024 188.977 151.089 188.262C151.153 187.548 151.432 186.871 151.923 186.24C152.415 185.609 153.092 185.052 153.974 184.561C154.595 184.208 155.208 183.958 155.82 183.809C156.423 183.652 157.007 183.605 157.555 183.652C158.102 183.698 158.594 183.856 159.03 184.106C159.466 184.366 159.818 184.728 160.097 185.201C160.152 185.275 160.162 185.349 160.125 185.433C160.087 185.516 160.032 185.581 159.948 185.637L158.037 186.704C157.917 186.769 157.805 186.806 157.712 186.787C157.62 186.778 157.518 186.722 157.397 186.62C157.007 186.24 156.618 186.045 156.228 186.045C155.838 186.045 155.421 186.166 154.994 186.407C154.475 186.694 154.141 187.056 153.983 187.492C153.825 187.919 153.909 188.448 154.224 189.079C154.586 189.802 154.994 190.517 155.44 191.24C155.811 191.834 156.219 192.177 156.664 192.27C157.109 192.363 157.592 192.27 158.111 191.973C158.547 191.732 158.863 191.435 159.067 191.101C159.271 190.758 159.308 190.331 159.188 189.821C159.15 189.672 159.16 189.552 159.206 189.468C159.252 189.385 159.336 189.301 159.457 189.236L161.368 188.17C161.451 188.123 161.544 188.105 161.627 188.123C161.72 188.142 161.776 188.188 161.813 188.272C162.073 188.754 162.203 189.255 162.193 189.756C162.193 190.266 162.063 190.758 161.813 191.25C161.562 191.741 161.219 192.205 160.774 192.641C160.329 193.077 159.791 193.476 159.169 193.819V193.81Z" fill="white"/>
<path d="M168.391 187.724C168.298 187.798 168.196 187.826 168.094 187.817C167.992 187.808 167.908 187.761 167.843 187.669L162.128 179.978C162.063 179.894 162.045 179.801 162.063 179.699C162.082 179.597 162.138 179.514 162.24 179.44L163.984 178.141C164.077 178.067 164.179 178.039 164.281 178.048C164.383 178.057 164.466 178.104 164.531 178.197L170.246 185.887C170.311 185.971 170.329 186.064 170.311 186.166C170.292 186.268 170.237 186.351 170.135 186.425L168.391 187.724Z" fill="white"/>
<path d="M175.58 182.065C175.497 182.149 175.404 182.186 175.302 182.195C175.2 182.195 175.107 182.158 175.033 182.084L168.4 175.172C168.326 175.098 168.288 175.005 168.298 174.903C168.307 174.801 168.353 174.708 168.437 174.625L171.712 171.48C172.361 170.858 173.011 170.404 173.66 170.125C174.309 169.847 174.95 169.754 175.562 169.866C176.174 169.968 176.749 170.302 177.278 170.849C177.798 171.396 178.104 171.972 178.169 172.584C178.243 173.196 178.113 173.818 177.798 174.449C177.482 175.079 177 175.701 176.35 176.323L174.959 177.658L177.195 179.987C177.269 180.061 177.306 180.154 177.287 180.265C177.278 180.367 177.232 180.469 177.139 180.544L175.562 182.056L175.58 182.065ZM173.53 176.22L174.903 174.903C175.237 174.578 175.432 174.244 175.478 173.901C175.525 173.558 175.395 173.224 175.089 172.899C174.829 172.63 174.523 172.482 174.179 172.463C173.827 172.445 173.465 172.621 173.076 172.992L171.702 174.309L173.53 176.211V176.22Z" fill="white"/>
<path d="M185.989 171.285C185.915 171.378 185.832 171.433 185.73 171.452C185.628 171.471 185.535 171.452 185.451 171.378L177.835 165.561C177.751 165.496 177.705 165.413 177.696 165.31C177.696 165.208 177.714 165.106 177.788 165.014L182.39 158.993C182.464 158.9 182.548 158.844 182.65 158.826C182.752 158.807 182.844 158.826 182.928 158.9L184.032 159.744C184.115 159.809 184.162 159.893 184.171 159.995C184.171 160.097 184.152 160.199 184.078 160.292L180.933 164.401L182.51 165.607L185.433 161.776C185.507 161.683 185.59 161.627 185.702 161.609C185.804 161.59 185.906 161.618 185.989 161.683L187.01 162.462C187.084 162.518 187.13 162.602 187.149 162.713C187.158 162.815 187.13 162.917 187.056 163.01L184.134 166.841L185.767 168.084L188.986 163.873C189.06 163.78 189.144 163.724 189.246 163.706C189.348 163.687 189.44 163.706 189.524 163.78L190.628 164.624C190.711 164.689 190.758 164.772 190.767 164.874C190.767 164.976 190.749 165.079 190.674 165.171L185.999 171.294L185.989 171.285Z" fill="white"/>
<path d="M196.269 156.247C195.749 157.193 195.202 157.917 194.608 158.408C194.023 158.9 193.439 159.197 192.864 159.308C192.289 159.41 191.778 159.355 191.314 159.132C191.25 159.095 191.203 159.03 191.175 158.937C191.157 158.844 191.166 158.752 191.212 158.668L192.196 156.878C192.27 156.748 192.344 156.655 192.428 156.608C192.511 156.562 192.604 156.525 192.697 156.506C192.864 156.506 193.049 156.46 193.244 156.395C193.439 156.321 193.634 156.2 193.829 156.015C194.023 155.829 194.209 155.579 194.395 155.245C194.691 154.697 194.84 154.234 194.84 153.872C194.84 153.51 194.701 153.25 194.432 153.102C194.246 153 194.042 152.99 193.838 153.074C193.634 153.157 193.383 153.343 193.105 153.621C192.817 153.909 192.474 154.298 192.066 154.799C191.537 155.449 191.018 155.959 190.526 156.349C190.025 156.738 189.533 156.961 189.023 157.035C188.522 157.109 188.003 156.998 187.464 156.701C186.936 156.414 186.555 155.996 186.323 155.44C186.091 154.883 186.017 154.252 186.101 153.538C186.193 152.823 186.453 152.063 186.889 151.256C187.251 150.597 187.641 150.068 188.067 149.651C188.494 149.233 188.93 148.927 189.376 148.732C189.821 148.528 190.238 148.426 190.619 148.407C190.999 148.389 191.333 148.454 191.621 148.593C191.686 148.63 191.741 148.695 191.76 148.779C191.788 148.862 191.778 148.955 191.732 149.038L190.702 150.922C190.647 151.024 190.582 151.107 190.507 151.163C190.433 151.218 190.34 151.256 190.229 151.274C190.006 151.228 189.756 151.283 189.487 151.45C189.209 151.617 188.967 151.896 188.754 152.276C188.522 152.693 188.42 153.055 188.42 153.361C188.42 153.668 188.568 153.9 188.847 154.048C189.023 154.141 189.209 154.159 189.403 154.104C189.598 154.048 189.83 153.89 190.09 153.649C190.35 153.399 190.674 153.046 191.064 152.582C191.686 151.803 192.242 151.2 192.752 150.792C193.263 150.383 193.764 150.142 194.246 150.087C194.729 150.031 195.239 150.142 195.758 150.43C196.343 150.755 196.751 151.209 196.983 151.812C197.215 152.415 197.261 153.092 197.131 153.862C197.001 154.632 196.714 155.43 196.259 156.265L196.269 156.247Z" fill="white"/>
<path d="M22.4323 116.216C25.527 116.216 28.0357 113.707 28.0357 110.612C28.0357 107.517 25.527 105.009 22.4323 105.009C19.3376 105.009 16.8288 107.517 16.8288 110.612C16.8288 113.707 19.3376 116.216 22.4323 116.216Z" fill="white"/>
<path d="M202.568 116.216C205.662 116.216 208.171 113.707 208.171 110.612C208.171 107.517 205.662 105.009 202.568 105.009C199.473 105.009 196.964 107.517 196.964 110.612C196.964 113.707 199.473 116.216 202.568 116.216Z" fill="white"/>
<path d="M51.0153 118.08C50.802 118.999 51.0988 119.899 51.8967 120.761C52.0637 120.938 52.2585 121.123 52.4904 121.327C54.8839 123.424 57.8434 124.853 61.5264 125.678C62.1851 125.827 62.7788 125.892 63.3076 125.882C62.6118 128.471 62.3799 131.291 62.6118 134.306C62.9365 138.546 64.5415 142.618 67.371 146.431C67.5751 146.7 67.7607 146.932 67.937 147.127C69.0131 148.287 70.0429 148.361 70.7108 148.213C72.2787 147.869 72.8353 146.19 73.0116 145.643C73.327 144.687 74.0135 143.76 75.2288 142.628C75.869 142.034 76.5184 141.44 77.1678 140.846C78.6614 139.483 80.2107 138.073 81.6765 136.607C86.547 131.746 88.4581 126.114 87.3541 119.88C86.9088 117.347 85.9533 115.325 84.4411 113.692C83.8566 113.061 83.1794 112.486 82.4279 111.985L80.4426 110.658C80.0994 110.074 79.7004 109.536 79.2551 109.063C77.6409 107.328 75.4608 106.307 72.5941 105.946C68.2617 105.398 64.2261 106.725 60.5987 109.898C59.8287 110.575 59.1143 111.289 58.4185 111.985C56.8136 113.599 55.3014 115.112 53.3532 115.854C52.8522 116.039 51.34 116.614 50.9875 118.09L51.0153 118.08Z" fill="#006A57"/>
<path d="M76.0081 129.788C79.0974 127.265 80.3684 123.34 81.4075 113.534C83.8752 115.186 85.0441 117.486 85.5265 120.195C86.5841 126.161 84.5431 131.115 80.3684 135.28C78.2996 137.34 76.1009 139.269 73.9579 141.264C72.7889 142.349 71.7313 143.555 71.2396 145.068C70.5717 147.099 69.746 146.515 68.8647 145.327C66.3969 142.015 64.7827 138.286 64.4673 134.176C63.9199 127.023 66.1372 120.891 71.8055 116.234C73.0951 115.176 74.5238 114.379 76.1194 113.887C78.6428 113.108 79.5242 113.683 79.3015 116.355C78.9954 120.084 78.5315 123.804 77.0101 127.302C76.6946 128.035 76.4163 128.786 76.0081 129.797V129.788Z" fill="#99C337"/>
<path d="M79.051 111.957C74.6073 111.197 70.6737 112.161 66.9814 114.369C69.3471 113.896 71.6942 113.321 74.1805 113.497C72.0282 115.167 69.6161 116.401 67.9648 118.6C67.1484 119.685 66.2114 120.715 65.7939 121.986C65.1167 124.073 63.7344 124.268 61.9253 123.86C58.8824 123.173 56.0807 122.004 53.7057 119.926C52.6388 118.999 52.2585 118.257 54.0212 117.589C57.296 116.355 59.3184 113.497 61.8418 111.289C64.8755 108.636 68.3452 107.272 72.3715 107.783C75.1546 108.135 77.6131 109.248 79.0418 111.948L79.051 111.957Z" fill="#99C337"/>
<path d="M173.994 115.158C174.207 116.076 173.91 116.976 173.113 117.839C172.946 118.015 172.751 118.201 172.519 118.405C170.125 120.502 167.166 121.93 163.483 122.756C162.824 122.904 162.23 122.969 161.702 122.96C162.397 125.548 162.629 128.369 162.397 131.384C162.073 135.623 160.468 139.696 157.638 143.509C157.434 143.778 157.249 144.01 157.072 144.205C155.996 145.364 154.966 145.439 154.298 145.29C152.731 144.947 152.174 143.268 151.998 142.72C151.682 141.765 150.996 140.837 149.78 139.705C149.14 139.112 148.491 138.518 147.842 137.924C146.348 136.56 144.799 135.15 143.333 133.684C138.462 128.823 136.551 123.192 137.655 116.958C138.1 114.425 139.056 112.403 140.568 110.77C141.153 110.139 141.83 109.564 142.581 109.063L144.567 107.736C144.91 107.152 145.309 106.614 145.754 106.14C147.368 104.406 149.549 103.385 152.415 103.023C156.748 102.476 160.783 103.803 164.411 106.975C165.181 107.653 165.895 108.367 166.591 109.063C168.196 110.677 169.708 112.189 171.656 112.931C172.157 113.117 173.669 113.692 174.022 115.167L173.994 115.158Z" fill="#006A57"/>
<path d="M148.992 126.866C145.903 124.342 144.632 120.418 143.593 110.612C141.125 112.263 139.956 114.564 139.473 117.273C138.416 123.238 140.457 128.192 144.632 132.358C146.7 134.417 148.899 136.347 151.042 138.342C152.211 139.427 153.269 140.633 153.76 142.145C154.428 144.177 155.254 143.593 156.135 142.405C158.603 139.093 160.217 135.364 160.533 131.254C161.08 124.101 158.863 117.969 153.194 113.312C151.905 112.254 150.476 111.456 148.881 110.965C146.357 110.185 145.476 110.761 145.698 113.432C146.005 117.162 146.468 120.882 147.99 124.379C148.305 125.112 148.584 125.864 148.992 126.875V126.866Z" fill="#99C337"/>
<path d="M145.949 109.035C150.393 108.274 154.326 109.239 158.019 111.447C155.653 110.974 153.306 110.399 150.819 110.575C152.972 112.245 155.384 113.479 157.035 115.677C157.852 116.763 158.789 117.793 159.206 119.064C159.883 121.151 161.266 121.346 163.075 120.938C166.118 120.251 168.919 119.082 171.294 117.004C172.361 116.076 172.742 115.334 170.979 114.666C167.704 113.432 165.682 110.575 163.158 108.367C160.125 105.714 156.655 104.35 152.629 104.86C149.845 105.213 147.387 106.326 145.958 109.026L145.949 109.035Z" fill="#99C337"/>
<path d="M155.477 109.193C156.525 107.421 156.339 105.51 156.21 104.099C155.959 102.457 156.571 101.196 155.106 99.5073L159.336 97.4663C145.383 91.2135 131.245 84.2184 117.412 77.6502C116.086 77.0101 114.74 76.6854 113.414 76.6854C112.087 76.6854 110.686 77.0193 109.295 77.6966C106.038 79.2923 102.708 80.8694 99.4795 82.4001C89.5343 87.1037 78.6428 92.503 68.5678 97.0395L72.056 99.3217C69.7553 101.539 71.1098 104.099 70.7108 106.447C70.6366 107.931 71.0726 109.953 73.5775 111.141C72.1395 112.635 70.8129 116.011 72.4735 118.461C72.2972 118.201 71.1933 120.066 71.1376 120.223C70.6459 121.55 70.6273 123.832 70.7016 125.261C70.7758 126.727 71.286 128.276 72.2137 129.426C73.2157 130.679 74.8856 130.948 76.3143 131.523C77.8543 132.135 79.2644 132.766 80.8879 131.996C81.6208 135.039 85.072 136.245 88.1705 135.429C88.4396 137.33 90.0538 138.091 90.7496 138.425C96.7891 141.273 103.209 144.316 109.601 147.387C112.115 148.593 114.685 148.602 117.19 147.387C128.656 141.895 140.42 136.264 152.109 130.781C156.21 128.86 156.627 126.207 156.117 124.138C156.191 122.134 156.21 119.936 154.345 118.943C156.089 116.67 156.145 112.876 154.067 110.723C154.586 110.315 155.068 109.814 155.458 109.165L155.477 109.193ZM98.4961 128.666C98.1621 128.508 97.8281 128.35 97.5034 128.192C97.8467 128.304 98.1714 128.452 98.4961 128.666ZM140.299 123.034C140.216 122.533 140.067 122.051 139.835 121.578C140.744 121.689 141.635 121.8 142.526 121.912C141.783 122.292 141.023 122.691 140.299 123.044V123.034Z" fill="#5F3B22"/>
<path d="M79.9231 95.249C90.1466 90.2765 100.435 85.4338 110.677 80.489C112.523 79.5891 114.212 79.552 116.086 80.4426C126.346 85.4523 136.746 90.1744 146.96 95.2583C136.774 100.333 126.337 105.092 116.076 110.102C114.434 110.89 112.783 111.011 111.132 110.241C100.741 105.231 90.1466 100.583 79.9231 95.249Z" fill="#FDCF33"/>
<path d="M135.725 107.69C136.839 108.645 137.943 108.497 139.204 107.875C143.314 105.844 147.47 103.895 151.608 101.929C152.916 101.307 153.065 101.391 153.037 102.838C153.463 107.801 153.436 108.2 148.63 109.879C137.887 115.028 127.116 120.121 116.382 125.298C114.342 126.281 112.514 126.272 110.473 125.298C98.6445 119.602 86.7882 113.97 74.9227 108.348C74.097 107.959 73.7816 107.504 73.828 106.614C73.8929 105.315 73.8836 104.007 73.828 102.699C73.7816 101.539 74.1712 101.381 75.1639 101.864C79.4963 103.96 83.8381 106.02 88.1798 108.089C95.2398 111.456 102.3 114.824 109.36 118.201C112.041 119.481 114.722 119.518 117.422 118.229C120.502 116.754 123.572 115.26 126.68 113.831C127.923 113.256 128.48 112.412 128.211 111.057C128.693 110.844 129.176 110.631 129.658 110.427C131.31 112.403 135.141 110.547 134.436 108.07C134.863 107.94 135.289 107.82 135.725 107.69Z" fill="#D68616"/>
<path d="M153.037 124.602C153.603 126.309 152.554 127.181 150.81 127.998C139.13 133.471 127.506 139.047 115.872 144.613C114.202 145.411 112.625 145.411 110.965 144.613C104.684 141.598 98.394 138.62 92.0948 135.642C91.2969 135.262 90.8053 135.002 91.835 134.25C92.8648 133.508 93.6255 132.46 94.2378 131.365C94.7666 130.428 95.3418 130.586 96.1118 130.957C100.157 132.914 104.285 134.714 108.256 136.811C111.8 138.676 115.139 138.694 118.637 136.783C121.16 135.401 123.841 134.334 126.393 133.007C127.729 132.311 129.139 132.284 130.558 132.117C134.64 131.653 138.277 130.391 140.485 126.56C140.568 126.411 140.707 126.253 140.856 126.179C143.426 125.02 145.81 123.433 148.602 122.784C149.743 122.515 150.894 122.311 151.951 121.782C153.705 120.854 152.833 123.433 153.037 124.584V124.602Z" fill="#D68616"/>
<path d="M135.725 107.69C135.299 107.82 134.872 107.94 134.436 108.07C133.601 107.003 132.627 106.762 131.374 107.402C129.714 108.246 129.491 108.543 129.667 110.427C129.185 110.64 128.703 110.853 128.22 111.057C127.348 109.898 126.328 109.777 125.029 110.417C121.893 111.976 118.72 113.451 115.557 114.954C114.175 115.613 112.774 115.64 111.401 114.991C99.2754 109.109 86.9923 103.589 74.9691 97.522C76.7225 96.7148 78.3274 95.9819 79.9231 95.2398C90.1466 100.574 100.732 105.222 111.132 110.232C112.783 111.002 114.434 110.881 116.076 110.093C126.337 105.083 136.774 100.324 146.96 95.249C148.547 95.9634 150.124 96.6777 152.026 97.5405C146.914 100.018 142.433 102.142 137.432 104.517C135.67 105.352 135.494 105.695 135.735 107.671L135.725 107.69Z" fill="#FBDA65"/>
<path d="M104.164 126.736C102.485 128.09 100.899 126.42 99.4052 125.623C91.6959 122.218 92.2896 132.469 86.3244 132.581C79.1067 132.636 90.1466 117.097 77.2234 117.227C74.7093 117.153 74.4124 116.679 75.1917 114.323C75.5721 113.173 76.0638 112.987 77.1492 113.516C86.0182 118.08 95.648 121.81 104.155 126.736H104.164Z" fill="#EA540A"/>
<path d="M129.009 128.489C127.014 128.387 124.018 128.109 122.626 126.708C122.524 126.309 123.006 126.281 123.257 126.161C126.81 124.454 130.382 122.784 133.926 121.049C135.113 120.464 135.688 121.327 136.328 121.949C137.191 122.784 137.572 123.814 136.987 125.001C135.419 127.682 131.82 128.35 129 128.489H129.009Z" fill="#771401"/>
<path d="M104.508 130.846C105.918 130.168 107.124 129.584 108.172 128.73C108.571 128.406 108.933 128.675 109.285 128.851C115.074 131.866 117.811 127.395 119.212 129.037C119.964 129.807 120.956 130.261 122.134 130.966C111.549 135.763 115.019 135.688 104.517 130.836L104.508 130.846Z" fill="#FDCF33"/>
<path d="M139.455 118.405C143.481 116.485 147.22 114.722 150.931 112.922C151.673 112.56 151.988 112.885 152.257 113.507C153.074 115.343 152.257 117.477 150.374 118.386C146.756 119.964 143.37 118.693 139.455 118.405Z" fill="#99C337"/>
<path d="M73.8373 124.203C73.8373 121.661 74.8454 120.86 76.8616 121.8C79.0572 122.821 80.0963 124.537 79.9788 126.949C79.886 128.798 78.9923 129.343 77.2977 128.582C75.034 127.812 72.891 126.727 73.8373 124.212V124.203Z" fill="#D68616"/>
<path d="M129.658 110.427C129.491 108.543 129.705 108.246 131.365 107.402C132.627 106.762 133.592 107.003 134.427 108.07C135.141 110.547 131.31 112.412 129.649 110.427H129.658Z" fill="#5F3B22"/>
</svg>
