<svg width="225" height="195" viewBox="0 0 225 195" fill="none" xmlns="http://www.w3.org/2000/svg">
<path d="M12.7744 158.392C10.182 158.392 7.95319 157.993 6.08806 157.207C4.22293 156.421 2.76837 155.236 1.72436 153.653C0.680362 152.069 0.105572 150.122 0.0351896 147.799C0.0117289 146.708 0 145.547 0 144.292C0 143.037 0.0117289 141.852 0.0351896 140.738C0.117302 138.485 0.680358 136.597 1.74782 135.072C2.81528 133.547 4.28158 132.397 6.17017 131.623C8.05876 130.837 10.2641 130.45 12.7744 130.45C14.792 130.45 16.5867 130.685 18.1703 131.142C19.7539 131.6 21.0912 132.245 22.2056 133.043C23.32 133.84 24.1763 134.744 24.7628 135.741C25.3493 136.738 25.666 137.77 25.6895 138.826C25.6895 139.06 25.6074 139.26 25.4314 139.424C25.2555 139.588 25.0561 139.682 24.8214 139.682H17.5838C17.3257 139.682 17.1146 139.635 16.9504 139.541C16.7861 139.447 16.6454 139.33 16.5163 139.178C16.3873 138.92 16.1879 138.626 15.9064 138.286C15.6366 137.946 15.2495 137.664 14.7451 137.406C14.2407 137.16 13.5955 137.043 12.7744 137.043C11.5427 137.043 10.5808 137.359 9.90043 137.969C9.22006 138.591 8.85642 139.576 8.79777 140.914C8.71566 143.084 8.71566 145.313 8.79777 147.588C8.84469 149.066 9.23179 150.134 9.95907 150.791C10.6746 151.448 11.66 151.776 12.8917 151.776C13.7011 151.776 14.4283 151.647 15.0735 151.389C15.7187 151.131 16.2231 150.72 16.5867 150.169C16.9504 149.618 17.1381 148.89 17.1381 148.011V147.623H14.3462C14.053 147.623 13.8184 147.518 13.6189 147.318C13.4195 147.119 13.3257 146.884 13.3257 146.626V143.013C13.3257 142.732 13.4195 142.486 13.6189 142.298C13.8184 142.11 14.053 142.005 14.3462 142.005H24.6924C24.9857 142.005 25.232 142.098 25.4432 142.298C25.6543 142.497 25.7599 142.732 25.7599 143.013V147.752C25.7599 150.028 25.2085 151.952 24.1059 153.536C23.0032 155.119 21.4783 156.316 19.5428 157.148C17.5955 157.981 15.3433 158.392 12.7744 158.392Z" fill="#006A57"/>
<path d="M41.8193 158.392C39.3794 158.392 37.2328 158.017 35.3911 157.254C33.5494 156.492 32.0949 155.307 31.0626 153.7C30.0303 152.081 29.5024 150.052 29.5024 147.577V131.471C29.5024 131.189 29.608 130.943 29.8192 130.743C30.0303 130.544 30.2649 130.45 30.523 130.45H36.9395C37.2327 130.45 37.4673 130.544 37.6668 130.743C37.8662 130.943 37.96 131.189 37.96 131.471V147.447C37.96 148.785 38.2885 149.794 38.9454 150.474C39.6023 151.154 40.5407 151.494 41.7841 151.494C43.0275 151.494 43.9542 151.154 44.5994 150.474C45.2446 149.794 45.5613 148.785 45.5613 147.447V131.471C45.5613 131.189 45.6669 130.943 45.878 130.743C46.0892 130.544 46.3355 130.45 46.6288 130.45H52.9983C53.2799 130.45 53.5262 130.544 53.7256 130.743C53.925 130.943 54.0189 131.189 54.0189 131.471V147.565C54.0189 150.028 53.5027 152.069 52.4822 153.688C51.4617 155.295 50.0306 156.492 48.1889 157.242C46.3472 158.005 44.224 158.38 41.8193 158.38V158.392Z" fill="#006A57"/>
<path d="M59.7193 157.993C59.4612 157.993 59.2149 157.899 59.0155 157.7C58.8043 157.5 58.6987 157.266 58.6987 156.973V131.471C58.6987 131.189 58.8043 130.943 59.0155 130.743C59.2266 130.544 59.4612 130.45 59.7193 130.45H66.4056C66.6871 130.45 66.9334 130.544 67.1329 130.743C67.3323 130.943 67.4261 131.189 67.4261 131.471V156.973C67.4261 157.266 67.3323 157.5 67.1329 157.7C66.9334 157.899 66.6871 157.993 66.4056 157.993H59.7193Z" fill="#006A57"/>
<path d="M73.3267 157.993C73.0686 157.993 72.8223 157.899 72.6229 157.7C72.4117 157.5 72.3062 157.266 72.3062 156.973V131.471C72.3062 131.189 72.4117 130.943 72.6229 130.743C72.834 130.544 73.0686 130.45 73.3267 130.45H79.8605C80.1537 130.45 80.4001 130.544 80.6112 130.743C80.8224 130.943 80.928 131.189 80.928 131.471V150.99H92.2947C92.5879 150.99 92.8343 151.084 93.0454 151.283C93.2566 151.483 93.3621 151.729 93.3621 152.011V156.973C93.3621 157.266 93.2566 157.5 93.0454 157.7C92.8343 157.899 92.5879 157.993 92.2947 157.993H73.3267Z" fill="#006A57"/>
<path d="M99.4501 157.993C99.1569 157.993 98.9223 157.899 98.7228 157.7C98.5234 157.5 98.4296 157.266 98.4296 156.973V137.77H91.6612C91.3679 137.77 91.1333 137.676 90.9339 137.477C90.7345 137.277 90.6406 137.043 90.6406 136.749V131.471C90.6406 131.189 90.7345 130.943 90.9339 130.743C91.1333 130.544 91.3679 130.45 91.6612 130.45H113.773C114.066 130.45 114.301 130.544 114.5 130.743C114.7 130.943 114.793 131.189 114.793 131.471V136.738C114.793 137.031 114.7 137.266 114.5 137.465C114.301 137.664 114.066 137.758 113.773 137.758H107.004V156.961C107.004 157.254 106.911 157.489 106.711 157.688C106.512 157.888 106.277 157.981 105.984 157.981H99.4501V157.993Z" fill="#006A57"/>
<path d="M125.973 157.993C125.715 157.993 125.468 157.899 125.269 157.7C125.058 157.5 124.952 157.266 124.952 156.973V131.471C124.952 131.189 125.058 130.943 125.269 130.743C125.48 130.544 125.715 130.45 125.973 130.45H144.941C145.234 130.45 145.48 130.544 145.691 130.743C145.903 130.943 146.008 131.189 146.008 131.471V136.468C146.008 136.726 145.903 136.972 145.691 137.172C145.48 137.371 145.234 137.488 144.941 137.488H133.257V141.817H144.155C144.436 141.817 144.694 141.911 144.905 142.11C145.117 142.31 145.222 142.556 145.222 142.837V147.799C145.222 148.093 145.117 148.327 144.905 148.527C144.694 148.726 144.448 148.82 144.155 148.82H133.257V156.961C133.257 157.254 133.163 157.489 132.964 157.688C132.765 157.888 132.53 157.981 132.237 157.981H125.984L125.973 157.993Z" fill="#006A57"/>
<path d="M150.84 157.993C150.582 157.993 150.348 157.899 150.137 157.7C149.925 157.5 149.82 157.266 149.82 156.973V131.471C149.82 131.189 149.925 130.943 150.137 130.743C150.348 130.544 150.582 130.45 150.84 130.45H162.055C165.621 130.45 168.424 131.26 170.454 132.89C172.483 134.521 173.503 136.785 173.503 139.694C173.503 141.535 173.081 143.096 172.248 144.374C171.415 145.653 170.313 146.673 168.94 147.401L174.055 156.691C174.137 156.844 174.172 156.996 174.172 157.125C174.172 157.36 174.09 157.571 173.937 157.735C173.785 157.899 173.586 157.993 173.351 157.993H166.7C166.195 157.993 165.82 157.864 165.562 157.618C165.304 157.371 165.128 157.137 165.046 156.926L161.116 148.82H158.289V156.961C158.289 157.254 158.195 157.489 157.996 157.688C157.796 157.888 157.562 157.981 157.269 157.981H150.852L150.84 157.993ZM158.277 142.333H162.019C162.934 142.333 163.615 142.075 164.06 141.571C164.506 141.054 164.729 140.421 164.729 139.659C164.729 138.896 164.518 138.204 164.084 137.653C163.65 137.101 162.958 136.832 162.019 136.832H158.277V142.345V142.333Z" fill="#006A57"/>
<path d="M178.653 157.993C178.395 157.993 178.161 157.899 177.95 157.7C177.738 157.5 177.633 157.266 177.633 156.973V131.471C177.633 131.189 177.738 130.943 177.95 130.743C178.161 130.544 178.395 130.45 178.653 130.45H197.938C198.231 130.45 198.478 130.544 198.689 130.743C198.9 130.943 199.006 131.189 199.006 131.471V136.116C199.006 136.374 198.9 136.62 198.689 136.82C198.478 137.019 198.231 137.136 197.938 137.136H185.785V141.031H197.082C197.375 141.031 197.621 141.125 197.832 141.324C198.044 141.524 198.149 141.758 198.149 142.052V146.298C198.149 146.591 198.044 146.826 197.832 147.025C197.621 147.225 197.375 147.318 197.082 147.318H185.785V151.295H198.255C198.536 151.295 198.794 151.401 199.006 151.612C199.217 151.823 199.322 152.069 199.322 152.363V156.961C199.322 157.254 199.217 157.489 199.006 157.688C198.794 157.888 198.548 157.981 198.255 157.981H178.665L178.653 157.993Z" fill="#006A57"/>
<path d="M204.343 157.993C204.085 157.993 203.838 157.899 203.639 157.7C203.428 157.5 203.322 157.266 203.322 156.973V131.471C203.322 131.189 203.428 130.943 203.639 130.743C203.85 130.544 204.085 130.45 204.343 130.45H223.933C224.214 130.45 224.472 130.544 224.683 130.743C224.894 130.943 225 131.189 225 131.471V136.116C225 136.374 224.894 136.62 224.683 136.82C224.472 137.031 224.226 137.136 223.933 137.136H211.463V141.031H222.759C223.053 141.031 223.299 141.125 223.51 141.324C223.721 141.524 223.827 141.758 223.827 142.052V146.298C223.827 146.591 223.721 146.826 223.51 147.025C223.299 147.225 223.053 147.318 222.759 147.318H211.463V151.295H223.933C224.226 151.295 224.472 151.401 224.683 151.612C224.894 151.823 225 152.069 225 152.363V156.961C225 157.254 224.894 157.489 224.683 157.688C224.472 157.888 224.226 157.981 223.933 157.981H204.343V157.993Z" fill="#006A57"/>
<path d="M7.14379 194.23C5.51327 194.23 4.18774 193.913 3.15547 193.28C2.1232 192.646 1.36073 191.778 0.85632 190.688C0.351915 189.597 0.0821086 188.353 0.0234568 186.957C-3.93728e-06 186.218 0 185.432 0 184.588C0 183.743 -3.93728e-06 182.945 0.0234568 182.171C0.0821086 180.775 0.351915 179.52 0.85632 178.418C1.36073 177.315 2.1232 176.447 3.15547 175.825C4.18774 175.203 5.51327 174.887 7.14379 174.887C8.41067 174.887 9.50159 175.063 10.3931 175.426C11.2846 175.79 12.0236 176.259 12.5867 176.834C13.1497 177.42 13.572 178.042 13.8535 178.711C14.1351 179.379 14.2876 180.036 14.3228 180.682C14.3462 180.846 14.2876 180.975 14.1703 181.069C14.053 181.162 13.9122 181.221 13.7597 181.221H13.2201C13.0793 181.221 12.9503 181.186 12.8447 181.104C12.7392 181.022 12.6688 180.881 12.6336 180.658C12.2934 179.063 11.6482 177.972 10.7098 177.374C9.77138 176.787 8.58663 176.482 7.14379 176.482C5.51327 176.482 4.22293 176.94 3.26104 177.866C2.29915 178.793 1.78301 180.259 1.71263 182.289C1.65398 183.755 1.65398 185.268 1.71263 186.805C1.78301 188.834 2.29915 190.3 3.26104 191.227C4.22293 192.154 5.51327 192.611 7.14379 192.611C8.5749 192.611 9.75965 192.318 10.7098 191.72C11.6482 191.133 12.2934 190.031 12.6336 188.435C12.6688 188.224 12.7392 188.072 12.8447 187.99C12.9503 187.907 13.0793 187.872 13.2201 187.872H13.7597C13.9239 187.872 14.0647 187.919 14.1703 188.025C14.2758 188.13 14.3345 188.248 14.3228 188.412C14.2876 189.057 14.1351 189.714 13.8535 190.383C13.572 191.051 13.1497 191.685 12.5867 192.259C12.0236 192.846 11.2963 193.315 10.3931 193.667C9.50159 194.031 8.41067 194.207 7.14379 194.207V194.23Z" fill="#006A57"/>
<path d="M24.634 194.231C23.1442 194.231 21.8774 193.961 20.8451 193.433C19.8011 192.906 19.0034 192.096 18.4521 190.993C17.9008 189.891 17.5958 188.495 17.5371 186.817C17.5137 186.008 17.5137 185.257 17.5137 184.565C17.5137 183.873 17.5137 183.111 17.5371 182.301C17.5958 180.636 17.9125 179.251 18.499 178.149C19.0855 177.046 19.9067 176.225 20.9624 175.685C22.0064 175.146 23.2381 174.876 24.634 174.876C26.0299 174.876 27.2499 175.146 28.3056 175.685C29.3496 176.225 30.1825 177.046 30.7807 178.149C31.379 179.251 31.6957 180.636 31.7309 182.301C31.7661 183.111 31.7895 183.861 31.7895 184.565C31.7895 185.269 31.7661 186.02 31.7309 186.817C31.6957 188.507 31.3907 189.891 30.8276 190.993C30.2646 192.096 29.4552 192.906 28.4229 193.433C27.3789 193.961 26.1238 194.231 24.634 194.231ZM24.634 192.612C26.1707 192.612 27.4376 192.143 28.4346 191.216C29.4317 190.29 29.9596 188.776 30.03 186.677C30.0652 185.867 30.0886 185.163 30.0886 184.554C30.0886 183.944 30.0652 183.24 30.03 182.43C29.9948 181.034 29.7367 179.897 29.2675 179.017C28.7983 178.137 28.1531 177.504 27.3554 177.093C26.5578 176.694 25.6545 176.483 24.6223 176.483C23.59 176.483 22.722 176.682 21.9243 177.093C21.1266 177.492 20.4932 178.137 20.0122 179.017C19.543 179.897 19.2732 181.034 19.2146 182.43C19.1911 183.24 19.1911 183.944 19.1911 184.554C19.1911 185.163 19.1911 185.867 19.2146 186.677C19.285 188.776 19.8246 190.29 20.8216 191.216C21.8304 192.155 23.0856 192.612 24.6105 192.612H24.634Z" fill="#006A57"/>
<path d="M36.6456 193.96C36.4696 193.96 36.3289 193.901 36.2116 193.796C36.106 193.69 36.0474 193.549 36.0474 193.362V175.755C36.0474 175.555 36.106 175.403 36.2116 175.297C36.3172 175.191 36.4579 175.133 36.6456 175.133H43.1794C44.4346 175.133 45.5255 175.344 46.4405 175.766C47.3672 176.189 48.0827 176.81 48.5871 177.631C49.0915 178.453 49.3496 179.473 49.3496 180.693C49.3496 181.913 49.0915 182.933 48.5871 183.755C48.071 184.576 47.3554 185.197 46.4405 185.62C45.5138 186.042 44.4346 186.253 43.1794 186.253H37.7483V193.35C37.7483 193.526 37.6896 193.679 37.584 193.784C37.4785 193.89 37.326 193.948 37.1266 193.948H36.6456V193.96ZM37.7483 184.658H43.0386C44.5988 184.658 45.7601 184.318 46.5226 183.637C47.285 182.957 47.6604 181.983 47.6604 180.705C47.6604 179.426 47.285 178.453 46.5226 177.772C45.7601 177.092 44.5988 176.752 43.0386 176.752H37.7483V184.658Z" fill="#006A57"/>
<path d="M58.1478 193.96C57.9719 193.96 57.8194 193.901 57.7138 193.796C57.6082 193.69 57.5496 193.549 57.5496 193.362V186.781L50.9923 176.036C50.9923 176.036 50.9571 175.93 50.9219 175.872C50.8867 175.813 50.8867 175.755 50.8867 175.684C50.8867 175.543 50.9454 175.414 51.0509 175.309C51.1565 175.203 51.2856 175.145 51.4263 175.145H51.9659C52.0949 175.145 52.2123 175.18 52.3178 175.238C52.4234 175.297 52.5172 175.403 52.5876 175.543L58.4176 185.033L64.2476 175.543C64.3414 175.403 64.4353 175.297 64.5291 175.238C64.623 175.18 64.7403 175.145 64.8693 175.145H65.4089C65.5497 175.145 65.6787 175.203 65.7843 175.309C65.8898 175.414 65.9485 175.543 65.9485 175.684C65.9485 175.755 65.9485 175.813 65.925 175.872C65.9016 175.93 65.8781 175.977 65.8429 176.036L59.2857 186.781V193.362C59.2857 193.538 59.227 193.69 59.1214 193.796C59.0159 193.901 58.8634 193.96 58.664 193.96H58.1478Z" fill="#006A57"/>
<path d="M75.0276 194.23C73.3971 194.23 72.0715 193.913 71.0393 193.28C70.007 192.646 69.2445 191.778 68.7401 190.688C68.2357 189.597 67.9659 188.353 67.9073 186.957C67.8838 186.218 67.8838 185.432 67.8838 184.588C67.8838 183.743 67.8838 182.945 67.9073 182.171C67.9659 180.775 68.2357 179.52 68.7401 178.418C69.2445 177.315 70.007 176.447 71.0393 175.825C72.0715 175.203 73.3971 174.887 75.0276 174.887C76.2945 174.887 77.3854 175.063 78.2769 175.426C79.1684 175.79 79.9074 176.259 80.4705 176.834C81.0335 177.42 81.4558 178.042 81.7373 178.711C82.0189 179.379 82.1714 180.036 82.2065 180.682C82.23 180.846 82.1714 180.975 82.0541 181.069C81.9368 181.162 81.796 181.221 81.6435 181.221H81.1039C80.9631 181.221 80.8341 181.186 80.7285 181.104C80.623 181.022 80.5526 180.881 80.5174 180.658C80.1772 179.063 79.532 177.972 78.5936 177.374C77.6552 176.787 76.4704 176.482 75.0276 176.482C73.3971 176.482 72.1067 176.94 71.1448 177.866C70.1829 178.793 69.6668 180.259 69.5964 182.289C69.5378 183.755 69.5378 185.268 69.5964 186.805C69.6668 188.834 70.1829 190.3 71.1448 191.227C72.1067 192.154 73.3971 192.611 75.0276 192.611C76.4587 192.611 77.6435 192.318 78.5936 191.72C79.532 191.133 80.1772 190.031 80.5174 188.435C80.5526 188.224 80.623 188.072 80.7285 187.99C80.8341 187.907 80.9631 187.872 81.1039 187.872H81.6435C81.8077 187.872 81.9485 187.919 82.0541 188.025C82.1596 188.13 82.2183 188.248 82.2065 188.412C82.1714 189.057 82.0189 189.714 81.7373 190.383C81.4558 191.051 81.0335 191.685 80.4705 192.259C79.9074 192.846 79.1801 193.315 78.2769 193.667C77.3736 194.019 76.2945 194.207 75.0276 194.207V194.23Z" fill="#006A57"/>
<path d="M84.6465 193.958C84.5058 193.958 84.3767 193.899 84.2712 193.794C84.1656 193.688 84.1069 193.559 84.1069 193.418C84.1069 193.325 84.1187 193.231 84.1656 193.125L90.9692 175.682C91.0396 175.506 91.1334 175.365 91.2507 175.283C91.368 175.189 91.5322 175.154 91.7434 175.154H92.6584C92.8695 175.154 93.0337 175.201 93.151 175.283C93.2683 175.377 93.3622 175.506 93.4326 175.682L100.236 193.125C100.271 193.231 100.295 193.336 100.295 193.418C100.295 193.559 100.236 193.688 100.131 193.794C100.025 193.899 99.896 193.958 99.7552 193.958H99.2156C99.0397 193.958 98.8989 193.911 98.8168 193.806C98.723 193.712 98.6643 193.618 98.6291 193.547L96.9634 189.242H87.4501L85.7844 193.547C85.7609 193.618 85.7023 193.7 85.6084 193.806C85.5146 193.911 85.3738 193.958 85.1978 193.958H84.6583H84.6465ZM88.0952 187.635H96.3182L92.2009 177.043L88.0835 187.635H88.0952Z" fill="#006A57"/>
<path d="M106.148 193.96C105.972 193.96 105.82 193.901 105.714 193.796C105.608 193.69 105.55 193.549 105.55 193.362V176.752H100.224C100.048 176.752 99.9075 176.693 99.7902 176.587C99.6846 176.482 99.626 176.341 99.626 176.153V175.755C99.626 175.555 99.6846 175.403 99.7902 175.297C99.8958 175.191 100.037 175.133 100.224 175.133H112.529C112.729 175.133 112.881 175.191 112.987 175.297C113.092 175.403 113.151 175.555 113.151 175.755V176.153C113.151 176.329 113.092 176.482 112.987 176.587C112.881 176.693 112.729 176.752 112.529 176.752H107.239V193.362C107.239 193.538 107.18 193.69 107.075 193.796C106.969 193.901 106.817 193.96 106.617 193.96H106.136H106.148Z" fill="#006A57"/>
<path d="M123.251 193.96C123.075 193.96 122.934 193.901 122.817 193.796C122.711 193.69 122.652 193.549 122.652 193.362V175.755C122.652 175.555 122.711 175.403 122.817 175.297C122.922 175.191 123.063 175.133 123.251 175.133H129.515C131.391 175.133 132.893 175.579 134.019 176.482C135.133 177.373 135.696 178.746 135.696 180.564C135.696 181.995 135.333 183.145 134.617 184.001C133.902 184.857 132.905 185.444 131.638 185.749L135.966 193.115C136.025 193.221 136.048 193.327 136.048 193.409C136.048 193.549 135.99 193.679 135.884 193.784C135.779 193.89 135.65 193.948 135.509 193.948H135.18C134.899 193.948 134.676 193.866 134.535 193.725C134.394 193.573 134.265 193.409 134.16 193.233L129.89 186.007H124.353V193.374C124.353 193.549 124.295 193.702 124.189 193.808C124.083 193.913 123.931 193.972 123.732 193.972H123.251V193.96ZM124.353 184.388H129.386C130.946 184.388 132.107 184.071 132.869 183.438C133.632 182.804 134.007 181.854 134.007 180.576C134.007 179.297 133.632 178.347 132.869 177.713C132.107 177.08 130.946 176.763 129.386 176.763H124.353V184.4V184.388Z" fill="#006A57"/>
<path d="M140.448 193.96C140.272 193.96 140.131 193.901 140.014 193.796C139.908 193.69 139.85 193.549 139.85 193.362V175.755C139.85 175.555 139.908 175.403 140.014 175.297C140.119 175.191 140.26 175.133 140.448 175.133H150.935C151.134 175.133 151.287 175.191 151.392 175.297C151.498 175.403 151.557 175.555 151.557 175.755V176.153C151.557 176.329 151.498 176.482 151.392 176.587C151.287 176.693 151.134 176.752 150.935 176.752H141.551V183.602H150.337C150.536 183.602 150.688 183.661 150.794 183.766C150.9 183.872 150.958 184.024 150.958 184.224V184.623C150.958 184.799 150.9 184.951 150.794 185.057C150.688 185.162 150.536 185.221 150.337 185.221H141.551V192.341H151.146C151.345 192.341 151.498 192.4 151.603 192.505C151.709 192.611 151.768 192.764 151.768 192.963V193.362C151.768 193.538 151.709 193.69 151.603 193.796C151.498 193.901 151.345 193.96 151.146 193.96H140.448Z" fill="#006A57"/>
<path d="M161.949 194.23C160.319 194.23 158.993 193.913 157.961 193.28C156.929 192.646 156.166 191.778 155.662 190.688C155.158 189.597 154.888 188.353 154.829 186.957C154.806 186.218 154.806 185.432 154.806 184.588C154.806 183.743 154.806 182.945 154.829 182.171C154.888 180.775 155.158 179.52 155.662 178.418C156.166 177.315 156.929 176.447 157.961 175.825C158.993 175.203 160.319 174.887 161.949 174.887C163.216 174.887 164.307 175.063 165.199 175.426C166.09 175.79 166.829 176.259 167.392 176.834C167.955 177.42 168.378 178.042 168.659 178.711C168.941 179.379 169.093 180.036 169.128 180.682C169.152 180.846 169.093 180.975 168.976 181.069C168.859 181.162 168.718 181.221 168.565 181.221H168.026C167.885 181.221 167.756 181.186 167.65 181.104C167.545 181.022 167.474 180.881 167.439 180.658C167.099 179.063 166.454 177.972 165.515 177.374C164.577 176.787 163.392 176.482 161.949 176.482C160.319 176.482 159.029 176.94 158.067 177.866C157.105 178.793 156.589 180.259 156.518 182.289C156.46 183.755 156.46 185.268 156.518 186.805C156.589 188.834 157.105 190.3 158.067 191.227C159.029 192.154 160.319 192.611 161.949 192.611C163.381 192.611 164.565 192.318 165.515 191.72C166.454 191.133 167.099 190.031 167.439 188.435C167.474 188.224 167.545 188.072 167.65 187.99C167.756 187.907 167.885 187.872 168.026 187.872H168.565C168.73 187.872 168.87 187.919 168.976 188.025C169.082 188.13 169.14 188.248 169.128 188.412C169.093 189.057 168.941 189.714 168.659 190.383C168.378 191.051 167.955 191.685 167.392 192.259C166.829 192.846 166.102 193.315 165.199 193.667C164.296 194.019 163.216 194.207 161.949 194.207V194.23Z" fill="#006A57"/>
<path d="M173.668 193.96C173.492 193.96 173.339 193.901 173.234 193.796C173.128 193.69 173.069 193.549 173.069 193.362V175.731C173.069 175.555 173.128 175.403 173.234 175.297C173.339 175.191 173.48 175.133 173.668 175.133H174.184C174.36 175.133 174.512 175.191 174.618 175.297C174.723 175.403 174.782 175.543 174.782 175.731V193.362C174.782 193.538 174.723 193.69 174.618 193.796C174.512 193.901 174.371 193.96 174.184 193.96H173.668Z" fill="#006A57"/>
<path d="M180.413 193.96C180.237 193.96 180.096 193.901 179.979 193.796C179.874 193.69 179.815 193.549 179.815 193.362V175.755C179.815 175.555 179.874 175.403 179.979 175.297C180.085 175.191 180.225 175.133 180.413 175.133H186.947C188.202 175.133 189.293 175.344 190.208 175.766C191.135 176.189 191.85 176.81 192.355 177.631C192.859 178.453 193.117 179.473 193.117 180.693C193.117 181.913 192.859 182.933 192.355 183.755C191.839 184.576 191.123 185.197 190.208 185.62C189.281 186.042 188.19 186.253 186.947 186.253H181.516V193.35C181.516 193.526 181.457 193.679 181.352 193.784C181.246 193.89 181.094 193.948 180.894 193.948H180.413V193.96ZM181.516 184.658H186.806C188.366 184.658 189.528 184.318 190.29 183.637C191.053 182.957 191.428 181.983 191.428 180.705C191.428 179.426 191.053 178.453 190.29 177.772C189.528 177.092 188.366 176.752 186.806 176.752H181.516V184.658Z" fill="#006A57"/>
<path d="M197.293 193.96C197.117 193.96 196.965 193.901 196.859 193.796C196.753 193.69 196.695 193.549 196.695 193.362V175.755C196.695 175.555 196.753 175.403 196.859 175.297C196.965 175.191 197.105 175.133 197.293 175.133H207.78C207.979 175.133 208.132 175.191 208.237 175.297C208.343 175.403 208.402 175.555 208.402 175.755V176.153C208.402 176.329 208.343 176.482 208.237 176.587C208.132 176.693 207.979 176.752 207.78 176.752H198.396V183.602H207.182C207.381 183.602 207.534 183.661 207.639 183.766C207.745 183.872 207.803 184.024 207.803 184.224V184.623C207.803 184.799 207.745 184.951 207.639 185.057C207.534 185.162 207.381 185.221 207.182 185.221H198.396V192.341H207.991C208.191 192.341 208.343 192.4 208.449 192.505C208.554 192.611 208.613 192.764 208.613 192.963V193.362C208.613 193.538 208.554 193.69 208.449 193.796C208.343 193.901 208.191 193.96 207.991 193.96H197.293Z" fill="#006A57"/>
<path d="M218.255 194.23C216.8 194.23 215.569 193.996 214.56 193.526C213.551 193.057 212.777 192.459 212.237 191.72C211.698 190.981 211.416 190.207 211.381 189.385C211.381 189.245 211.44 189.116 211.545 189.01C211.651 188.905 211.791 188.846 211.944 188.846H212.484C212.659 188.846 212.8 188.905 212.894 189.01C212.988 189.116 213.047 189.245 213.07 189.385C213.14 189.89 213.363 190.383 213.739 190.875C214.114 191.368 214.665 191.778 215.404 192.107C216.143 192.435 217.094 192.6 218.255 192.6C220.014 192.6 221.293 192.283 222.102 191.649C222.912 191.016 223.311 190.16 223.311 189.08C223.311 188.365 223.099 187.79 222.677 187.344C222.255 186.91 221.61 186.512 220.753 186.16C219.897 185.808 218.794 185.421 217.445 184.987C216.179 184.576 215.123 184.154 214.302 183.708C213.481 183.274 212.871 182.734 212.484 182.113C212.096 181.491 211.909 180.682 211.909 179.696C211.909 178.781 212.155 177.96 212.636 177.233C213.117 176.506 213.821 175.931 214.748 175.497C215.674 175.063 216.789 174.852 218.126 174.852C219.182 174.852 220.108 174.992 220.894 175.286C221.68 175.567 222.337 175.954 222.853 176.423C223.369 176.893 223.768 177.409 224.038 177.96C224.308 178.511 224.448 179.039 224.472 179.555C224.472 179.684 224.425 179.802 224.343 179.919C224.249 180.036 224.108 180.095 223.909 180.095H223.369C223.275 180.095 223.17 180.06 223.029 179.989C222.888 179.919 222.806 179.778 222.771 179.555C222.665 178.664 222.196 177.925 221.363 177.338C220.531 176.752 219.451 176.47 218.126 176.47C216.8 176.47 215.721 176.728 214.877 177.245C214.032 177.761 213.61 178.582 213.61 179.684C213.61 180.4 213.797 180.987 214.173 181.444C214.548 181.902 215.146 182.3 215.944 182.652C216.753 183.004 217.786 183.38 219.064 183.79C220.413 184.224 221.516 184.646 222.396 185.08C223.275 185.514 223.932 186.031 224.355 186.652C224.777 187.274 225 188.072 225 189.057C225 190.148 224.73 191.075 224.179 191.837C223.627 192.6 222.853 193.186 221.856 193.585C220.847 193.984 219.651 194.195 218.255 194.195V194.23Z" fill="#006A57"/>
<path d="M20.8057 61.7572C20.4912 63.1134 20.9236 64.4696 22.1226 65.7669C22.3781 66.0421 22.6533 66.3172 23.0071 66.6121C26.5843 69.7373 30.9871 71.86 36.4906 73.0983C37.4733 73.3145 38.3578 73.4128 39.144 73.3931C38.1023 77.2652 37.7682 81.4518 38.1023 85.9725C38.5937 92.3015 40.972 98.375 45.1979 104.055C45.4927 104.468 45.7679 104.802 46.0431 105.097C47.6548 106.827 49.1879 106.925 50.1707 106.709C52.5096 106.198 53.3352 103.702 53.6103 102.876C54.0821 101.461 55.1041 100.065 56.9124 98.375C57.8755 97.4905 58.8386 96.606 59.8017 95.7215C62.0425 93.6774 64.3421 91.5743 66.5435 89.3925C73.816 82.1397 76.666 73.7469 75.0149 64.4303C74.3467 60.6565 72.9315 57.6296 70.6711 55.212C69.8063 54.2685 68.7842 53.4234 67.6639 52.6765L64.6959 50.6913C64.1849 49.8265 63.5952 49.0206 62.9269 48.313C60.529 45.7185 57.2662 44.205 52.9814 43.6547C46.5148 42.8292 40.5003 44.8144 35.0951 49.5513C33.9551 50.5537 32.874 51.6347 31.8519 52.6568C29.4737 55.0548 27.2133 57.3348 24.2847 58.4158C23.5378 58.691 21.2774 59.5558 20.7467 61.7572H20.8057Z" fill="#006A57"/>
<path d="M58.1109 79.2292C62.7299 75.4554 64.6168 69.5981 66.1696 54.9746C69.8451 57.4315 71.5944 60.8712 72.3217 64.9202C73.8941 73.824 70.8475 81.2144 64.6365 87.4255C61.5506 90.5114 58.2681 93.381 55.084 96.349C53.3347 97.9607 51.7622 99.769 51.0153 102.01C50.0129 105.037 48.7943 104.172 47.4774 102.403C43.8019 97.4497 41.3842 91.9069 40.9125 85.7744C40.1067 75.1016 43.4087 65.9619 51.8605 59.0039C53.7867 57.4315 55.9095 56.2325 58.2878 55.5053C62.0616 54.3456 63.3589 55.2105 63.0444 59.1808C62.5923 64.7433 61.9044 70.3057 59.6244 75.5144C59.1526 76.6151 58.7399 77.7354 58.1306 79.2489L58.1109 79.2292Z" fill="#99C337"/>
<path d="M62.6515 52.6163C56.0277 51.4763 50.1508 52.9112 44.6473 56.2133C48.1853 55.5057 51.6839 54.6605 55.3791 54.916C52.1556 57.4122 48.5784 59.2402 46.1018 62.5423C44.8832 64.154 43.4876 65.7068 42.8783 67.5937C41.8759 70.6992 39.8121 70.994 37.1193 70.3847C32.579 69.3626 28.3924 67.6133 24.8544 64.5078C23.2624 63.1123 22.6923 62.0116 25.3262 61.0288C30.2007 59.2009 33.2276 54.916 36.9817 51.6336C41.5221 47.6632 46.6914 45.6387 52.6863 46.4053C56.8336 46.936 60.5091 48.587 62.6319 52.6163H62.6515Z" fill="#99C337"/>
<path d="M204.268 57.391C204.583 58.7472 204.151 60.1034 202.952 61.4007C202.696 61.6758 202.421 61.951 202.067 62.2458C198.49 65.371 194.087 67.4938 188.584 68.7321C187.601 68.9483 186.716 69.0466 185.93 69.0269C186.972 72.899 187.306 77.0856 186.972 81.6063C186.48 87.9353 184.102 94.0088 179.876 99.6892C179.581 100.102 179.306 100.436 179.031 100.731C177.419 102.461 175.886 102.559 174.903 102.343C172.564 101.832 171.739 99.3354 171.464 98.5098C170.992 97.0947 169.97 95.6991 168.162 94.0088C167.199 93.1243 166.236 92.2398 165.272 91.3553C163.032 89.3112 160.732 87.2081 158.531 85.0263C151.258 77.7735 148.408 69.3807 150.059 60.0641C150.727 56.2903 152.143 53.2634 154.403 50.8458C155.268 49.9023 156.29 49.0572 157.41 48.3103L160.378 46.3251C160.889 45.4602 161.479 44.6544 162.147 43.9468C164.545 41.3523 167.808 39.8388 172.093 39.2885C178.559 38.463 184.574 40.4481 189.979 45.1851C191.119 46.1875 192.2 47.2685 193.222 48.2906C195.6 50.6885 197.861 52.9686 200.789 54.0496C201.536 54.3248 203.797 55.1896 204.327 57.391H204.268Z" fill="#006A57"/>
<path d="M166.982 74.862C162.363 71.0882 160.476 65.231 158.923 50.6074C155.248 53.0643 153.498 56.504 152.771 60.553C151.199 69.4568 154.245 76.8472 160.456 83.0583C163.542 86.1442 166.825 89.0138 170.009 91.9818C171.758 93.5935 173.331 95.4018 174.078 97.6425C175.08 100.669 176.299 99.8046 177.616 98.0356C181.291 93.0825 183.709 87.5397 184.18 81.4072C184.986 70.7344 181.684 61.5947 173.232 54.6368C171.306 53.0643 169.183 51.8654 166.805 51.1381C163.031 49.9785 161.734 50.8433 162.049 54.8137C162.501 60.3761 163.189 65.9385 165.469 71.1472C165.94 72.2479 166.353 73.3682 166.962 74.8817L166.982 74.862Z" fill="#99C337"/>
<path d="M162.442 48.2501C169.066 47.1101 174.943 48.545 180.447 51.8471C176.909 51.1395 173.41 50.2943 169.715 50.5498C172.938 53.046 176.516 54.874 178.992 58.1761C180.211 59.7878 181.606 61.3406 182.216 63.2275C183.218 66.333 185.282 66.6278 187.975 66.0185C192.515 64.9964 196.702 63.2471 200.239 60.1416C201.832 58.7461 202.402 57.6454 199.768 56.6626C194.893 54.8347 191.866 50.5498 188.112 47.2674C183.572 43.297 178.402 41.2725 172.408 42.0391C168.26 42.5698 164.585 44.2208 162.462 48.2501H162.442Z" fill="#99C337"/>
<path d="M176.653 48.4896C178.225 45.8558 177.95 42.9861 177.753 40.9026C177.38 38.4457 178.284 36.5588 176.102 34.043L182.412 30.9964C161.597 21.6601 140.507 11.2232 119.868 1.43484C117.903 0.491382 115.898 0 113.933 0C111.967 0 109.864 0.491382 107.78 1.51346C102.926 3.89175 97.9528 6.25038 93.1373 8.53039C78.2976 15.5473 62.0623 23.606 47.0063 30.3674L52.215 33.7678C48.7753 37.0699 50.7998 40.9026 50.2102 44.4013C50.0922 46.6223 50.7409 49.6296 54.495 51.3986C52.3526 53.6196 50.3674 58.671 52.844 62.3269C52.5884 61.9338 50.9374 64.7248 50.8588 64.9607C50.1315 66.9459 50.0922 70.3463 50.2102 72.469C50.3281 74.6508 51.075 76.9701 52.4705 78.6801C53.9643 80.5474 56.4605 80.9601 58.603 81.8053C60.9026 82.7291 63.0057 83.6529 65.4233 82.5129C66.524 87.0533 71.6737 88.8615 76.2927 87.6429C76.6858 90.4733 79.1034 91.6133 80.1452 92.1243C89.1473 96.3699 98.7391 100.91 108.272 105.49C112.026 107.298 115.859 107.298 119.593 105.49C136.693 97.2937 154.246 88.8812 171.68 80.7046C177.793 77.8349 178.422 73.8842 177.675 70.7983C177.773 67.8107 177.812 64.5283 175.041 63.0542C177.635 59.6538 177.734 54.0127 174.628 50.7893C175.414 50.1799 176.122 49.433 176.692 48.4503L176.653 48.4896ZM91.6435 77.5401C91.1521 77.3042 90.6607 77.0684 90.1694 76.8325C90.6804 76.9897 91.1718 77.2256 91.6435 77.5401ZM154.029 69.1473C153.911 68.4004 153.676 67.6731 153.341 66.9656C154.698 67.1228 156.034 67.2997 157.351 67.4569C156.25 68.0269 155.11 68.6166 154.029 69.1473Z" fill="#5F3B22"/>
<path d="M63.9298 27.6957C79.1823 20.2857 94.5331 13.0525 109.805 5.6818C112.557 4.34524 115.093 4.28628 117.864 5.62284C133.156 13.0918 148.683 20.1481 163.916 27.735C148.723 35.3023 133.136 42.3979 117.844 49.8865C115.387 51.0658 112.93 51.2427 110.474 50.0831C94.9655 42.6141 79.1627 35.6758 63.9102 27.7154L63.9298 27.6957Z" fill="#FDCF33"/>
<path d="M147.189 46.2486C148.84 47.6834 150.491 47.4476 152.378 46.5238C158.51 43.4969 164.702 40.5879 170.893 37.6592C172.839 36.7354 173.075 36.8534 173.036 39.0155C173.665 46.4255 173.625 47.0152 166.451 49.5114C150.413 57.1966 134.354 64.8032 118.335 72.5277C115.289 74.0019 112.556 73.9822 109.51 72.5277C91.8594 64.0366 74.1697 55.6242 56.4603 47.251C55.2416 46.6614 54.7503 45.9931 54.8289 44.6762C54.9272 42.7303 54.9075 40.7844 54.8289 38.8386C54.7503 37.1089 55.3399 36.873 56.8337 37.6003C63.3003 40.7255 69.7866 43.7917 76.2531 46.8972C86.7884 51.929 97.3236 56.9411 107.839 61.9728C111.849 63.8794 115.839 63.9383 119.868 62.0121C124.468 59.8107 129.047 57.5897 133.686 55.4473C135.533 54.5824 136.379 53.3245 135.986 51.3C136.713 50.9855 137.42 50.671 138.148 50.3566C140.605 53.3048 146.324 50.5334 145.263 46.8383C145.911 46.6417 146.54 46.4648 147.189 46.2683V46.2486Z" fill="#D68616"/>
<path d="M173.016 71.4866C173.861 74.0418 172.289 75.339 169.694 76.5577C152.28 84.7343 134.924 93.0485 117.568 101.343C115.072 102.542 112.733 102.522 110.237 101.343C100.861 96.8419 91.4859 92.3998 82.0907 87.9577C80.9114 87.3877 80.1645 87.0143 81.6976 85.8939C83.2307 84.7736 84.3707 83.2208 85.2748 81.5894C86.061 80.1939 86.9259 80.4298 88.0659 80.9801C94.1001 83.8891 100.252 86.5819 106.168 89.707C111.456 92.4981 116.428 92.5178 121.657 89.6677C125.411 87.6039 129.421 86.0119 133.234 84.0267C135.239 82.9849 137.342 82.9456 139.445 82.7098C145.538 82.0218 150.963 80.1349 154.265 74.4349C154.402 74.2187 154.599 73.9828 154.815 73.8649C158.648 72.1352 162.206 69.7569 166.373 68.7938C168.083 68.4007 169.793 68.0862 171.365 67.3C173.979 65.9242 172.682 69.7766 172.996 71.4866H173.016Z" fill="#D68616"/>
<path d="M147.189 46.2499C146.541 46.4465 145.912 46.6233 145.263 46.8199C144.005 45.2278 142.57 44.874 140.683 45.8175C138.207 47.0754 137.873 47.5275 138.128 50.3382C137.401 50.6527 136.693 50.9672 135.966 51.2817C134.669 49.552 133.136 49.3751 131.21 50.3382C126.532 52.6575 121.795 54.8589 117.077 57.0996C115.014 58.0824 112.93 58.1217 110.866 57.1586C92.7835 48.3923 74.4451 40.1371 56.5195 31.0957C59.1337 29.8967 61.5316 28.796 63.9099 27.6953C79.1624 35.6557 94.9653 42.594 110.454 50.063C112.911 51.2227 115.387 51.0458 117.824 49.8665C133.116 42.3975 148.703 35.3019 163.896 27.715C166.255 28.7764 168.614 29.8574 171.464 31.135C163.837 34.8302 157.155 37.9947 149.686 41.5523C147.052 42.8102 146.796 43.3016 147.15 46.2696L147.189 46.2499Z" fill="#FBDA65"/>
<path d="M100.095 74.6724C97.5791 76.6969 95.2205 74.2007 92.9994 73.0213C81.5011 67.9306 82.3856 83.2421 73.4817 83.3993C62.7106 83.4779 79.1818 60.3044 59.9196 60.5009C56.1654 60.4026 55.733 59.6754 56.8927 56.1571C57.4627 54.4471 58.1899 54.1719 59.8213 54.9385C73.0493 61.7392 87.4173 67.3016 100.115 74.6724H100.095Z" fill="#EA540A"/>
<path d="M137.165 77.286C134.197 77.1484 129.716 76.716 127.652 74.6325C127.495 74.0428 128.222 73.9839 128.595 73.807C133.902 71.2518 139.229 68.7752 144.516 66.1807C146.285 65.3159 147.15 66.5935 148.093 67.5173C149.391 68.7752 149.961 70.2887 149.076 72.0773C146.737 76.087 141.371 77.0697 137.165 77.286Z" fill="#771401"/>
<path d="M100.625 80.8029C102.728 79.7809 104.536 78.916 106.089 77.6581C106.698 77.1667 107.229 77.5795 107.76 77.835C116.408 82.336 120.477 75.6729 122.56 78.1102C123.681 79.2698 125.155 79.9381 126.924 80.9995C111.121 88.154 116.31 88.0557 100.645 80.8029H100.625Z" fill="#FDCF33"/>
<path d="M152.751 62.248C158.766 59.3783 164.328 56.7445 169.871 54.0714C170.992 53.5407 171.444 54.0124 171.856 54.9559C173.075 57.6879 171.856 60.8721 169.046 62.2283C163.66 64.5673 158.589 62.6804 152.751 62.248Z" fill="#99C337"/>
<path d="M54.8681 70.8758C54.8681 67.0888 56.3685 65.8899 59.3692 67.2788C62.6451 68.7988 64.1979 71.3606 64.0275 74.964C63.8965 77.7289 62.5665 78.5413 60.0375 77.4013C56.6568 76.2416 53.453 74.6299 54.8681 70.8758Z" fill="#D68616"/>
<path d="M138.148 50.3369C137.893 47.5262 138.227 47.0741 140.703 45.8162C142.571 44.8531 144.025 45.2265 145.283 46.8186C146.345 50.5138 140.625 53.2852 138.168 50.3369H138.148Z" fill="#5F3B22"/>
</svg>
