<?xml version="1.0" encoding="UTF-8"?>
<svg id="Layer_2" data-name="Layer 2" xmlns="http://www.w3.org/2000/svg" viewBox="0 0 30.43 9.49">
  <defs>
    <style>
      .cls-1 {
        fill: #000;
        stroke-width: 0px;
      }
    </style>
  </defs>
  <g id="Layer_1-2" data-name="Layer 1">
    <g>
      <path class="cls-1" d="M1.78,0h-.58C.53,0,0,.53,0,1.18v7.12c0,.65.53,1.18,1.2,1.18h.58c.64-.03,1.14-.54,1.14-1.18v-2.25c-.24.11-.61.27-.69.31-.12.07-.25.21-.25.52v1.25c0,.29-.23.52-.52.52s-.5-.23-.5-.52V1.34c0-.28.23-.5.5-.5s.52.23.52.5v2.09l.69-.32c.12-.05.25-.2.25-.5v-1.42C2.92.54,2.42.01,1.78,0Z"/>
      <path class="cls-1" d="M12.06,4.12V1.19c0-.66-.53-1.19-1.17-1.19h-1.74v9.49h.96v-4.08h.5c.25,0,.49.15.49.61v3.47h.96v-3.63s.03-.7-.35-.89c.39-.1.35-.84.35-.84ZM11.1,3.94c0,.43-.24.54-.49.54h-.5V.91h.5c.25,0,.49.14.49.49v2.55Z"/>
      <path class="cls-1" d="M19.23,5.23c0-.12.11-.23.23-.23h.4c.31,0,.44-.14.5-.26.04-.08.2-.47.31-.72h-1.43V1.21c0-.14.09-.23.23-.23h.77c.31,0,.45-.15.5-.27l.32-.71h-2.48c-.16,0-.28.12-.29.27v9.22h2.13c.31,0,.45-.14.52-.26.04-.08.2-.46.31-.7h-1.99v-3.29Z"/>
      <path class="cls-1" d="M29.27,0h-.73C27.87,0,27.34.53,27.34,1.18v7.14c.01.64.54,1.17,1.2,1.17h.73c.64-.03,1.14-.53,1.16-1.17V1.18C30.43.54,29.91.03,29.27,0ZM29.46,8.13c0,.29-.23.52-.5.52h-.15c-.28-.01-.5-.24-.5-.52V1.35c0-.28.23-.5.5-.52h.15c.28,0,.5.23.5.52v6.78Z"/>
    </g>
  </g>
</svg>