<?xml version="1.0" encoding="UTF-8"?>
<svg id="Layer_2" data-name="Layer 2" xmlns="http://www.w3.org/2000/svg" viewBox="0 0 49.15 13.56">
  <defs>
    <style>
      .cls-1 {
        fill: #000;
        stroke-width: 0px;
      }
    </style>
  </defs>
  <g id="Layer_1-2" data-name="Layer 1">
    <g>
      <g>
        <path class="cls-1" d="M12.7,7.39h-4.64c-.77,0-.65,1.36-.65,1.36v4.16c0,.36.31.66.69.66s.69-.29.69-.66v-4.16h3.91c.36,0,.65-.3.65-.68s-.29-.68-.65-.68Z"/>
        <path class="cls-1" d="M9.37,6.13h3.46s.76-.18.52-.91c-.02-.05-.03-.09-.05-.12-.23-.89-1.29-4.04-5.01-5.06-.84-.28-.88,1.15-.88,1.15v3.2c.03.7.58,1.74,1.95,1.74ZM10.68,3.03s.04.04.06.06c.03.03.05.06.08.09,0,0,0,0,0,0h0c.35.42.6.85.77,1.22.16.31-.22.36-.22.36h-2c-.35,0-.55-.15-.57-.44v-2.33s.02-.35.32-.19c.65.34,1.16.78,1.56,1.22Z"/>
        <path class="cls-1" d="M5.64,12.27c-1.23-.47-2.1-1.05-2.71-1.61h1.41c.38,0,.69-.3.69-.67s-.31-.67-.69-.67h-2.19c-.09,0-.17.02-.24.04-.11-.2-.19-.38-.25-.55h4.06c.29,0,.32-.33.33-.45v-3.45c0-.38-.66-.27-.66-.27H1.59c.1-.28.22-.53.34-.76,0,0,0,0,0,0h0c1.23-2.3,3.38-2.5,3.5-2.51.38-.03.66-.35.64-.72-.03-.37-.35-.66-.73-.63C5.3,0,1.15.33,0,5.15,0,5.15-.03,5.99,1.12,5.99h3.57v1.46H.79c-1.02,0-.58,1.36-.58,1.36.29,1.09,1.31,3.33,4.92,4.71.08.03.17.05.25.05.28,0,.54-.16.64-.43.14-.35-.03-.74-.39-.87Z"/>
      </g>
      <g>
        <path class="cls-1" d="M21.42,0h-.57C20.21,0,19.69.51,19.69,1.14v6.9c0,.63.51,1.14,1.16,1.14h.57c.62-.03,1.11-.53,1.11-1.14v-2.17c-.23.1-.59.26-.67.3-.12.06-.24.21-.24.5v1.21c0,.28-.22.5-.5.5s-.49-.22-.49-.5V1.3c0-.27.22-.49.49-.49s.5.22.5.49v2.02l.67-.31c.12-.05.24-.19.24-.49v-1.38C22.52.53,22.03.01,21.42,0Z"/>
        <path class="cls-1" d="M31.37,3.99V1.15C31.37.51,30.85,0,30.23,0h-1.69v9.18h.93v-3.95h.49c.24,0,.48.15.48.59v3.36h.93v-3.52s.03-.68-.33-.87c.37-.09.33-.81.33-.81ZM30.44,3.82c0,.42-.23.52-.48.52h-.49V.88h.49c.24,0,.48.13.48.47v2.47Z"/>
        <path class="cls-1" d="M38.31,5.06c0-.12.1-.22.22-.22h.39c.3,0,.42-.13.49-.25.04-.08.19-.46.3-.7h-1.39V1.17c0-.13.09-.22.22-.22h.75c.3,0,.44-.14.49-.26L40.07,0h-2.41C37.51,0,37.39.12,37.38.26v8.92h2.06c.3,0,.44-.13.5-.25.04-.08.19-.45.3-.68h-1.93v-3.19Z"/>
        <path class="cls-1" d="M48.03,0h-.71C46.68,0,46.16.51,46.16,1.14v6.91c.01.62.53,1.13,1.16,1.13h.71c.62-.03,1.11-.51,1.12-1.13V1.14C49.15.53,48.65.03,48.03,0ZM48.21,7.87c0,.28-.22.5-.49.5h-.14c-.27-.01-.49-.23-.49-.5V1.31c0-.27.22-.49.49-.5h.14c.27,0,.49.22.49.5v6.56Z"/>
      </g>
      <g>
        <path class="cls-1" d="M20.6,13.56h-.25l-.2-1.54-.2,1.54h-.25l.34-2.24h.12c.1,0,.11.06.12.12l.32,2.11Z"/>
        <path class="cls-1" d="M24.97,11.33c.15,0,.29.13.29.28v.58c0,.22-.11.37-.33.37h-.14v1h-.16c-.05,0-.06-.03-.06-.05v-2.19h.4ZM25.04,11.65c0-.06-.06-.11-.12-.11h-.12v.8h.12c.06,0,.12-.05.12-.11v-.59Z"/>
        <path class="cls-1" d="M29.76,11.33c.15,0,.29.13.29.28v.58c0,.22-.1.37-.33.37h-.14v1h-.16c-.05,0-.06-.03-.06-.05v-2.19h.4ZM29.83,11.65c0-.06-.06-.11-.12-.11h-.12v.8h.12c.06,0,.11-.05.12-.11v-.59Z"/>
        <path class="cls-1" d="M34.84,13.56h-.25l-.2-1.54-.2,1.54h-.25l.34-2.24h.12c.1,0,.11.06.12.12l.32,2.11Z"/>
        <path class="cls-1" d="M39.22,13.56v-.82c0-.11-.06-.14-.12-.14h-.12v.96h-.23v-2.24h.42c.15,0,.28.13.28.28v.69s0,.18-.08.2c.09.04.08.21.08.21v.86h-.23ZM39.1,12.39c.06,0,.12-.03.12-.13v-.6c0-.08-.06-.12-.12-.12h-.12v.84h.12Z"/>
        <path class="cls-1" d="M44.35,13.34c-.03.06-.06.15-.07.17-.02.03-.05.06-.13.06h-.51v-2.17s.03-.06.07-.06h.6l-.08.17s-.05.06-.12.06h-.19s-.05.02-.05.06v.66h.34c-.03.06-.06.15-.07.17-.02.03-.05.06-.12.06h-.1s-.05.03-.05.05v.78h.48Z"/>
        <path class="cls-1" d="M49.15,13.34c-.03.06-.06.15-.07.17-.02.03-.05.06-.12.06h-.55v-2.24h.16s.07.03.07.07v1.94h.52Z"/>
      </g>
    </g>
  </g>
</svg>