<?xml version="1.0" encoding="UTF-8"?>
<svg id="Layer_2" data-name="Layer 2" xmlns="http://www.w3.org/2000/svg" viewBox="0 0 24.26 27.77">
  <defs>
    <style>
      .cls-1 {
        fill: #000;
        stroke-width: 0px;
      }
    </style>
  </defs>
  <g id="Layer_1-2" data-name="Layer 1">
    <g>
      <g>
        <path class="cls-1" d="M18.66,8.04h-5.04c-.83,0-.71,1.48-.71,1.48v4.53c0,.4.34.72.75.72s.75-.32.75-.72v-4.53h4.25c.39,0,.71-.33.71-.74s-.32-.74-.71-.74Z"/>
        <path class="cls-1" d="M15.04,6.67h3.77s.83-.2.57-.99c-.02-.05-.04-.1-.06-.13-.25-.97-1.41-4.39-5.45-5.51-.91-.31-.95,1.25-.95,1.25v3.48c.03.76.63,1.9,2.13,1.9ZM16.46,3.3s.04.05.06.07c.03.03.06.06.08.1,0,0,0,0,0,0h0c.38.46.65.92.84,1.33.17.34-.24.39-.24.39h-2.17c-.38,0-.59-.17-.62-.48v-2.54s.02-.38.35-.21c.71.37,1.27.84,1.7,1.33Z"/>
        <path class="cls-1" d="M10.97,13.35c-1.34-.51-2.28-1.14-2.94-1.76h1.53c.41,0,.75-.33.75-.73s-.34-.73-.75-.73h-2.38c-.09,0-.18.02-.26.05-.12-.22-.21-.42-.27-.59h4.42c.31,0,.35-.36.36-.49v-3.75c0-.41-.71-.29-.71-.29h-4.13c.11-.3.24-.58.37-.83,0,0,0,0,0,0h0c1.34-2.5,3.68-2.72,3.81-2.73.41-.03.72-.38.7-.78-.03-.41-.39-.71-.8-.69-.05,0-4.56.36-5.81,5.61,0,0-.03.91,1.22.91h3.89v1.59h-4.25c-1.11,0-.63,1.48-.63,1.48.32,1.19,1.43,3.63,5.35,5.13.09.03.18.05.27.05.3,0,.58-.18.7-.46.15-.38-.04-.8-.42-.95Z"/>
      </g>
      <g>
        <path class="cls-1" d="M1.42,16.6h-.47c-.53,0-.95.42-.95.94v5.68c0,.52.42.94.95.94h.47c.51-.02.91-.43.91-.94v-1.79c-.19.08-.49.21-.55.24-.1.05-.2.17-.2.41v1c0,.23-.18.41-.41.41s-.4-.18-.4-.41v-5.41c0-.22.18-.4.4-.4s.41.18.41.4v1.66l.55-.26c.1-.04.2-.16.2-.4v-1.13c0-.51-.4-.93-.91-.94Z"/>
        <path class="cls-1" d="M9.61,19.89v-2.33c0-.53-.42-.95-.93-.95h-1.39v7.56h.76v-3.25h.4c.2,0,.39.12.39.49v2.77h.76v-2.9s.02-.56-.28-.71c.31-.08.28-.67.28-.67ZM8.85,19.75c0,.35-.19.43-.39.43h-.4v-2.85h.4c.2,0,.39.11.39.39v2.03Z"/>
        <path class="cls-1" d="M15.33,20.77c0-.1.08-.18.18-.18h.32c.24,0,.35-.11.4-.21.03-.07.16-.38.24-.57h-1.14v-2.25c0-.11.07-.18.18-.18h.61c.24,0,.36-.12.4-.22l.25-.56h-1.98c-.13,0-.22.1-.23.22v7.35h1.7c.24,0,.36-.11.41-.21.03-.06.16-.37.24-.56h-1.59v-2.63Z"/>
        <path class="cls-1" d="M23.34,16.6h-.58c-.53,0-.95.42-.95.94v5.69c.01.51.43.93.95.93h.58c.51-.02.91-.42.92-.93v-5.69c0-.51-.41-.92-.92-.94ZM23.49,23.09c0,.23-.18.41-.4.41h-.12c-.22-.01-.4-.19-.4-.41v-5.4c0-.22.18-.4.4-.41h.12c.22,0,.4.18.4.41v5.4Z"/>
      </g>
      <g>
        <path class="cls-1" d="M.75,27.77h-.21l-.17-1.27-.17,1.27h-.21l.28-1.84h.1c.08,0,.09.05.1.1l.27,1.74Z"/>
        <path class="cls-1" d="M4.35,25.93c.13,0,.24.1.24.23v.48c0,.18-.09.31-.27.31h-.11v.83h-.13s-.05-.03-.05-.04v-1.8h.33ZM4.41,26.2c0-.05-.05-.09-.1-.09h-.1v.66h.1c.05,0,.09-.04.1-.09v-.48Z"/>
        <path class="cls-1" d="M8.29,25.93c.13,0,.24.1.24.23v.48c0,.18-.09.31-.27.31h-.11v.83h-.13s-.05-.03-.05-.04v-1.8h.33ZM8.35,26.2c0-.05-.05-.09-.1-.09h-.1v.66h.1c.05,0,.09-.04.1-.09v-.48Z"/>
        <path class="cls-1" d="M12.48,27.77h-.21l-.17-1.27-.17,1.27h-.21l.28-1.84h.1c.08,0,.09.05.1.1l.27,1.74Z"/>
        <path class="cls-1" d="M16.08,27.77v-.67c0-.09-.05-.12-.1-.12h-.1v.79h-.19v-1.84h.34c.13,0,.23.1.23.23v.57s0,.15-.07.16c.07.04.07.17.07.17v.7h-.19ZM15.99,26.8s.1-.02.1-.11v-.49c0-.07-.05-.1-.1-.1h-.1v.69h.1Z"/>
        <path class="cls-1" d="M20.3,27.59s-.05.12-.06.14c-.01.02-.04.05-.1.05h-.42v-1.79s.03-.05.06-.05h.49l-.06.14s-.04.05-.1.05h-.15s-.04.02-.04.05v.55h.28s-.05.12-.06.14c-.01.02-.04.05-.1.05h-.08s-.04.02-.04.04v.64h.39Z"/>
        <path class="cls-1" d="M24.26,27.59s-.05.12-.06.14c-.01.02-.04.05-.1.05h-.45v-1.84h.13s.06.03.06.06v1.6h.43Z"/>
      </g>
    </g>
  </g>
</svg>