<svg width="228" height="62" viewBox="0 0 228 62" fill="none" xmlns="http://www.w3.org/2000/svg">
<g clip-path="url(#clip0_13_863)">
<path d="M25.0016 56.0032C38.8096 56.0032 50.0032 44.8096 50.0032 31.0016C50.0032 17.1936 38.8096 6 25.0016 6C11.1936 6 0 17.1936 0 31.0016C0 44.8096 11.1936 56.0032 25.0016 56.0032Z" fill="#0D1321"/>
<path d="M22.5499 25.3106L15.7067 15.5493L14.8252 16.1091L21.9772 26.3562L22.5499 25.3106Z" fill="white"/>
<path d="M19.2652 35.6121L22.9522 28.8816L23.2965 28.2542L23.8692 27.2118L24.2134 26.5844L25.6033 24.046L25.9443 23.425L26.3336 24.0202L34.3093 36.2395L35.1812 35.6701L26.9031 22.9843L26.5138 22.3891L26.8548 21.7681L31.4234 13.4289L30.5097 12.927L26.2081 20.7772L25.8671 21.3981L25.4778 20.8029L20.314 12.8916L19.4422 13.4611L24.9083 21.8389L25.2976 22.4341L24.9566 23.055L23.5732 25.5774L23.2289 26.2048L22.6562 27.2472L22.312 27.8746L18.3483 35.107C17.3702 36.883 16.8329 38.8005 16.7975 40.6537C16.7557 42.6934 17.3316 44.5884 18.4641 46.1391C19.8604 48.0502 21.691 49.1023 23.6182 49.1023C25.5454 49.1023 27.2634 48.1146 28.6372 46.3193C29.8469 44.7428 30.4903 42.8285 30.4936 40.7823C30.4968 38.8487 29.937 36.883 28.8753 35.0942L24.5383 28.103L23.9657 29.1454L27.9809 35.6315C28.946 37.2562 29.4512 39.0354 29.4479 40.7791C29.4447 42.5905 28.8785 44.2892 27.8071 45.6823C26.6328 47.2137 25.1432 48.0567 23.615 48.0567C22.0868 48.0567 20.4974 47.1558 19.3038 45.5214C18.3064 44.1573 17.7981 42.4779 17.8367 40.6697C17.8721 38.9839 18.3611 37.2337 19.2588 35.6057L19.2652 35.6121Z" fill="white"/>
</g>
<path d="M80.34 6.93L74.36 18.448V25H71.396V18.448L65.39 6.93H68.692L72.878 15.796L77.064 6.93H80.34ZM84.2002 8.776C83.6629 8.776 83.2122 8.594 82.8482 8.23C82.4842 7.866 82.3022 7.41533 82.3022 6.878C82.3022 6.34067 82.4842 5.89 82.8482 5.526C83.2122 5.162 83.6629 4.98 84.2002 4.98C84.7202 4.98 85.1622 5.162 85.5262 5.526C85.8902 5.89 86.0722 6.34067 86.0722 6.878C86.0722 7.41533 85.8902 7.866 85.5262 8.23C85.1622 8.594 84.7202 8.776 84.2002 8.776ZM85.6562 10.674V25H82.6922V10.674H85.6562ZM88.5597 17.772C88.5597 16.3333 88.8543 15.0593 89.4437 13.95C90.0503 12.8407 90.865 11.9827 91.8877 11.376C92.9277 10.752 94.0717 10.44 95.3197 10.44C96.4463 10.44 97.4257 10.6653 98.2577 11.116C99.107 11.5493 99.783 12.0953 100.286 12.754V10.674H103.276V25H100.286V22.868C99.783 23.544 99.0983 24.1073 98.2317 24.558C97.365 25.0087 96.377 25.234 95.2677 25.234C94.037 25.234 92.9103 24.922 91.8877 24.298C90.865 23.6567 90.0503 22.7727 89.4437 21.646C88.8543 20.502 88.5597 19.2107 88.5597 17.772ZM100.286 17.824C100.286 16.836 100.078 15.978 99.6617 15.25C99.263 14.522 98.7343 13.9673 98.0757 13.586C97.417 13.2047 96.7063 13.014 95.9437 13.014C95.181 13.014 94.4703 13.2047 93.8117 13.586C93.153 13.95 92.6157 14.496 92.1997 15.224C91.801 15.9347 91.6017 16.784 91.6017 17.772C91.6017 18.76 91.801 19.6267 92.1997 20.372C92.6157 21.1173 93.153 21.6893 93.8117 22.088C94.4877 22.4693 95.1983 22.66 95.9437 22.66C96.7063 22.66 97.417 22.4693 98.0757 22.088C98.7343 21.7067 99.263 21.152 99.6617 20.424C100.078 19.6787 100.286 18.812 100.286 17.824ZM114.397 10.44C115.523 10.44 116.529 10.674 117.413 11.142C118.314 11.61 119.016 12.3033 119.519 13.222C120.021 14.1407 120.273 15.25 120.273 16.55V25H117.335V16.992C117.335 15.7093 117.014 14.73 116.373 14.054C115.731 13.3607 114.856 13.014 113.747 13.014C112.637 13.014 111.753 13.3607 111.095 14.054C110.453 14.73 110.133 15.7093 110.133 16.992V25H107.169V10.674H110.133V12.312C110.618 11.7227 111.233 11.2633 111.979 10.934C112.741 10.6047 113.547 10.44 114.397 10.44ZM131.282 10.44C132.408 10.44 133.414 10.674 134.298 11.142C135.199 11.61 135.901 12.3033 136.404 13.222C136.906 14.1407 137.158 15.25 137.158 16.55V25H134.22V16.992C134.22 15.7093 133.899 14.73 133.258 14.054C132.616 13.3607 131.741 13.014 130.632 13.014C129.522 13.014 128.638 13.3607 127.98 14.054C127.338 14.73 127.018 15.7093 127.018 16.992V25H124.054V10.674H127.018V12.312C127.503 11.7227 128.118 11.2633 128.864 10.934C129.626 10.6047 130.432 10.44 131.282 10.44ZM142.446 8.776C141.909 8.776 141.458 8.594 141.094 8.23C140.73 7.866 140.548 7.41533 140.548 6.878C140.548 6.34067 140.73 5.89 141.094 5.526C141.458 5.162 141.909 4.98 142.446 4.98C142.966 4.98 143.408 5.162 143.772 5.526C144.136 5.89 144.318 6.34067 144.318 6.878C144.318 7.41533 144.136 7.866 143.772 8.23C143.408 8.594 142.966 8.776 142.446 8.776ZM143.902 10.674V25H140.938V10.674H143.902ZM152.994 25.234C151.867 25.234 150.853 25.0347 149.952 24.636C149.068 24.22 148.366 23.6653 147.846 22.972C147.326 22.2613 147.048 21.4727 147.014 20.606H150.082C150.134 21.2127 150.42 21.724 150.94 22.14C151.477 22.5387 152.144 22.738 152.942 22.738C153.774 22.738 154.415 22.582 154.866 22.27C155.334 21.9407 155.568 21.5247 155.568 21.022C155.568 20.4847 155.308 20.086 154.788 19.826C154.285 19.566 153.479 19.28 152.37 18.968C151.295 18.6733 150.42 18.3873 149.744 18.11C149.068 17.8327 148.478 17.408 147.976 16.836C147.49 16.264 147.248 15.51 147.248 14.574C147.248 13.8113 147.473 13.118 147.924 12.494C148.374 11.8527 149.016 11.35 149.848 10.986C150.697 10.622 151.668 10.44 152.76 10.44C154.389 10.44 155.698 10.856 156.686 11.688C157.691 12.5027 158.228 13.6207 158.298 15.042H155.334C155.282 14.4007 155.022 13.8893 154.554 13.508C154.086 13.1267 153.453 12.936 152.656 12.936C151.876 12.936 151.278 13.0833 150.862 13.378C150.446 13.6727 150.238 14.0627 150.238 14.548C150.238 14.9293 150.376 15.25 150.654 15.51C150.931 15.77 151.269 15.978 151.668 16.134C152.066 16.2727 152.656 16.4547 153.436 16.68C154.476 16.9573 155.325 17.2433 155.984 17.538C156.66 17.8153 157.24 18.2313 157.726 18.786C158.211 19.3407 158.462 20.0773 158.48 20.996C158.48 21.8107 158.254 22.5387 157.804 23.18C157.353 23.8213 156.712 24.324 155.88 24.688C155.065 25.052 154.103 25.234 152.994 25.234ZM65.962 46.926C65.962 45.158 66.3693 43.572 67.184 42.168C68.016 40.764 69.134 39.672 70.538 38.892C71.9593 38.0947 73.5107 37.696 75.192 37.696C77.116 37.696 78.8233 38.1727 80.314 39.126C81.822 40.062 82.914 41.3967 83.59 43.13H80.028C79.56 42.1767 78.91 41.466 78.078 40.998C77.246 40.53 76.284 40.296 75.192 40.296C73.996 40.296 72.93 40.5647 71.994 41.102C71.058 41.6393 70.3213 42.4107 69.784 43.416C69.264 44.4213 69.004 45.5913 69.004 46.926C69.004 48.2607 69.264 49.4307 69.784 50.436C70.3213 51.4413 71.058 52.2213 71.994 52.776C72.93 53.3133 73.996 53.582 75.192 53.582C76.284 53.582 77.246 53.348 78.078 52.88C78.91 52.412 79.56 51.7013 80.028 50.748H83.59C82.914 52.4813 81.822 53.816 80.314 54.752C78.8233 55.688 77.116 56.156 75.192 56.156C73.4933 56.156 71.942 55.766 70.538 54.986C69.134 54.1887 68.016 53.088 67.184 51.684C66.3693 50.28 65.962 48.694 65.962 46.926ZM94.4694 41.44C95.5614 41.44 96.532 41.674 97.3814 42.142C98.248 42.61 98.924 43.3033 99.4094 44.222C99.912 45.1407 100.163 46.25 100.163 47.55V56H97.2254V47.992C97.2254 46.7093 96.9047 45.73 96.2634 45.054C95.622 44.3607 94.7467 44.014 93.6374 44.014C92.528 44.014 91.644 44.3607 90.9854 45.054C90.344 45.73 90.0234 46.7093 90.0234 47.992V56H87.0594V36.76H90.0234V43.338C90.526 42.7313 91.1587 42.2633 91.9214 41.934C92.7014 41.6047 93.5507 41.44 94.4694 41.44ZM106.908 43.754C107.341 43.026 107.913 42.4627 108.624 42.064C109.352 41.648 110.21 41.44 111.198 41.44V44.508H110.444C109.283 44.508 108.399 44.8027 107.792 45.392C107.203 45.9813 106.908 47.004 106.908 48.46V56H103.944V41.674H106.908V43.754ZM115.431 39.776C114.893 39.776 114.443 39.594 114.079 39.23C113.715 38.866 113.533 38.4153 113.533 37.878C113.533 37.3407 113.715 36.89 114.079 36.526C114.443 36.162 114.893 35.98 115.431 35.98C115.951 35.98 116.393 36.162 116.757 36.526C117.121 36.89 117.303 37.3407 117.303 37.878C117.303 38.4153 117.121 38.866 116.757 39.23C116.393 39.594 115.951 39.776 115.431 39.776ZM116.887 41.674V56H113.923V41.674H116.887ZM125.978 56.234C124.851 56.234 123.837 56.0347 122.936 55.636C122.052 55.22 121.35 54.6653 120.83 53.972C120.31 53.2613 120.033 52.4727 119.998 51.606H123.066C123.118 52.2127 123.404 52.724 123.924 53.14C124.461 53.5387 125.129 53.738 125.926 53.738C126.758 53.738 127.399 53.582 127.85 53.27C128.318 52.9407 128.552 52.5247 128.552 52.022C128.552 51.4847 128.292 51.086 127.772 50.826C127.269 50.566 126.463 50.28 125.354 49.968C124.279 49.6733 123.404 49.3873 122.728 49.11C122.052 48.8327 121.463 48.408 120.96 47.836C120.475 47.264 120.232 46.51 120.232 45.574C120.232 44.8113 120.457 44.118 120.908 43.494C121.359 42.8527 122 42.35 122.832 41.986C123.681 41.622 124.652 41.44 125.744 41.44C127.373 41.44 128.682 41.856 129.67 42.688C130.675 43.5027 131.213 44.6207 131.282 46.042H128.318C128.266 45.4007 128.006 44.8893 127.538 44.508C127.07 44.1267 126.437 43.936 125.64 43.936C124.86 43.936 124.262 44.0833 123.846 44.378C123.43 44.6727 123.222 45.0627 123.222 45.548C123.222 45.9293 123.361 46.25 123.638 46.51C123.915 46.77 124.253 46.978 124.652 47.134C125.051 47.2727 125.64 47.4547 126.42 47.68C127.46 47.9573 128.309 48.2433 128.968 48.538C129.644 48.8153 130.225 49.2313 130.71 49.786C131.195 50.3407 131.447 51.0773 131.464 51.996C131.464 52.8107 131.239 53.5387 130.788 54.18C130.337 54.8213 129.696 55.324 128.864 55.688C128.049 56.052 127.087 56.234 125.978 56.234ZM138.125 44.092V52.022C138.125 52.5593 138.246 52.9493 138.489 53.192C138.749 53.4173 139.182 53.53 139.789 53.53H141.609V56H139.269C137.934 56 136.911 55.688 136.201 55.064C135.49 54.44 135.135 53.426 135.135 52.022V44.092H133.445V41.674H135.135V38.112H138.125V41.674H141.609V44.092H138.125ZM150.555 56.234C149.203 56.234 147.981 55.9307 146.889 55.324C145.797 54.7 144.939 53.8333 144.315 52.724C143.691 51.5973 143.379 50.2973 143.379 48.824C143.379 47.368 143.699 46.0767 144.341 44.95C144.982 43.8233 145.857 42.9567 146.967 42.35C148.076 41.7433 149.315 41.44 150.685 41.44C152.054 41.44 153.293 41.7433 154.403 42.35C155.512 42.9567 156.387 43.8233 157.029 44.95C157.67 46.0767 157.991 47.368 157.991 48.824C157.991 50.28 157.661 51.5713 157.003 52.698C156.344 53.8247 155.443 54.7 154.299 55.324C153.172 55.9307 151.924 56.234 150.555 56.234ZM150.555 53.66C151.317 53.66 152.028 53.478 152.687 53.114C153.363 52.75 153.909 52.204 154.325 51.476C154.741 50.748 154.949 49.864 154.949 48.824C154.949 47.784 154.749 46.9087 154.351 46.198C153.952 45.47 153.423 44.924 152.765 44.56C152.106 44.196 151.395 44.014 150.633 44.014C149.87 44.014 149.159 44.196 148.501 44.56C147.859 44.924 147.348 45.47 146.967 46.198C146.585 46.9087 146.395 47.784 146.395 48.824C146.395 50.3667 146.785 51.5627 147.565 52.412C148.362 53.244 149.359 53.66 150.555 53.66ZM166.927 44.092H164.275V56H161.285V44.092H159.595V41.674H161.285V40.66C161.285 39.0133 161.718 37.8173 162.585 37.072C163.469 36.3093 164.847 35.928 166.719 35.928V38.398C165.817 38.398 165.185 38.5713 164.821 38.918C164.457 39.2473 164.275 39.828 164.275 40.66V41.674H166.927V44.092ZM175.768 56.234C174.416 56.234 173.194 55.9307 172.102 55.324C171.01 54.7 170.152 53.8333 169.528 52.724C168.904 51.5973 168.592 50.2973 168.592 48.824C168.592 47.368 168.912 46.0767 169.554 44.95C170.195 43.8233 171.07 42.9567 172.18 42.35C173.289 41.7433 174.528 41.44 175.898 41.44C177.267 41.44 178.506 41.7433 179.616 42.35C180.725 42.9567 181.6 43.8233 182.242 44.95C182.883 46.0767 183.204 47.368 183.204 48.824C183.204 50.28 182.874 51.5713 182.216 52.698C181.557 53.8247 180.656 54.7 179.512 55.324C178.385 55.9307 177.137 56.234 175.768 56.234ZM175.768 53.66C176.53 53.66 177.241 53.478 177.9 53.114C178.576 52.75 179.122 52.204 179.538 51.476C179.954 50.748 180.162 49.864 180.162 48.824C180.162 47.784 179.962 46.9087 179.564 46.198C179.165 45.47 178.636 44.924 177.978 44.56C177.319 44.196 176.608 44.014 175.846 44.014C175.083 44.014 174.372 44.196 173.714 44.56C173.072 44.924 172.561 45.47 172.18 46.198C171.798 46.9087 171.608 47.784 171.608 48.824C171.608 50.3667 171.998 51.5627 172.778 52.412C173.575 53.244 174.572 53.66 175.768 53.66ZM189.098 43.754C189.531 43.026 190.103 42.4627 190.814 42.064C191.542 41.648 192.4 41.44 193.388 41.44V44.508H192.634C191.472 44.508 190.588 44.8027 189.982 45.392C189.392 45.9813 189.098 47.004 189.098 48.46V56H186.134V41.674H189.098V43.754ZM202.326 56.234C200.974 56.234 199.752 55.9307 198.66 55.324C197.568 54.7 196.71 53.8333 196.086 52.724C195.462 51.5973 195.15 50.2973 195.15 48.824C195.15 47.368 195.471 46.0767 196.112 44.95C196.753 43.8233 197.629 42.9567 198.738 42.35C199.847 41.7433 201.087 41.44 202.456 41.44C203.825 41.44 205.065 41.7433 206.174 42.35C207.283 42.9567 208.159 43.8233 208.8 44.95C209.441 46.0767 209.762 47.368 209.762 48.824C209.762 50.28 209.433 51.5713 208.774 52.698C208.115 53.8247 207.214 54.7 206.07 55.324C204.943 55.9307 203.695 56.234 202.326 56.234ZM202.326 53.66C203.089 53.66 203.799 53.478 204.458 53.114C205.134 52.75 205.68 52.204 206.096 51.476C206.512 50.748 206.72 49.864 206.72 48.824C206.72 47.784 206.521 46.9087 206.122 46.198C205.723 45.47 205.195 44.924 204.536 44.56C203.877 44.196 203.167 44.014 202.404 44.014C201.641 44.014 200.931 44.196 200.272 44.56C199.631 44.924 199.119 45.47 198.738 46.198C198.357 46.9087 198.166 47.784 198.166 48.824C198.166 50.3667 198.556 51.5627 199.336 52.412C200.133 53.244 201.13 53.66 202.326 53.66ZM225.666 41.674V56H222.702V54.31C222.234 54.8993 221.619 55.3673 220.856 55.714C220.111 56.0433 219.314 56.208 218.464 56.208C217.338 56.208 216.324 55.974 215.422 55.506C214.538 55.038 213.836 54.3447 213.316 53.426C212.814 52.5073 212.562 51.398 212.562 50.098V41.674H215.5V49.656C215.5 50.9387 215.821 51.9267 216.462 52.62C217.104 53.296 217.979 53.634 219.088 53.634C220.198 53.634 221.073 53.296 221.714 52.62C222.373 51.9267 222.702 50.9387 222.702 49.656V41.674H225.666Z" fill="#0D1321"/>
<defs>
<clipPath id="clip0_13_863">
<rect width="50" height="50" fill="white" transform="translate(0 6)"/>
</clipPath>
</defs>
</svg>
