<svg width="832" height="240" viewBox="0 0 832 240" fill="none" xmlns="http://www.w3.org/2000/svg">
<path d="M91.2073 211.689C141.58 211.689 182.415 170.854 182.415 120.481C182.415 70.109 141.58 29.274 91.2073 29.274C40.8349 29.274 0 70.109 0 120.481C0 170.854 40.8349 211.689 91.2073 211.689Z" fill="white"/>
<path d="M82.7885 99.839L82.9376 99.5666L82.7595 99.3123L57.8248 63.7002L57.5505 63.3085L57.1469 63.5651L53.935 65.6074L53.4948 65.8873L53.7931 66.3152L79.853 103.7L80.3145 104.362L80.7018 103.654L82.7885 99.839Z" fill="black" stroke="black"/>
<path d="M65.6761 155.644C65.7991 149.783 67.4454 143.694 70.4784 137.987L70.4995 138.008L70.8199 137.422L84.2542 112.867L84.2543 112.867L85.5086 110.579L85.5087 110.579L87.5953 106.776L87.5955 106.775L88.8496 104.487L88.8498 104.486L93.914 95.2259L93.9143 95.2254L94.7555 93.6914L95.7177 95.1644L95.718 95.1648L124.779 139.744L125.052 140.163L125.471 139.889L128.648 137.812L129.066 137.539L128.794 137.121L98.6306 90.8391L98.6303 90.8386L97.3757 88.9182L98.4741 86.9155L98.4743 86.915L115.121 56.4912L115.36 56.0535L114.923 55.8131L111.594 53.982L111.155 53.7405L110.915 54.1801L95.2409 82.8195L95.2407 82.8199L94.3994 84.3537L93.4371 82.8806L93.4369 82.8802L74.6217 54.0179L74.3482 53.5984L73.9291 53.8725L70.7526 55.9502L70.3348 56.2234L70.6073 56.6416L90.5243 87.2063L90.5246 87.2068L91.7791 89.1272L90.6808 91.1296L90.6807 91.1298L85.64 100.332L85.6399 100.332L84.3856 102.621L84.3855 102.621L82.2988 106.424L82.2987 106.424L81.0445 108.713L81.0444 108.713L66.6023 135.098C63.0033 141.641 61.0205 148.716 60.8898 155.565C60.7355 163.109 62.8633 170.131 67.0584 175.882L67.0584 175.882C72.2162 182.95 79.0236 186.898 86.2424 186.898C93.4568 186.898 99.8517 183.19 104.928 176.549C109.404 170.708 111.782 163.617 111.794 156.045C111.806 148.894 109.739 141.635 105.828 135.038L105.828 135.038L105.823 135.029L90.02 109.523L89.5688 108.795L89.1566 109.546L87.0702 113.349L86.9301 113.605L87.0833 113.853L101.709 137.508C101.71 137.509 101.71 137.51 101.711 137.512C105.184 143.367 106.996 149.769 106.984 156.032C106.973 162.535 104.943 168.625 101.109 173.616L101.109 173.617C96.8971 179.116 91.6035 182.084 86.2308 182.084C80.8627 182.084 75.2077 178.91 70.9259 173.039L70.9257 173.039C67.3608 168.157 65.5377 162.14 65.6761 155.644L65.6761 155.644Z" fill="black" stroke="black"/>
<path d="M276.81 29.18V92H264.21V29.18H276.81ZM311.399 92.81C306.599 92.81 302.279 91.76 298.439 89.66C294.599 87.5 291.569 84.47 289.349 80.57C287.189 76.67 286.109 72.17 286.109 67.07C286.109 61.97 287.219 57.47 289.439 53.57C291.719 49.67 294.809 46.67 298.709 44.57C302.609 42.41 306.959 41.33 311.759 41.33C316.559 41.33 320.909 42.41 324.809 44.57C328.709 46.67 331.769 49.67 333.989 53.57C336.269 57.47 337.409 61.97 337.409 67.07C337.409 72.17 336.239 76.67 333.899 80.57C331.619 84.47 328.499 87.5 324.539 89.66C320.639 91.76 316.259 92.81 311.399 92.81ZM311.399 81.83C313.679 81.83 315.809 81.29 317.789 80.21C319.829 79.07 321.449 77.39 322.649 75.17C323.849 72.95 324.449 70.25 324.449 67.07C324.449 62.33 323.189 58.7 320.669 56.18C318.209 53.6 315.179 52.31 311.579 52.31C307.979 52.31 304.949 53.6 302.489 56.18C300.089 58.7 298.889 62.33 298.889 67.07C298.889 71.81 300.059 75.47 302.399 78.05C304.799 80.57 307.799 81.83 311.399 81.83ZM343.411 66.89C343.411 61.85 344.401 57.38 346.381 53.48C348.421 49.58 351.151 46.58 354.571 44.48C358.051 42.38 361.921 41.33 366.181 41.33C369.901 41.33 373.141 42.08 375.901 43.58C378.721 45.08 380.971 46.97 382.651 49.25V42.14H395.341V92H382.651V84.71C381.031 87.05 378.781 89 375.901 90.56C373.081 92.06 369.811 92.81 366.091 92.81C361.891 92.81 358.051 91.73 354.571 89.57C351.151 87.41 348.421 84.38 346.381 80.48C344.401 76.52 343.411 71.99 343.411 66.89ZM382.651 67.07C382.651 64.01 382.051 61.4 380.851 59.24C379.651 57.02 378.031 55.34 375.991 54.2C373.951 53 371.761 52.4 369.421 52.4C367.081 52.4 364.921 52.97 362.941 54.11C360.961 55.25 359.341 56.93 358.081 59.15C356.881 61.31 356.281 63.89 356.281 66.89C356.281 69.89 356.881 72.53 358.081 74.81C359.341 77.03 360.961 78.74 362.941 79.94C364.981 81.14 367.141 81.74 369.421 81.74C371.761 81.74 373.951 81.17 375.991 80.03C378.031 78.83 379.651 77.15 380.851 74.99C382.051 72.77 382.651 70.13 382.651 67.07ZM435.278 41.42C441.218 41.42 446.018 43.31 449.678 47.09C453.338 50.81 455.168 56.03 455.168 62.75V92H442.568V64.46C442.568 60.5 441.578 57.47 439.598 55.37C437.618 53.21 434.918 52.13 431.498 52.13C428.018 52.13 425.258 53.21 423.218 55.37C421.238 57.47 420.248 60.5 420.248 64.46V92H407.648V42.14H420.248V48.35C421.928 46.19 424.058 44.51 426.638 43.31C429.278 42.05 432.158 41.42 435.278 41.42ZM494.779 41.42C500.719 41.42 505.519 43.31 509.179 47.09C512.839 50.81 514.669 56.03 514.669 62.75V92H502.069V64.46C502.069 60.5 501.079 57.47 499.099 55.37C497.119 53.21 494.419 52.13 490.999 52.13C487.519 52.13 484.759 53.21 482.719 55.37C480.739 57.47 479.749 60.5 479.749 64.46V92H467.149V42.14H479.749V48.35C481.429 46.19 483.559 44.51 486.139 43.31C488.779 42.05 491.659 41.42 494.779 41.42ZM533.041 36.2C530.821 36.2 528.961 35.51 527.461 34.13C526.021 32.69 525.301 30.92 525.301 28.82C525.301 26.72 526.021 24.98 527.461 23.6C528.961 22.16 530.821 21.44 533.041 21.44C535.261 21.44 537.091 22.16 538.531 23.6C540.031 24.98 540.781 26.72 540.781 28.82C540.781 30.92 540.031 32.69 538.531 34.13C537.091 35.51 535.261 36.2 533.041 36.2ZM539.251 42.14V92H526.651V42.14H539.251ZM570.78 92.81C566.7 92.81 563.04 92.09 559.8 90.65C556.56 89.15 553.98 87.14 552.06 84.62C550.2 82.1 549.18 79.31 549 76.25H561.69C561.93 78.17 562.86 79.76 564.48 81.02C566.16 82.28 568.23 82.91 570.69 82.91C573.09 82.91 574.95 82.43 576.27 81.47C577.65 80.51 578.34 79.28 578.34 77.78C578.34 76.16 577.5 74.96 575.82 74.18C574.2 73.34 571.59 72.44 567.99 71.48C564.27 70.58 561.21 69.65 558.81 68.69C556.47 67.73 554.43 66.26 552.69 64.28C551.01 62.3 550.17 59.63 550.17 56.27C550.17 53.51 550.95 50.99 552.51 48.71C554.13 46.43 556.41 44.63 559.35 43.31C562.35 41.99 565.86 41.33 569.88 41.33C575.82 41.33 580.56 42.83 584.1 45.83C587.64 48.77 589.59 52.76 589.95 57.8H577.89C577.71 55.82 576.87 54.26 575.37 53.12C573.93 51.92 571.98 51.32 569.52 51.32C567.24 51.32 565.47 51.74 564.21 52.58C563.01 53.42 562.41 54.59 562.41 56.09C562.41 57.77 563.25 59.06 564.93 59.96C566.61 60.8 569.22 61.67 572.76 62.57C576.36 63.47 579.33 64.4 581.67 65.36C584.01 66.32 586.02 67.82 587.7 69.86C589.44 71.84 590.34 74.48 590.4 77.78C590.4 80.66 589.59 83.24 587.97 85.52C586.41 87.8 584.13 89.6 581.13 90.92C578.19 92.18 574.74 92.81 570.78 92.81ZM261.15 180.5C261.15 174.32 262.53 168.8 265.29 163.94C268.11 159.02 271.92 155.21 276.72 152.51C281.58 149.75 287.01 148.37 293.01 148.37C300.03 148.37 306.18 150.17 311.46 153.77C316.74 157.37 320.43 162.35 322.53 168.71H308.04C306.6 165.71 304.56 163.46 301.92 161.96C299.34 160.46 296.34 159.71 292.92 159.71C289.26 159.71 285.99 160.58 283.11 162.32C280.29 164 278.07 166.4 276.45 169.52C274.89 172.64 274.11 176.3 274.11 180.5C274.11 184.64 274.89 188.3 276.45 191.48C278.07 194.6 280.29 197.03 283.11 198.77C285.99 200.45 289.26 201.29 292.92 201.29C296.34 201.29 299.34 200.54 301.92 199.04C304.56 197.48 306.6 195.2 308.04 192.2H322.53C320.43 198.62 316.74 203.63 311.46 207.23C306.24 210.77 300.09 212.54 293.01 212.54C287.01 212.54 281.58 211.19 276.72 208.49C271.92 205.73 268.11 201.92 265.29 197.06C262.53 192.2 261.15 186.68 261.15 180.5ZM361.372 161.42C365.152 161.42 368.512 162.26 371.452 163.94C374.392 165.56 376.672 167.99 378.292 171.23C379.972 174.41 380.812 178.25 380.812 182.75V212H368.212V184.46C368.212 180.5 367.222 177.47 365.242 175.37C363.262 173.21 360.562 172.13 357.142 172.13C353.662 172.13 350.902 173.21 348.862 175.37C346.882 177.47 345.892 180.5 345.892 184.46V212H333.292V145.4H345.892V168.35C347.512 166.19 349.672 164.51 352.372 163.31C355.072 162.05 358.072 161.42 361.372 161.42ZM405.394 169.88C407.014 167.24 409.114 165.17 411.694 163.67C414.334 162.17 417.334 161.42 420.694 161.42V174.65H417.364C413.404 174.65 410.404 175.58 408.364 177.44C406.384 179.3 405.394 182.54 405.394 187.16V212H392.794V162.14H405.394V169.88ZM435.571 156.2C433.351 156.2 431.491 155.51 429.991 154.13C428.551 152.69 427.831 150.92 427.831 148.82C427.831 146.72 428.551 144.98 429.991 143.6C431.491 142.16 433.351 141.44 435.571 141.44C437.791 141.44 439.621 142.16 441.061 143.6C442.561 144.98 443.311 146.72 443.311 148.82C443.311 150.92 442.561 152.69 441.061 154.13C439.621 155.51 437.791 156.2 435.571 156.2ZM441.781 162.14V212H429.181V162.14H441.781ZM473.31 212.81C469.23 212.81 465.57 212.09 462.33 210.65C459.09 209.15 456.51 207.14 454.59 204.62C452.73 202.1 451.71 199.31 451.53 196.25H464.22C464.46 198.17 465.39 199.76 467.01 201.02C468.69 202.28 470.76 202.91 473.22 202.91C475.62 202.91 477.48 202.43 478.8 201.47C480.18 200.51 480.87 199.28 480.87 197.78C480.87 196.16 480.03 194.96 478.35 194.18C476.73 193.34 474.12 192.44 470.52 191.48C466.8 190.58 463.74 189.65 461.34 188.69C459 187.73 456.96 186.26 455.22 184.28C453.54 182.3 452.7 179.63 452.7 176.27C452.7 173.51 453.48 170.99 455.04 168.71C456.66 166.43 458.94 164.63 461.88 163.31C464.88 161.99 468.39 161.33 472.41 161.33C478.35 161.33 483.09 162.83 486.63 165.83C490.17 168.77 492.12 172.76 492.48 177.8H480.42C480.24 175.82 479.4 174.26 477.9 173.12C476.46 171.92 474.51 171.32 472.05 171.32C469.77 171.32 468 171.74 466.74 172.58C465.54 173.42 464.94 174.59 464.94 176.09C464.94 177.77 465.78 179.06 467.46 179.96C469.14 180.8 471.75 181.67 475.29 182.57C478.89 183.47 481.86 184.4 484.2 185.36C486.54 186.32 488.55 187.82 490.23 189.86C491.97 191.84 492.87 194.48 492.93 197.78C492.93 200.66 492.12 203.24 490.5 205.52C488.94 207.8 486.66 209.6 483.66 210.92C480.72 212.18 477.27 212.81 473.31 212.81ZM517.943 172.49V196.61C517.943 198.29 518.333 199.52 519.113 200.3C519.953 201.02 521.333 201.38 523.253 201.38H529.103V212H521.183C510.563 212 505.253 206.84 505.253 196.52V172.49H499.313V162.14H505.253V149.81H517.943V162.14H529.103V172.49H517.943ZM560.305 212.81C555.505 212.81 551.185 211.76 547.345 209.66C543.505 207.5 540.475 204.47 538.255 200.57C536.095 196.67 535.015 192.17 535.015 187.07C535.015 181.97 536.125 177.47 538.345 173.57C540.625 169.67 543.715 166.67 547.615 164.57C551.515 162.41 555.865 161.33 560.665 161.33C565.465 161.33 569.815 162.41 573.715 164.57C577.615 166.67 580.675 169.67 582.895 173.57C585.175 177.47 586.315 181.97 586.315 187.07C586.315 192.17 585.145 196.67 582.805 200.57C580.525 204.47 577.405 207.5 573.445 209.66C569.545 211.76 565.165 212.81 560.305 212.81ZM560.305 201.83C562.585 201.83 564.715 201.29 566.695 200.21C568.735 199.07 570.355 197.39 571.555 195.17C572.755 192.95 573.355 190.25 573.355 187.07C573.355 182.33 572.095 178.7 569.575 176.18C567.115 173.6 564.085 172.31 560.485 172.31C556.885 172.31 553.855 173.6 551.395 176.18C548.995 178.7 547.795 182.33 547.795 187.07C547.795 191.81 548.965 195.47 551.305 198.05C553.705 200.57 556.705 201.83 560.305 201.83ZM618.418 172.49H609.688V212H596.908V172.49H591.238V162.14H596.908V159.62C596.908 153.5 598.648 149 602.128 146.12C605.608 143.24 610.858 141.89 617.878 142.07V152.69C614.818 152.63 612.688 153.14 611.488 154.22C610.288 155.3 609.688 157.25 609.688 160.07V162.14H618.418V172.49ZM648.723 212.81C643.923 212.81 639.603 211.76 635.763 209.66C631.923 207.5 628.893 204.47 626.673 200.57C624.513 196.67 623.433 192.17 623.433 187.07C623.433 181.97 624.543 177.47 626.763 173.57C629.043 169.67 632.133 166.67 636.033 164.57C639.933 162.41 644.283 161.33 649.083 161.33C653.883 161.33 658.233 162.41 662.133 164.57C666.033 166.67 669.093 169.67 671.313 173.57C673.593 177.47 674.733 181.97 674.733 187.07C674.733 192.17 673.563 196.67 671.223 200.57C668.943 204.47 665.823 207.5 661.863 209.66C657.963 211.76 653.583 212.81 648.723 212.81ZM648.723 201.83C651.003 201.83 653.133 201.29 655.113 200.21C657.153 199.07 658.773 197.39 659.973 195.17C661.173 192.95 661.773 190.25 661.773 187.07C661.773 182.33 660.513 178.7 657.993 176.18C655.533 173.6 652.503 172.31 648.903 172.31C645.303 172.31 642.273 173.6 639.813 176.18C637.413 178.7 636.213 182.33 636.213 187.07C636.213 191.81 637.383 195.47 639.723 198.05C642.123 200.57 645.123 201.83 648.723 201.83ZM696.576 169.88C698.196 167.24 700.296 165.17 702.876 163.67C705.516 162.17 708.516 161.42 711.876 161.42V174.65H708.546C704.586 174.65 701.586 175.58 699.546 177.44C697.566 179.3 696.576 182.54 696.576 187.16V212H683.976V162.14H696.576V169.88ZM742.502 212.81C737.702 212.81 733.382 211.76 729.542 209.66C725.702 207.5 722.672 204.47 720.452 200.57C718.292 196.67 717.212 192.17 717.212 187.07C717.212 181.97 718.322 177.47 720.542 173.57C722.822 169.67 725.912 166.67 729.812 164.57C733.712 162.41 738.062 161.33 742.862 161.33C747.662 161.33 752.012 162.41 755.912 164.57C759.812 166.67 762.872 169.67 765.092 173.57C767.372 177.47 768.512 181.97 768.512 187.07C768.512 192.17 767.342 196.67 765.002 200.57C762.722 204.47 759.602 207.5 755.642 209.66C751.742 211.76 747.362 212.81 742.502 212.81ZM742.502 201.83C744.782 201.83 746.912 201.29 748.892 200.21C750.932 199.07 752.552 197.39 753.752 195.17C754.952 192.95 755.552 190.25 755.552 187.07C755.552 182.33 754.292 178.7 751.772 176.18C749.312 173.6 746.282 172.31 742.682 172.31C739.082 172.31 736.052 173.6 733.592 176.18C731.192 178.7 729.992 182.33 729.992 187.07C729.992 191.81 731.162 195.47 733.502 198.05C735.902 200.57 738.902 201.83 742.502 201.83ZM824.825 162.14V212H812.135V205.7C810.515 207.86 808.385 209.57 805.745 210.83C803.165 212.03 800.345 212.63 797.285 212.63C793.385 212.63 789.935 211.82 786.935 210.2C783.935 208.52 781.565 206.09 779.825 202.91C778.145 199.67 777.305 195.83 777.305 191.39V162.14H789.905V189.59C789.905 193.55 790.895 196.61 792.875 198.77C794.855 200.87 797.555 201.92 800.975 201.92C804.455 201.92 807.185 200.87 809.165 198.77C811.145 196.61 812.135 193.55 812.135 189.59V162.14H824.825Z" fill="white"/>
</svg>
